<?xml version="1.0" encoding="UTF-8"?>
<svg version="1.1" xmlns="http://www.w3.org/2000/svg" width="75" height="129">
<path d="M0 0 C1.01414094 10.12732407 -1.8231919 17.74696956 -6 26.75 C-6.58016204 28.043359 -7.15830165 29.33762718 -7.734375 30.6328125 C-9.13314417 33.76601037 -10.55868793 36.88610149 -12 40 C-10.22496094 39.566875 -10.22496094 39.566875 -8.4140625 39.125 C-0.15240768 37.16484422 7.44993692 35.44838303 16 36 C16.14257716 44.55462941 12.62079623 48.74809355 7.37841797 55.24121094 C4.87050467 58.44117683 2.57368291 61.79020823 0.25 65.125 C-3.86642498 70.99587007 -8.03417241 76.82515721 -12.25 82.625 C-18.07664921 90.64620548 -23.74147624 98.77517674 -29.35644531 106.94580078 C-41.65689381 124.76359258 -41.65689381 124.76359258 -49 129 C-49.99 128.67 -50.98 128.34 -52 128 C-50.42346142 123.83073112 -48.83754937 119.66508739 -47.25 115.5 C-46.58484375 113.74042969 -46.58484375 113.74042969 -45.90625 111.9453125 C-42.15668943 102.13028631 -42.15668943 102.13028631 -39.8984375 97.828125 C-37.46769203 93.17329663 -35.96186534 88.24230643 -34.375 83.25 C-33.78141116 81.40015203 -33.18515593 79.55115706 -32.5859375 77.703125 C-32.3286084 76.89520508 -32.0712793 76.08728516 -31.80615234 75.25488281 C-31.02281624 73.06381913 -30.08552275 71.0557271 -29 69 C-30.21816406 69.2165625 -31.43632812 69.433125 -32.69140625 69.65625 C-34.31505098 69.93780689 -35.93875193 70.21903969 -37.5625 70.5 C-38.36236328 70.64308594 -39.16222656 70.78617187 -39.98632812 70.93359375 C-44.70445421 71.74241537 -49.19251384 72.28497985 -54 72 C-55.9375 70.625 -55.9375 70.625 -57 69 C-57 68.34 -57 67.68 -57 67 C-57.66 67 -58.32 67 -59 67 C-59 65 -59 65 -57.68115234 63.64794922 C-57.12637207 63.10412598 -56.5715918 62.56030273 -56 62 C-54.99776594 60.56887734 -54.03494205 59.1097647 -53.1015625 57.6328125 C-52.54573486 56.75681396 -51.98990723 55.88081543 -51.41723633 54.97827148 C-50.82579834 54.03669189 -50.23436035 53.0951123 -49.625 52.125 C-49.01229248 51.15570557 -48.39958496 50.18641113 -47.76831055 49.18774414 C-37.31920801 33.04449516 -37.31920801 33.04449516 -27.62915039 16.45263672 C-24.67286304 12.00203539 -20.03135416 9.5784256 -15.625 6.6875 C-14.67882813 6.04232422 -13.73265625 5.39714844 -12.7578125 4.73242188 C-11.84 4.12333984 -10.9221875 3.51425781 -9.9765625 2.88671875 C-9.14205566 2.33201904 -8.30754883 1.77731934 -7.44775391 1.20581055 C-4.73304118 -0.13150904 -2.9859404 -0.24610863 0 0 Z " fill="#A12D43" transform="translate(59,0)"/>
<path d="M0 0 C1.01414094 10.12732407 -1.8231919 17.74696956 -6 26.75 C-6.58016204 28.043359 -7.15830165 29.33762718 -7.734375 30.6328125 C-9.13314417 33.76601037 -10.55868793 36.88610149 -12 40 C-10.77023438 39.71125 -9.54046875 39.4225 -8.2734375 39.125 C-6.64070339 38.74965883 -5.00788646 38.37467782 -3.375 38 C-2.56675781 37.80921875 -1.75851563 37.6184375 -0.92578125 37.421875 C3.47204169 36.42074457 7.45561039 35.7646918 12 36 C11.6875 37.9375 11.6875 37.9375 11 40 C8.5074428 40.8308524 6.5956179 41.23095101 4.0234375 41.5 C3.270625 41.5825 2.5178125 41.665 1.7421875 41.75 C0.15633597 41.91748267 -1.42960278 42.08414147 -3.015625 42.25 C-6.82411369 42.33729219 -6.82411369 42.33729219 -10 44 C-12.67058851 44.14115161 -15.32432238 44.04247107 -18 44 C-18 44.99 -18 45.98 -18 47 C-17.030625 46.79375 -16.06125 46.5875 -15.0625 46.375 C-10.47227255 45.68834712 -6.41873542 46.78760321 -2 48 C-2.30421875 48.57363281 -2.6084375 49.14726563 -2.921875 49.73828125 C-3.94174958 51.87780074 -4.58603296 53.91894595 -5.25 56.1875 C-6.0078125 58.30078125 -6.0078125 58.30078125 -7 60 C-10.125 60.875 -10.125 60.875 -13 61 C-13.495 61.99 -13.495 61.99 -14 63 C-14.99 63 -15.98 63 -17 63 C-17.33 62.34 -17.66 61.68 -18 61 C-18.99 61.495 -18.99 61.495 -20 62 C-20.495 60.02 -20.495 60.02 -21 58 C-21.65742187 58.16242187 -22.31484375 58.32484375 -22.9921875 58.4921875 C-26.71465417 59.1206559 -30.36304975 59.14555711 -34.125 59.125 C-35.19814453 59.13080078 -35.19814453 59.13080078 -36.29296875 59.13671875 C-39.46134984 59.13079654 -41.97310145 59.00896618 -45 58 C-45.33 56.35 -45.66 54.7 -46 53 C-46.66 53 -47.32 53 -48 53 C-48.2475 53.53625 -48.495 54.0725 -48.75 54.625 C-50.29696975 57.56424252 -52.13014369 60.25754408 -54 63 C-54.66 62.67 -55.32 62.34 -56 62 C-55.46596558 61.16529175 -55.46596558 61.16529175 -54.92114258 60.3137207 C-40.72233806 38.7134082 -40.72233806 38.7134082 -27.62915039 16.45263672 C-24.67286304 12.00203539 -20.03135416 9.5784256 -15.625 6.6875 C-14.67882813 6.04232422 -13.73265625 5.39714844 -12.7578125 4.73242188 C-11.84 4.12333984 -10.9221875 3.51425781 -9.9765625 2.88671875 C-9.14205566 2.33201904 -8.30754883 1.77731934 -7.44775391 1.20581055 C-4.73304118 -0.13150904 -2.9859404 -0.24610863 0 0 Z " fill="#C99C7A" transform="translate(59,0)"/>
<path d="M0 0 C0.42675667 3.6274317 0.15025763 4.79510324 -2.0625 7.8125 C-4.72068821 12.18564834 -4.14511275 14.09237393 -3 19 C-2.34 19.66 -1.68 20.32 -1 21 C-1 21.99 -1 22.98 -1 24 C-0.030625 23.79375 0.93875 23.5875 1.9375 23.375 C6.52772745 22.68834712 10.58126458 23.78760321 15 25 C14.69578125 25.57363281 14.3915625 26.14726563 14.078125 26.73828125 C13.05825042 28.87780074 12.41396704 30.91894595 11.75 33.1875 C10.9921875 35.30078125 10.9921875 35.30078125 10 37 C6.875 37.875 6.875 37.875 4 38 C3.505 38.99 3.505 38.99 3 40 C2.01 40 1.02 40 0 40 C-0.33 39.34 -0.66 38.68 -1 38 C-1.99 38.495 -1.99 38.495 -3 39 C-3.33 37.68 -3.66 36.36 -4 35 C-4.98613281 35.24363281 -4.98613281 35.24363281 -5.9921875 35.4921875 C-9.71465417 36.1206559 -13.36304975 36.14555711 -17.125 36.125 C-18.19814453 36.13080078 -18.19814453 36.13080078 -19.29296875 36.13671875 C-22.46134984 36.13079654 -24.97310145 36.00896618 -28 35 C-28.875 33.1875 -28.875 33.1875 -29 31 C-27.625 29 -27.625 29 -26 27 C-25.29485154 24.85266073 -25.29485154 24.85266073 -25 23 C-24.34 23 -23.68 23 -23 23 C-22.896875 22.360625 -22.79375 21.72125 -22.6875 21.0625 C-22.460625 20.381875 -22.23375 19.70125 -22 19 C-21.01 18.67 -20.02 18.34 -19 18 C-19 17.01 -19 16.02 -19 15 C-18.34 15 -17.68 15 -17 15 C-16.67 13.02 -16.34 11.04 -16 9 C-15.34 9 -14.68 9 -14 9 C-13.7525 8.05125 -13.505 7.1025 -13.25 6.125 C-12 3 -12 3 -10.25 1.6875 C-6.87723238 0.65693212 -3.53362871 0 0 0 Z " fill="#1A3280" transform="translate(42,23)"/>
<path d="M0 0 C0.33 0 0.66 0 1 0 C1 2.31 1 4.62 1 7 C0.34 7 -0.32 7 -1 7 C-0.90460937 7.75925781 -0.80921875 8.51851562 -0.7109375 9.30078125 C-0.60007812 10.29464844 -0.48921875 11.28851563 -0.375 12.3125 C-0.20097656 13.79169922 -0.20097656 13.79169922 -0.0234375 15.30078125 C0 18 0 18 -2 21 C-1.01 21 -0.02 21 1 21 C1 19.35 1 17.7 1 16 C1.598125 15.7525 2.19625 15.505 2.8125 15.25 C5.28777159 13.83555909 6.33430804 12.27139812 8 10 C8.66 10 9.32 10 10 10 C10.33 9.01 10.66 8.02 11 7 C11.99 7 12.98 7 14 7 C12.79022767 12.4040929 11.38031292 15.18838726 7.375 19.1875 C0.70084879 26.2098678 -5.17191274 33.60811953 -8 43 C-8.9375 45.3125 -8.9375 45.3125 -10 47 C-11.485 47.495 -11.485 47.495 -13 48 C-14.12781711 49.76234328 -14.12781711 49.76234328 -15 51.875 C-16.3268636 54.8715003 -17.6628613 56.72452723 -20 59 C-21.04622875 60.97620986 -22.05439935 62.9737129 -23 65 C-23.99 65 -24.98 65 -26 65 C-25.36110952 59.66739412 -23.65831792 55.07476912 -21.6875 50.125 C-21.39166016 49.36058594 -21.09582031 48.59617188 -20.79101562 47.80859375 C-19.35136907 44.1457349 -17.83220132 40.60329067 -16.00390625 37.1171875 C-13.52185507 32.27107738 -11.91238586 27.17265987 -10.25 22 C-9.93417969 21.03449219 -9.61835938 20.06898437 -9.29296875 19.07421875 C-8.52308029 16.71789347 -7.75889935 14.35988263 -7 12 C-6.01 12 -5.02 12 -4 12 C-3.86722656 11.42765625 -3.73445313 10.8553125 -3.59765625 10.265625 C-3.00619683 8.02349125 -2.26711146 5.91420381 -1.4375 3.75 C-1.16808594 3.04359375 -0.89867188 2.3371875 -0.62109375 1.609375 C-0.41613281 1.07828125 -0.21117188 0.5471875 0 0 Z " fill="#9D3A37" transform="translate(35,61)"/>
<path d="M0 0 C1.32 0 2.64 0 4 0 C4.14257716 8.55462941 0.62079623 12.74809355 -4.62158203 19.24121094 C-7.12949533 22.44117683 -9.42631709 25.79020823 -11.75 29.125 C-15.86642498 34.99587007 -20.03417241 40.82515721 -24.25 46.625 C-30.07664921 54.64620548 -35.74147624 62.77517674 -41.35644531 70.94580078 C-53.65689381 88.76359258 -53.65689381 88.76359258 -61 93 C-61.99 92.67 -62.98 92.34 -64 92 C-63.34 91.01 -62.68 90.02 -62 89 C-61.01 89.33 -60.02 89.66 -59 90 C-58.7525 89.113125 -58.505 88.22625 -58.25 87.3125 C-56.74346596 83.3201848 -54.91875337 79.95937668 -51 78 C-50.27306096 76.02111039 -49.60183749 74.02045442 -49 72 C-48.01 72 -47.02 72 -46 72 C-45.86722656 71.42378906 -45.73445313 70.84757812 -45.59765625 70.25390625 C-43.24769005 61.3916154 -37.98884622 51.45438683 -30.37109375 46.1796875 C-28 45 -28 45 -26 45 C-25.731875 44.236875 -25.46375 43.47375 -25.1875 42.6875 C-24 40 -24 40 -22.375 38.4375 C-20.5391849 36.8497769 -20.5391849 36.8497769 -21 33 C-20.34 32.67 -19.68 32.34 -19 32 C-18.09274566 29.88672575 -18.09274566 29.88672575 -17.375 27.4375 C-16.98441406 26.19806641 -16.98441406 26.19806641 -16.5859375 24.93359375 C-16.39257812 24.29550781 -16.19921875 23.65742187 -16 23 C-15.34 23 -14.68 23 -14 23 C-13.67 21.68 -13.34 20.36 -13 19 C-12.34 19 -11.68 19 -11 19 C-10.67 17.68 -10.34 16.36 -10 15 C-9.34 15 -8.68 15 -8 15 C-7.731875 14.443125 -7.46375 13.88625 -7.1875 13.3125 C-5.89100504 10.78774666 -4.57523677 8.36285516 -3 6 C-2.34 6 -1.68 6 -1 6 C-0.67 4.02 -0.34 2.04 0 0 Z " fill="#30132E" transform="translate(71,36)"/>
<path d="M0 0 C0.66 0 1.32 0 2 0 C2.33 1.65 2.66 3.3 3 5 C10.92 5 18.84 5 27 5 C27 9.29 27 13.58 27 18 C25.02 18.99 25.02 18.99 23 20 C23 18.35 23 16.7 23 15 C23.66 15 24.32 15 25 15 C24.505 13.02 24.505 13.02 24 11 C22.68 13.97 21.36 16.94 20 20 C19.34 19.67 18.68 19.34 18 19 C18.33 18.01 18.66 17.02 19 16 C17.78183594 16.2165625 16.56367188 16.433125 15.30859375 16.65625 C13.68494902 16.93780689 12.06124807 17.21903969 10.4375 17.5 C9.63763672 17.64308594 8.83777344 17.78617188 8.01367188 17.93359375 C3.29554579 18.74241537 -1.19251384 19.28497985 -6 19 C-7.9375 17.625 -7.9375 17.625 -9 16 C-9 15.34 -9 14.68 -9 14 C-9.66 14 -10.32 14 -11 14 C-11 13.34 -11 12.68 -11 12 C-10.21625 11.7525 -9.4325 11.505 -8.625 11.25 C-5.51863188 9.77077709 -5.28591346 9.08619231 -4 6 C-2 2.75 -2 2.75 0 0 Z " fill="#A5726A" transform="translate(11,53)"/>
<path d="M0 0 C0.66 0.33 1.32 0.66 2 1 C1.0409375 1.8971875 1.0409375 1.8971875 0.0625 2.8125 C-2.20310389 4.90810337 -2.20310389 4.90810337 -3 8 C-3.66 8.33 -4.32 8.66 -5 9 C-4.34 9.33 -3.68 9.66 -3 10 C-6.88543865 20.15857703 -6.88543865 20.15857703 -12 23 C-13.53555935 23.32227789 -15.07822376 23.61177228 -16.625 23.875 C-18.94905777 24.2298647 -18.94905777 24.2298647 -21 25 C-23.14665717 27.95234447 -23.14665717 27.95234447 -24 31 C-24.66 31 -25.32 31 -26 31 C-25.67 31.99 -25.34 32.98 -25 34 C-25.66 34 -26.32 34 -27 34 C-27 34.99 -27 35.98 -27 37 C-27.66 37 -28.32 37 -29 37 C-29 37.99 -29 38.98 -29 40 C-29.99 40.66 -30.98 41.32 -32 42 C-32.33 42.99 -32.66 43.98 -33 45 C-33.66 45 -34.32 45 -35 45 C-35.103125 45.763125 -35.20625 46.52625 -35.3125 47.3125 C-36.04364039 50.17059424 -36.76951913 51.15742885 -39 53 C-39.66 52.67 -40.32 52.34 -41 52 C-41.2475 52.53625 -41.495 53.0725 -41.75 53.625 C-43.29696975 56.56424252 -45.13014369 59.25754408 -47 62 C-47.66 61.67 -48.32 61.34 -49 61 C-48.46596558 60.16529175 -48.46596558 60.16529175 -47.92114258 59.3137207 C-33.73415373 37.69552725 -33.73415373 37.69552725 -20.61279297 15.43896484 C-18.83889087 12.75636085 -17.21732232 11.43969738 -14.55078125 9.66796875 C-13.27944336 8.81235352 -13.27944336 8.81235352 -11.98242188 7.93945312 C-11.10134766 7.36130859 -10.22027344 6.78316406 -9.3125 6.1875 C-7.97348633 5.2912793 -7.97348633 5.2912793 -6.60742188 4.37695312 C-4.41088954 2.90868285 -2.20849442 1.45018852 0 0 Z " fill="#2E84C9" transform="translate(52,1)"/>
<path d="M0 0 C0.42279947 3.59379546 0.19291303 4.74862847 -2.0625 7.6875 C-4.77244674 12.32063474 -3.93261132 15.87063776 -3 21 C-3.99 21 -4.98 21 -6 21 C-6 19.02 -6 17.04 -6 15 C-6.99 14.67 -7.98 14.34 -9 14 C-9.66 15.32 -10.32 16.64 -11 18 C-11.66 18 -12.32 18 -13 18 C-13 17.34 -13 16.68 -13 16 C-13.66 16 -14.32 16 -15 16 C-15.66 17.98 -16.32 19.96 -17 22 C-18.32 22 -19.64 22 -21 22 C-21 22.66 -21 23.32 -21 24 C-21.99 24 -22.98 24 -24 24 C-24 24.66 -24 25.32 -24 26 C-23.34 26 -22.68 26 -22 26 C-21.3125 27.8125 -21.3125 27.8125 -21 30 C-22.5342548 32.18025682 -23.64333489 32.88790525 -26.1875 33.6875 C-27.0846875 33.8421875 -27.0846875 33.8421875 -28 34 C-28.495 32.515 -28.495 32.515 -29 31 C-28.03542166 29.64082143 -27.03145371 28.30915279 -26 27 C-25.29485154 24.85266073 -25.29485154 24.85266073 -25 23 C-24.34 23 -23.68 23 -23 23 C-22.896875 22.360625 -22.79375 21.72125 -22.6875 21.0625 C-22.460625 20.381875 -22.23375 19.70125 -22 19 C-21.01 18.67 -20.02 18.34 -19 18 C-19 17.01 -19 16.02 -19 15 C-18.34 15 -17.68 15 -17 15 C-16.67 13.02 -16.34 11.04 -16 9 C-15.34 9 -14.68 9 -14 9 C-13.7525 8.05125 -13.505 7.1025 -13.25 6.125 C-12 3 -12 3 -10.25 1.6875 C-6.87723238 0.65693212 -3.53362871 0 0 0 Z " fill="#19489F" transform="translate(42,23)"/>
<path d="M0 0 C0 4.56029035 -2.99893702 7.45696508 -5.625 10.99804688 C-8.19751864 14.56222996 -9.80792592 17.77630605 -11 22 C-11.9375 24.3125 -11.9375 24.3125 -13 26 C-13.99 26.33 -14.98 26.66 -16 27 C-17.12781711 28.76234328 -17.12781711 28.76234328 -18 30.875 C-19.3268636 33.8715003 -20.6628613 35.72452723 -23 38 C-24.04622875 39.97620986 -25.05439935 41.9737129 -26 44 C-26.99 44 -27.98 44 -29 44 C-28.36110952 38.66739412 -26.65831792 34.07476912 -24.6875 29.125 C-24.24374023 27.97837891 -24.24374023 27.97837891 -23.79101562 26.80859375 C-21.79027526 21.71815713 -19.50778544 16.86056427 -17 12 C-16.34 12 -15.68 12 -15 12 C-15 11.34 -15 10.68 -15 10 C-14.34 10 -13.68 10 -13 10 C-13 10.66 -13 11.32 -13 12 C-12.01 12 -11.02 12 -10 12 C-9.34 10.68 -8.68 9.36 -8 8 C-7.01 8 -6.02 8 -5 8 C-5.33 7.01 -5.66 6.02 -6 5 C-5.01 5 -4.02 5 -3 5 C-2.690625 4.360625 -2.38125 3.72125 -2.0625 3.0625 C-1 1 -1 1 0 0 Z " fill="#EA9238" transform="translate(38,82)"/>
<path d="M0 0 C0.66 0.33 1.32 0.66 2 1 C2 1.99 2 2.98 2 4 C2.969375 3.79375 3.93875 3.5875 4.9375 3.375 C9.52772745 2.68834712 13.58126458 3.78760321 18 5 C17.54367188 5.86044922 17.54367188 5.86044922 17.078125 6.73828125 C16.05825042 8.87780074 15.41396704 10.91894595 14.75 13.1875 C13.9921875 15.30078125 13.9921875 15.30078125 13 17 C9.875 17.875 9.875 17.875 7 18 C6.67 18.66 6.34 19.32 6 20 C5.01 20 4.02 20 3 20 C2.67 18.02 2.34 16.04 2 14 C3.32 14 4.64 14 6 14 C6 13.34 6 12.68 6 12 C4.576875 12.2784375 4.576875 12.2784375 3.125 12.5625 C0 13 0 13 -2 12 C-2 11.01 -2 10.02 -2 9 C-1.01 9 -0.02 9 1 9 C1 7.68 1 6.36 1 5 C-0.32 4.67 -1.64 4.34 -3 4 C-3 3.34 -3 2.68 -3 2 C-2.01 2 -1.02 2 0 2 C0 1.34 0 0.68 0 0 Z " fill="#181A5E" transform="translate(39,43)"/>
<path d="M0 0 C0.33 0.99 0.66 1.98 1 3 C0.67 3.66 0.34 4.32 0 5 C-0.66 5 -1.32 5 -2 5 C-2.103125 5.556875 -2.20625 6.11375 -2.3125 6.6875 C-3 9 -3 9 -4.375 11.125 C-5.88010409 13.78787647 -6.31737616 15.39742965 -6.9375 18.3125 C-8.4702893 23.75513151 -11.41487541 27.83521644 -14.75 32.3125 C-15.25136475 32.99417236 -15.75272949 33.67584473 -16.26928711 34.37817383 C-19.7106419 38.85023006 -23.12919628 42.10868168 -28 45 C-28.99 44.67 -29.98 44.34 -31 44 C-30.34 43.01 -29.68 42.02 -29 41 C-28.01 41.33 -27.02 41.66 -26 42 C-25.7525 41.113125 -25.505 40.22625 -25.25 39.3125 C-23.74346596 35.3201848 -21.91875337 31.95937668 -18 30 C-17.27306096 28.02111039 -16.60183749 26.02045442 -16 24 C-15.01 24 -14.02 24 -13 24 C-12.86722656 23.42378906 -12.73445313 22.84757812 -12.59765625 22.25390625 C-10.32095955 13.66793243 -5.3555795 6.95445397 0 0 Z " fill="#602426" transform="translate(38,84)"/>
<path d="M0 0 C0.33 0 0.66 0 1 0 C2.01414094 10.12732407 -0.8231919 17.74696956 -5 26.75 C-5.58016204 28.043359 -6.15830165 29.33762718 -6.734375 30.6328125 C-8.13314417 33.76601037 -9.55868793 36.88610149 -11 40 C-12.32 40 -13.64 40 -15 40 C-15.33 38.68 -15.66 37.36 -16 36 C-15.34 36 -14.68 36 -14 36 C-14.33 34.68 -14.66 33.36 -15 32 C-14.34 32 -13.68 32 -13 32 C-12.01 28.535 -12.01 28.535 -11 25 C-10.34 25 -9.68 25 -9 25 C-8.7215625 24.13246094 -8.443125 23.26492187 -8.15625 22.37109375 C-7.06633805 19.19341129 -5.82919197 16.14638746 -4.5 13.0625 C-2.67639312 8.74286481 -1.13634512 4.54538046 0 0 Z " fill="#302E66" transform="translate(58,0)"/>
<path d="M0 0 C0.77601562 0.00644531 1.55203125 0.01289062 2.3515625 0.01953125 C4.375 0.1875 4.375 0.1875 6.375 1.1875 C6.375 2.5075 6.375 3.8275 6.375 5.1875 C5.385 5.1875 4.395 5.1875 3.375 5.1875 C3.705 5.8475 4.035 6.5075 4.375 7.1875 C6.69656597 7.59479228 9.0318787 7.93188677 11.375 8.1875 C11.375 8.8475 11.375 9.5075 11.375 10.1875 C10.055 10.1875 8.735 10.1875 7.375 10.1875 C7.705 11.1775 8.035 12.1675 8.375 13.1875 C7.385 13.8475 6.395 14.5075 5.375 15.1875 C5.045 13.8675 4.715 12.5475 4.375 11.1875 C3.75625 11.3525 3.1375 11.5175 2.5 11.6875 C-1.87970729 12.38825317 -6.19928989 12.26484251 -10.625 12.1875 C-10 9.75 -10 9.75 -8.625 7.1875 C-5.5 6.375 -5.5 6.375 -2.625 6.1875 C-2.955 5.1975 -3.285 4.2075 -3.625 3.1875 C-5.275 2.8575 -6.925 2.5275 -8.625 2.1875 C-5.61560247 0.44919503 -3.46557335 -0.063748 0 0 Z " fill="#162A77" transform="translate(33.625,46.8125)"/>
<path d="M0 0 C-0.33 1.65 -0.66 3.3 -1 5 C-4.01982884 5.50682442 -7.04062817 6.00563335 -10.0625 6.5 C-10.91005859 6.64308594 -11.75761719 6.78617187 -12.63085938 6.93359375 C-25.55050781 9.02867188 -25.55050781 9.02867188 -28.9375 6.625 C-30 5 -30 5 -30 3 C-30.66 3 -31.32 3 -32 3 C-31.67 2.34 -31.34 1.68 -31 1 C-30.01 1 -29.02 1 -28 1 C-28 1.66 -28 2.32 -28 3 C-26.2709226 3.02725341 -24.54171824 3.04650987 -22.8125 3.0625 C-21.36810547 3.07990234 -21.36810547 3.07990234 -19.89453125 3.09765625 C-17.00691381 3.08206024 -17.00691381 3.08206024 -14.26171875 2.43359375 C-12 2 -12 2 -10 3 C-10 2.34 -10 1.68 -10 1 C-6.59437148 0.22157062 -3.49234244 -0.09978121 0 0 Z " fill="#251327" transform="translate(32,64)"/>
<path d="M0 0 C1.32 0 2.64 0 4 0 C4.33 0.99 4.66 1.98 5 3 C5.99 3 6.98 3 8 3 C8.33 2.01 8.66 1.02 9 0 C9.66 0 10.32 0 11 0 C11.33 2.31 11.66 4.62 12 7 C11.401875 7.144375 10.80375 7.28875 10.1875 7.4375 C8.43849596 7.8872439 6.71322977 8.42892341 5 9 C4.67 10.155 4.34 11.31 4 12.5 C3.67 13.655 3.34 14.81 3 16 C2.01 16.33 1.02 16.66 0 17 C-0.33 18.65 -0.66 20.3 -1 22 C-2.32 22.33 -3.64 22.66 -5 23 C-4.67 22.46375 -4.34 21.9275 -4 21.375 C-2.77300796 18.4608939 -2.85766714 16.13132292 -3 13 C-1.68 12.34 -0.36 11.68 1 11 C0.67 10.34 0.34 9.68 0 9 C-0.06950541 7.45976004 -0.08452357 5.91665012 -0.0625 4.375 C-0.05347656 3.55773438 -0.04445313 2.74046875 -0.03515625 1.8984375 C-0.02355469 1.27195313 -0.01195312 0.64546875 0 0 Z " fill="#67314B" transform="translate(37,60)"/>
<path d="M0 0 C0 0.66 0 1.32 0 2 C-0.66 2 -1.32 2 -2 2 C-2.0825 2.556875 -2.165 3.11375 -2.25 3.6875 C-3.23609434 6.72795754 -4.88586218 8.62960305 -7 11 C-7.99 11.495 -7.99 11.495 -9 12 C-9.33 12.99 -9.66 13.98 -10 15 C-10.99 15.495 -10.99 15.495 -12 16 C-12.33 16.99 -12.66 17.98 -13 19 C-13.66 19 -14.32 19 -15 19 C-15.268125 19.969375 -15.53625 20.93875 -15.8125 21.9375 C-16.4003125 23.4534375 -16.4003125 23.4534375 -17 25 C-17.99 25.33 -18.98 25.66 -20 26 C-18.80100302 22.9168649 -17.52299523 19.93720508 -16 17 C-15.34 17 -14.68 17 -14 17 C-13.7525 15.741875 -13.505 14.48375 -13.25 13.1875 C-12.51162006 10.16442273 -12.20617994 9.1940517 -9.875 7 C-9.25625 6.67 -8.6375 6.34 -8 6 C-11.63423209 3.67409146 -14.77088331 3.83734167 -19 4 C-19.33 3.34 -19.66 2.68 -20 2 C-17.2294096 1.66453392 -14.45856036 1.33154158 -11.6875 1 C-10.90181641 0.90460937 -10.11613281 0.80921875 -9.30664062 0.7109375 C-8.54931641 0.62070312 -7.79199219 0.53046875 -7.01171875 0.4375 C-6.31522217 0.35371094 -5.61872559 0.26992188 -4.90112305 0.18359375 C-3 0 -3 0 0 0 Z " fill="#B42741" transform="translate(70,40)"/>
<path d="M0 0 C0.66 0 1.32 0 2 0 C1.125 4.75 1.125 4.75 0 7 C7.59 7 15.18 7 23 7 C22.67 7.66 22.34 8.32 22 9 C20.0390625 9.37890625 20.0390625 9.37890625 17.625 9.5625 C14.80522535 9.78753088 12.71336297 10.09554568 10 11 C7.65005089 11.25148088 5.29469902 11.45436512 2.9375 11.625 C1.68839844 11.72039062 0.43929688 11.81578125 -0.84765625 11.9140625 C-4 12 -4 12 -6 11 C-5.39096941 7.90694578 -4.40131197 5.80360238 -2.5625 3.25 C-2.13066406 2.63640625 -1.69882813 2.0228125 -1.25390625 1.390625 C-0.63322266 0.70226563 -0.63322266 0.70226563 0 0 Z " fill="#DB9C51" transform="translate(11,53)"/>
<path d="M0 0 C-0.3125 1.9375 -0.3125 1.9375 -1 4 C-3.4925572 4.8308524 -5.4043821 5.23095101 -7.9765625 5.5 C-8.729375 5.5825 -9.4821875 5.665 -10.2578125 5.75 C-11.84366403 5.91748267 -13.42960278 6.08414147 -15.015625 6.25 C-18.82411369 6.33729219 -18.82411369 6.33729219 -22 8 C-24.33297433 8.04092937 -26.66705225 8.04241723 -29 8 C-29.33 7.01 -29.66 6.02 -30 5 C-26.1271002 4.15670007 -22.25138047 3.32714001 -18.375 2.5 C-17.28058594 2.26152344 -16.18617187 2.02304687 -15.05859375 1.77734375 C-13.99511719 1.55175781 -12.93164062 1.32617188 -11.8359375 1.09375 C-10.86188965 0.88427734 -9.8878418 0.67480469 -8.88427734 0.45898438 C-5.87581547 -0.01976189 -3.04112122 -0.07888771 0 0 Z " fill="#E4A75A" transform="translate(71,36)"/>
<path d="M0 0 C1.15957207 3.47871621 0.77456651 4.34219645 -0.4375 7.6875 C-0.72496094 8.49574219 -1.01242188 9.30398437 -1.30859375 10.13671875 C-1.53675781 10.75160156 -1.76492187 11.36648437 -2 12 C-0.68 11.34 0.64 10.68 2 10 C1.62769747 14.21942867 0.06804068 16.32715026 -2.72265625 19.44140625 C-4.60702599 21.74068309 -5.78083589 24.30500566 -7 27 C-7.99 27 -8.98 27 -10 27 C-9.360541 21.56021867 -7.57252224 16.86007112 -5.5625 11.8125 C-5.24990234 11.00619141 -4.93730469 10.19988281 -4.61523438 9.36914062 C-3.27453458 5.9592847 -2.04519188 3.06778782 0 0 Z " fill="#CC7D29" transform="translate(19,99)"/>
<path d="M0 0 C0.33 0 0.66 0 1 0 C1 2.31 1 4.62 1 7 C0.34 7 -0.32 7 -1 7 C-0.938125 7.70125 -0.87625 8.4025 -0.8125 9.125 C-1.04504689 12.69071904 -2.30686988 14.87422131 -4 18 C-4.68753301 19.65816784 -5.35561283 21.32459336 -6 23 C-6.66666667 24.66666667 -7.33333333 26.33333333 -8 28 C-8.99 27.67 -9.98 27.34 -11 27 C-10.34728444 23.48294042 -9.48606976 20.10674923 -8.4375 16.6875 C-8.16808594 15.80449219 -7.89867187 14.92148438 -7.62109375 14.01171875 C-7.31365234 13.01591797 -7.31365234 13.01591797 -7 12 C-6.01 12 -5.02 12 -4 12 C-3.86722656 11.42765625 -3.73445313 10.8553125 -3.59765625 10.265625 C-3.00619683 8.02349125 -2.26711146 5.91420381 -1.4375 3.75 C-1.16808594 3.04359375 -0.89867187 2.3371875 -0.62109375 1.609375 C-0.41613281 1.07828125 -0.21117187 0.5471875 0 0 Z " fill="#D78E40" transform="translate(35,61)"/>
<path d="M0 0 C0.66 0.33 1.32 0.66 2 1 C1.360625 1.598125 0.72125 2.19625 0.0625 2.8125 C-2.20310389 4.90810337 -2.20310389 4.90810337 -3 8 C-5.84937793 9.83174295 -8.68437443 10.44739574 -12 11 C-12 11.66 -12 12.32 -12 13 C-12.5775 13.20625 -13.155 13.4125 -13.75 13.625 C-16.81410544 15.49750888 -18.15539968 17.96958519 -20 21 C-20.66 20.67 -21.32 20.34 -22 20 C-19.63685869 12.48091401 -13.49223844 8.75993871 -7.1875 4.6875 C-6.49462891 4.23310547 -5.80175781 3.77871094 -5.08789062 3.31054688 C-3.3954176 2.20168524 -1.69819042 1.10008562 0 0 Z " fill="#45ACE0" transform="translate(52,1)"/>
<path d="M0 0 C-3.13498292 1.85776765 -5.37471432 2.20140476 -9 2 C-9 2.66 -9 3.32 -9 4 C-16.47743661 4.84349132 -22.80298461 5.39900513 -30 3 C-29.34 2.01 -28.68 1.02 -28 0 C-26.6078125 0.2784375 -26.6078125 0.2784375 -25.1875 0.5625 C-16.51472012 1.82173798 -8.50598837 -1.44441312 0 0 Z " fill="#8F4C36" transform="translate(31,63)"/>
<path d="M0 0 C1.21429688 -0.03867187 1.21429688 -0.03867187 2.453125 -0.078125 C5.2674599 0.32392284 6.63295002 1.4048647 8.75 3.25 C7.625 4.75 7.625 4.75 5.75 6.25 C2.36442392 6.62617512 0.04094741 6.34904593 -3.1875 5.25 C-6.68081234 4.10932658 -9.59848893 4.10393956 -13.25 4.25 C-13.25 3.26 -13.25 2.27 -13.25 1.25 C-8.82966891 0.59513613 -4.46874275 0.13260364 0 0 Z " fill="#6B384C" transform="translate(54.25,42.75)"/>
<path d="M0 0 C0.66 0.33 1.32 0.66 2 1 C2 1.99 2 2.98 2 4 C2.969375 3.79375 3.93875 3.5875 4.9375 3.375 C9.52772745 2.68834712 13.58126458 3.78760321 18 5 C17.34 6.32 16.68 7.64 16 9 C13.03 8.67 10.06 8.34 7 8 C7 7.34 7 6.68 7 6 C6.01 6.495 6.01 6.495 5 7 C5 7.66 5 8.32 5 9 C4.34 9 3.68 9 3 9 C3 8.34 3 7.68 3 7 C2.34 7 1.68 7 1 7 C1 6.34 1 5.68 1 5 C-0.32 4.67 -1.64 4.34 -3 4 C-3 3.34 -3 2.68 -3 2 C-2.01 2 -1.02 2 0 2 C0 1.34 0 0.68 0 0 Z " fill="#382855" transform="translate(39,43)"/>
<path d="M0 0 C0.33 0 0.66 0 1 0 C2.66134075 11.56016269 -2.1895891 20.82265459 -7 31 C-7.33 31 -7.66 31 -8 31 C-8 28.69 -8 26.38 -8 24 C-7.34 24 -6.68 24 -6 24 C-6.0825 23.05125 -6.165 22.1025 -6.25 21.125 C-6.26756216 16.7871475 -4.7199556 13.37979065 -3.0234375 9.4453125 C-1.72576778 6.3447734 -0.84749028 3.24871272 0 0 Z " fill="#182256" transform="translate(58,0)"/>
<path d="M0 0 C1.32 0 2.64 0 4 0 C2.27223777 8.9267715 -0.77014516 16.96327581 -5 25 C-5.66 25 -6.32 25 -7 25 C-7.144375 25.78375 -7.28875 26.5675 -7.4375 27.375 C-8 30 -8 30 -9 32 C-9.66 32 -10.32 32 -11 32 C-6.95686034 21.85539505 -2.6398006 11.88548581 2 2 C1.34 1.34 0.68 0.68 0 0 Z " fill="#807192" transform="translate(54,0)"/>
<path d="M0 0 C0.42279947 3.59379546 0.19291303 4.74862847 -2.0625 7.6875 C-4.77244674 12.32063474 -3.93261132 15.87063776 -3 21 C-3.99 21 -4.98 21 -6 21 C-6 19.02 -6 17.04 -6 15 C-6.99 14.67 -7.98 14.34 -9 14 C-9.66 14.99 -10.32 15.98 -11 17 C-10.53286317 12.79576853 -10.08694237 10.83998698 -7 8 C-6.67 7.175 -6.34 6.35 -6 5.5 C-4.75672749 2.39181874 -3.57103642 0 0 0 Z " fill="#605881" transform="translate(42,23)"/>
<path d="M0 0 C0.66 0.33 1.32 0.66 2 1 C-8.6439523 15.62740326 -8.6439523 15.62740326 -15 19 C-15.99 18.67 -16.98 18.34 -18 18 C-17.01 16.515 -17.01 16.515 -16 15 C-15.01 15.33 -14.02 15.66 -13 16 C-12.5978125 14.6078125 -12.5978125 14.6078125 -12.1875 13.1875 C-11.0880449 10.23633103 -10.51205515 8.80867971 -8 7 C-7.01 7 -6.02 7 -5 7 C-4.731875 6.030625 -4.46375 5.06125 -4.1875 4.0625 C-3.5996875 2.5465625 -3.5996875 2.5465625 -3 1 C-2.01 0.67 -1.02 0.34 0 0 Z " fill="#50241F" transform="translate(25,110)"/>
<path d="M0 0 C0.99 0.33 1.98 0.66 3 1 C1.40999138 4.63137451 -0.19936006 8.25384858 -1.8125 11.875 C-2.26431641 12.90753906 -2.71613281 13.94007812 -3.18164062 15.00390625 C-3.62314453 15.99003906 -4.06464844 16.97617187 -4.51953125 17.9921875 C-4.92276611 18.90339355 -5.32600098 19.81459961 -5.74145508 20.75341797 C-7 23 -7 23 -10 25 C-10 23.35 -10 21.7 -10 20 C-9.34 20 -8.68 20 -8 20 C-7.80664062 19.39671875 -7.61328125 18.7934375 -7.4140625 18.171875 C-7.15367188 17.37265625 -6.89328125 16.5734375 -6.625 15.75 C-6.24214844 14.56664062 -6.24214844 14.56664062 -5.8515625 13.359375 C-5.04826333 11.13372042 -4.10288338 9.09068328 -3 7 C-3.66 6.01 -4.32 5.02 -5 4 C-2.6875 1.9375 -2.6875 1.9375 0 0 Z " fill="#E0C9B2" transform="translate(54,1)"/>
<path d="M0 0 C0.66 0 1.32 0 2 0 C2.33 1.65 2.66 3.3 3 5 C2.38125 5.185625 1.7625 5.37125 1.125 5.5625 C-2.05602866 7.71437233 -2.19451947 10.37533763 -3 14 C-3.66 14 -4.32 14 -5 14 C-5.2475 14.969375 -5.495 15.93875 -5.75 16.9375 C-6.1625 17.948125 -6.575 18.95875 -7 20 C-9.125 20.875 -9.125 20.875 -11 21 C-11 20.01 -11 19.02 -11 18 C-10.34 17.67 -9.68 17.34 -9 17 C-8.09274566 14.88672575 -8.09274566 14.88672575 -7.375 12.4375 C-7.11460938 11.61121094 -6.85421875 10.78492188 -6.5859375 9.93359375 C-6.39257812 9.29550781 -6.19921875 8.65742187 -6 8 C-5.34 8 -4.68 8 -4 8 C-3.67 6.68 -3.34 5.36 -3 4 C-2.34 4 -1.68 4 -1 4 C-0.67 2.68 -0.34 1.36 0 0 Z " fill="#4C163B" transform="translate(61,51)"/>
<path d="M0 0 C1.32 0 2.64 0 4 0 C4 1.32 4 2.64 4 4 C2.68 4 1.36 4 0 4 C0 4.66 0 5.32 0 6 C-0.99 6 -1.98 6 -3 6 C-3 6.66 -3 7.32 -3 8 C-2.34 8 -1.68 8 -1 8 C-0.3125 9.8125 -0.3125 9.8125 0 12 C-1.5342548 14.18025682 -2.64333489 14.88790525 -5.1875 15.6875 C-5.785625 15.790625 -6.38375 15.89375 -7 16 C-7.33 15.01 -7.66 14.02 -8 13 C-7.03542166 11.64082143 -6.03145371 10.30915279 -5 9 C-4.29485154 6.85266073 -4.29485154 6.85266073 -4 5 C-3.34 5 -2.68 5 -2 5 C-1.855625 4.360625 -1.71125 3.72125 -1.5625 3.0625 C-1 1 -1 1 0 0 Z " fill="#2A4B96" transform="translate(21,41)"/>
<path d="M0 0 C-3.89920173 10.19456095 -3.89920173 10.19456095 -9 13 C-11.3125 12.75 -11.3125 12.75 -13 12 C-12.34 12 -11.68 12 -11 12 C-11.33 10.68 -11.66 9.36 -12 8 C-11.01 7.67 -10.02 7.34 -9 7 C-8.525625 5.845 -8.05125 4.69 -7.5625 3.5 C-6 0 -6 0 -3.9375 -1 C-2 -1 -2 -1 0 0 Z " fill="#215DB3" transform="translate(49,11)"/>
<path d="M0 0 C0.99 0.33 1.98 0.66 3 1 C2.01 3.31 1.02 5.62 0 8 C-0.66 8 -1.32 8 -2 8 C-2 8.99 -2 9.98 -2 11 C-3.98 11.66 -5.96 12.32 -8 13 C-8.99 12.01 -9.98 11.02 -11 10 C-10.01 9.67 -9.02 9.34 -8 9 C-7.360625 8.01 -6.72125 7.02 -6.0625 6 C-4 3 -4 3 -1.75 2.125 C-1.1725 2.08375 -0.595 2.0425 0 2 C0 1.34 0 0.68 0 0 Z " fill="#2A83D1" transform="translate(40,12)"/>
<path d="M0 0 C0.103125 0.639375 0.20625 1.27875 0.3125 1.9375 C0.539375 2.618125 0.76625 3.29875 1 4 C1.99 4.33 2.98 4.66 4 5 C4 5.66 4 6.32 4 7 C3.360625 7.28875 2.72125 7.5775 2.0625 7.875 C-0.15206079 8.82823451 -0.15206079 8.82823451 -1 11 C-1.99 11 -2.98 11 -4 11 C-4 10.34 -4 9.68 -4 9 C-4.66 9 -5.32 9 -6 9 C-6.33 9.66 -6.66 10.32 -7 11 C-6.67 9.02 -6.34 7.04 -6 5 C-4.02 5.495 -4.02 5.495 -2 6 C-1.855625 5.195625 -1.71125 4.39125 -1.5625 3.5625 C-1 1 -1 1 0 0 Z " fill="#C35533" transform="translate(29,83)"/>
<path d="M0 0 C-0.49831724 3.68754757 -1.10067643 5.60490662 -4 8 C-4.99 7.67 -5.98 7.34 -7 7 C-7.33 5.02 -7.66 3.04 -8 1 C-4.93251126 -0.86240388 -3.40254489 -1.2151946 0 0 Z " fill="#321C57" transform="translate(54,53)"/>
<path d="M0 0 C1.32 0 2.64 0 4 0 C4 0.66 4 1.32 4 2 C5.7290774 2.02725341 7.45828176 2.04650987 9.1875 2.0625 C10.63189453 2.07990234 10.63189453 2.07990234 12.10546875 2.09765625 C14.85576513 2.00486622 17.32479591 1.62111685 20 1 C20 1.99 20 2.98 20 4 C19.34773438 4.06058594 18.69546875 4.12117188 18.0234375 4.18359375 C13.31283783 4.63519991 8.65798362 5.14195039 4 6 C3.34 4.68 2.68 3.36 2 2 C1.34 2 0.68 2 0 2 C0 1.34 0 0.68 0 0 Z " fill="#41222E" transform="translate(0,65)"/>
<path d="M0 0 C0.99 0 1.98 0 3 0 C1.25 6.75 1.25 6.75 -1 9 C-1.99 9 -2.98 9 -4 9 C-4.66 10.32 -5.32 11.64 -6 13 C-6 10 -6 10 -4 7 C-4 6.01 -4 5.02 -4 4 C-3.01 3.67 -2.02 3.34 -1 3 C-0.67 2.01 -0.34 1.02 0 0 Z " fill="#E3633C" transform="translate(46,68)"/>
<path d="M0 0 C0.66 0 1.32 0 2 0 C1.125 4.75 1.125 4.75 0 7 C1.918125 6.938125 1.918125 6.938125 3.875 6.875 C6.0546875 6.8046875 6.0546875 6.8046875 8 7 C8.66 7.66 9.32 8.32 10 9 C8.51886719 8.96519531 8.51886719 8.96519531 7.0078125 8.9296875 C5.08582031 8.90261719 5.08582031 8.90261719 3.125 8.875 C1.84882813 8.85179687 0.57265625 8.82859375 -0.7421875 8.8046875 C-4.08593338 8.64358476 -4.08593338 8.64358476 -6 11 C-5.39096941 7.90694578 -4.40131197 5.80360238 -2.5625 3.25 C-2.13066406 2.63640625 -1.69882813 2.0228125 -1.25390625 1.390625 C-0.63322266 0.70226563 -0.63322266 0.70226563 0 0 Z " fill="#BD9073" transform="translate(11,53)"/>
<path d="M0 0 C-0.3125 1.9375 -0.3125 1.9375 -1 4 C-3.75078884 4.91692961 -5.35948913 5.10886083 -8.1875 5.0625 C-10.0746875 5.0315625 -10.0746875 5.0315625 -12 5 C-11.67 3.68 -11.34 2.36 -11 1 C-7.26562152 0.12132271 -3.83225427 -0.08912219 0 0 Z " fill="#F0AF46" transform="translate(71,36)"/>
<path d="M0 0 C1.32 0 2.64 0 4 0 C3.34 1.98 2.68 3.96 2 6 C1.34 6 0.68 6 0 6 C0 6.66 0 7.32 0 8 C-0.66 8 -1.32 8 -2 8 C-2 9.32 -2 10.64 -2 12 C-2.66 12 -3.32 12 -4 12 C-4 12.66 -4 13.32 -4 14 C-5.32 14.33 -6.64 14.66 -8 15 C-6.50079488 11.88626628 -4.91847864 8.87771795 -3 6 C-2.34 6 -1.68 6 -1 6 C-0.67 4.02 -0.34 2.04 0 0 Z " fill="#7E2A41" transform="translate(71,36)"/>
<path d="M0 0 C0.99 0.33 1.98 0.66 3 1 C3.48979592 8.34693878 3.48979592 8.34693878 1.125 11.5 C-1 13 -1 13 -3 13 C-2.68817931 11.58318366 -2.37551263 10.16655349 -2.0625 8.75 C-1.88847656 7.96109375 -1.71445312 7.1721875 -1.53515625 6.359375 C-1.052444 4.23121297 -0.53836822 2.11467158 0 0 Z " fill="#F7CB37" transform="translate(20,98)"/>
<path d="M0 0 C0.66 0.33 1.32 0.66 2 1 C1.67 3.64 1.34 6.28 1 9 C0.34 9 -0.32 9 -1 9 C-1 8.34 -1 7.68 -1 7 C-1.66 7 -2.32 7 -3 7 C-3.66 8.32 -4.32 9.64 -5 11 C-5.99 10.34 -6.98 9.68 -8 9 C-7.67 8.01 -7.34 7.02 -7 6 C-6.34 6 -5.68 6 -5 6 C-5 5.34 -5 4.68 -5 4 C-4.34 4 -3.68 4 -3 4 C-3 4.66 -3 5.32 -3 6 C-2.34 6 -1.68 6 -1 6 C-0.67 4.02 -0.34 2.04 0 0 Z " fill="#123F9A" transform="translate(30,32)"/>
<path d="M0 0 C0.33 0.99 0.66 1.98 1 3 C0.67 3.66 0.34 4.32 0 5 C-0.66 5 -1.32 5 -2 5 C-2.12375 5.5775 -2.2475 6.155 -2.375 6.75 C-3.00648824 9.02335767 -3.88858191 10.9253529 -5 13 C-5.99 13 -6.98 13 -8 13 C-8 13.99 -8 14.98 -8 16 C-8.66 16 -9.32 16 -10 16 C-8.55797524 11.84848662 -6.4989562 8.70021555 -3.875 5.1875 C-3.15054688 4.21167969 -2.42609375 3.23585938 -1.6796875 2.23046875 C-0.84824219 1.12638672 -0.84824219 1.12638672 0 0 Z " fill="#AF342E" transform="translate(38,84)"/>
<path d="M0 0 C0.99 0.33 1.98 0.66 3 1 C1.45158425 4.34708051 -0.49105864 7.24667512 -2.625 10.25 C-3.25664063 11.14203125 -3.88828125 12.0340625 -4.5390625 12.953125 C-5.02117188 13.62859375 -5.50328125 14.3040625 -6 15 C-7 12 -7 12 -5.75 9 C-4.28334927 6.48574161 -3.05712082 4.96361533 -1 3 C-0.67 2.01 -0.34 1.02 0 0 Z " fill="#37142E" transform="translate(51,70)"/>
<path d="M0 0 C-0.33 1.65 -0.66 3.3 -1 5 C-3.64 4.67 -6.28 4.34 -9 4 C-9.33 3.01 -9.66 2.02 -10 1 C-6.59437148 0.22157062 -3.49234244 -0.09978121 0 0 Z " fill="#4B212E" transform="translate(32,64)"/>
<path d="M0 0 C0 0.66 0 1.32 0 2 C-1.96147874 3.38938077 -3.96166576 4.7260411 -6 6 C-5.67 4.68 -5.34 3.36 -5 2 C-5.91523437 2.16757812 -6.83046875 2.33515625 -7.7734375 2.5078125 C-9.55621094 2.81332031 -9.55621094 2.81332031 -11.375 3.125 C-13.15003906 3.43824219 -13.15003906 3.43824219 -14.9609375 3.7578125 C-15.96382812 3.83773437 -16.96671875 3.91765625 -18 4 C-18.66 3.34 -19.32 2.68 -20 2 C-17.2294096 1.66453392 -14.45856036 1.33154158 -11.6875 1 C-10.90181641 0.90460937 -10.11613281 0.80921875 -9.30664062 0.7109375 C-8.54931641 0.62070312 -7.79199219 0.53046875 -7.01171875 0.4375 C-6.31522217 0.35371094 -5.61872559 0.26992188 -4.90112305 0.18359375 C-3 0 -3 0 0 0 Z " fill="#D1743D" transform="translate(70,40)"/>
<path d="M0 0 C0.99 0.33 1.98 0.66 3 1 C2.34 1 1.68 1 1 1 C-0.01111093 4.04913228 -0.01111093 4.04913228 1 7 C0.34 7 -0.32 7 -1 7 C-1.33 8.98 -1.66 10.96 -2 13 C-2.66 13 -3.32 13 -4 13 C-4 12.34 -4 11.68 -4 11 C-4.66 10.67 -5.32 10.34 -6 10 C-5.67 9.01 -5.34 8.02 -5 7 C-4.34 7 -3.68 7 -3 7 C-2.690625 6.030625 -2.38125 5.06125 -2.0625 4.0625 C-1 1 -1 1 0 0 Z " fill="#1859B5" transform="translate(31,25)"/>
<path d="M0 0 C0.66 0.33 1.32 0.66 2 1 C1.67 1.66 1.34 2.32 1 3 C1.66 3.33 2.32 3.66 3 4 C1.37660195 5.70884005 -0.29319053 7.37446717 -2 9 C-2.66 9 -3.32 9 -4 9 C-4.33 7.02 -4.66 5.04 -5 3 C-2.625 1.4375 -2.625 1.4375 0 0 Z " fill="#C33F35" transform="translate(41,74)"/>
<path d="M0 0 C0.66 0.33 1.32 0.66 2 1 C0.02 5.29 -1.96 9.58 -4 14 C-4.66 14 -5.32 14 -6 14 C-6.66 15.32 -7.32 16.64 -8 18 C-7.67 16.35 -7.34 14.7 -7 13 C-6.34 13 -5.68 13 -5 13 C-4.7834375 11.88625 -4.7834375 11.88625 -4.5625 10.75 C-4.09812508 8.47972261 -3.58136431 6.24240521 -3 4 C-3.66 3.67 -4.32 3.34 -5 3 C-2.625 1.4375 -2.625 1.4375 0 0 Z " fill="#8884A7" transform="translate(50,7)"/>
<path d="M0 0 C0.5775 0.37125 1.155 0.7425 1.75 1.125 C1.75 2.115 1.75 3.105 1.75 4.125 C-5.67857143 5.41071429 -5.67857143 5.41071429 -9.25 4.125 C-4.06343284 -1.58022388 -4.06343284 -1.58022388 0 0 Z " fill="#0D1F6D" transform="translate(30.25,49.875)"/>
<path d="M0 0 C0.66 0 1.32 0 2 0 C2 0.66 2 1.32 2 2 C2.90492187 1.96519531 2.90492187 1.96519531 3.828125 1.9296875 C5.02695312 1.90261719 5.02695312 1.90261719 6.25 1.875 C7.03890625 1.85179687 7.8278125 1.82859375 8.640625 1.8046875 C11.20731941 2.0171622 12.7916067 2.71345895 15 4 C2.45945946 5.72972973 2.45945946 5.72972973 -1 4 C-0.67 2.68 -0.34 1.36 0 0 Z " fill="#745267" transform="translate(12,56)"/>
<path d="M0 0 C0.99 0.495 0.99 0.495 2 1 C2 1.66 2 2.32 2 3 C6.455 2.505 6.455 2.505 11 2 C11 2.66 11 3.32 11 4 C9.68 4 8.36 4 7 4 C7.33 4.99 7.66 5.98 8 7 C7.01 7.66 6.02 8.32 5 9 C4.67 7.68 4.34 6.36 4 5 C2.68 4.67 1.36 4.34 0 4 C0 2.68 0 1.36 0 0 Z " fill="#394384" transform="translate(34,53)"/>
<path d="M0 0 C1.58246707 -0.08153933 3.16616273 -0.13943557 4.75 -0.1875 C6.07257812 -0.23970703 6.07257812 -0.23970703 7.421875 -0.29296875 C10.44671583 0.05076316 11.75583602 1.00227459 14 3 C12.625 4.5 12.625 4.5 11 6 C10.34 6 9.68 6 9 6 C8.67 4.35 8.34 2.7 8 1 C7.01 1 6.02 1 5 1 C5 1.66 5 2.32 5 3 C3.68 3 2.36 3 1 3 C0.67 2.01 0.34 1.02 0 0 Z " fill="#8A3842" transform="translate(49,43)"/>
<path d="M0 0 C1.65 0.33 3.3 0.66 5 1 C5 1.99 5 2.98 5 4 C1.91190305 5.76462683 0.76687864 6 -3 6 C-3 4.35 -3 2.7 -3 1 C-2.01 1 -1.02 1 0 1 C0 0.67 0 0.34 0 0 Z " fill="#0C2374" transform="translate(28,42)"/>
<path d="M0 0 C-1.32 2.97 -2.64 5.94 -4 9 C-4.99 8.67 -5.98 8.34 -7 8 C-6.67 5.36 -6.34 2.72 -6 0 C-2.25 -1.125 -2.25 -1.125 0 0 Z " fill="#4C6FB1" transform="translate(49,11)"/>
<path d="M0 0 C0 0.99 0 1.98 0 3 C-3.3 3 -6.6 3 -10 3 C-9.67 2.01 -9.34 1.02 -9 0 C-3.375 -1.125 -3.375 -1.125 0 0 Z " fill="#474073" transform="translate(33,56)"/>
<path d="M0 0 C0 0.99 0 1.98 0 3 C-6.625 4.25 -6.625 4.25 -10 2 C-6.5980513 -0.09350689 -3.94727588 -0.17942163 0 0 Z " fill="#22327C" transform="translate(24,55)"/>
<path d="M0 0 C2.64 0.33 5.28 0.66 8 1 C7.34 2.32 6.68 3.64 6 5 C3.69 4.67 1.38 4.34 -1 4 C-0.67 2.68 -0.34 1.36 0 0 Z " fill="#2E1D56" transform="translate(49,47)"/>
<path d="M0 0 C0.33 0 0.66 0 1 0 C1.05422947 1.4370809 1.09289723 2.87475462 1.125 4.3125 C1.14820313 5.11300781 1.17140625 5.91351563 1.1953125 6.73828125 C1 9 1 9 -1 12 C-1.68177416 13.32567199 -2.35191436 14.65753688 -3 16 C-3.66 16 -4.32 16 -5 16 C-4.80664062 15.43152344 -4.61328125 14.86304688 -4.4140625 14.27734375 C-2.81863577 9.54635062 -1.33099414 4.81205575 0 0 Z " fill="#283F82" transform="translate(58,0)"/>
<path d="M0 0 C0.66 0.33 1.32 0.66 2 1 C-0.31 3.97 -2.62 6.94 -5 10 C-5.66 9.67 -6.32 9.34 -7 9 C-7 8.34 -7 7.68 -7 7 C-6.34 7 -5.68 7 -5 7 C-4.731875 6.030625 -4.46375 5.06125 -4.1875 4.0625 C-3.5996875 2.5465625 -3.5996875 2.5465625 -3 1 C-2.01 0.67 -1.02 0.34 0 0 Z " fill="#37181E" transform="translate(25,110)"/>
<path d="M0 0 C0.66 0.99 1.32 1.98 2 3 C-1.33333333 6.33333333 -4.66666667 9.66666667 -8 13 C-8.66 12.67 -9.32 12.34 -10 12 C-9.36191406 11.30132812 -8.72382812 10.60265625 -8.06640625 9.8828125 C-7.24011719 8.97273438 -6.41382813 8.06265625 -5.5625 7.125 C-4.73878906 6.22007813 -3.91507813 5.31515625 -3.06640625 4.3828125 C-0.99092058 2.18862073 -0.99092058 2.18862073 0 0 Z " fill="#852132" transform="translate(49,71)"/>
<path d="M0 0 C0.33 0.99 0.66 1.98 1 3 C-0.14453125 5.15625 -0.14453125 5.15625 -1.8125 7.5 C-2.35519531 8.2734375 -2.89789063 9.046875 -3.45703125 9.84375 C-3.96621094 10.5553125 -4.47539063 11.266875 -5 12 C-5.99 13.485 -5.99 13.485 -7 15 C-7.66 14.67 -8.32 14.34 -9 14 C-6.03 9.38 -3.06 4.76 0 0 Z " fill="#3B538E" transform="translate(12,48)"/>
<path d="M0 0 C1.98 0 3.96 0 6 0 C6 0.99 6 1.98 6 3 C6.99 2.34 7.98 1.68 9 1 C8.25 2.9375 8.25 2.9375 7 5 C4.875 5.75 4.875 5.75 3 6 C2.67 5.01 2.34 4.02 2 3 C1.01 2.67 0.02 2.34 -1 2 C-0.67 1.34 -0.34 0.68 0 0 Z " fill="#A9313F" transform="translate(59,42)"/>
<path d="M0 0 C0.99 0 1.98 0 3 0 C3.33 0.99 3.66 1.98 4 3 C4.99 3 5.98 3 7 3 C7 2.34 7 1.68 7 1 C7.66 1 8.32 1 9 1 C8.34 2.32 7.68 3.64 7 5 C4.69 5 2.38 5 0 5 C0 3.35 0 1.7 0 0 Z " fill="#4B2D5D" transform="translate(38,60)"/>
<path d="M0 0 C0.99 0.33 1.98 0.66 3 1 C3 1.66 3 2.32 3 3 C2.01 3 1.02 3 0 3 C0.83333333 5.16666667 0.83333333 5.16666667 3 6 C1.0625 6.5625 1.0625 6.5625 -1 7 C-1.33 6.67 -1.66 6.34 -2 6 C-2.33 6.99 -2.66 7.98 -3 9 C-3.33 9 -3.66 9 -4 9 C-4 7.02 -4 5.04 -4 3 C-2.68 2.67 -1.36 2.34 0 2 C0 1.34 0 0.68 0 0 Z " fill="#20337C" transform="translate(37,49)"/>
<path d="M0 0 C6.75 -0.125 6.75 -0.125 9 1 C9 1.66 9 2.32 9 3 C7.02 3.66 5.04 4.32 3 5 C1.5 3.625 1.5 3.625 0 2 C0 1.34 0 0.68 0 0 Z " fill="#0F1C62" transform="translate(31,47)"/>
<path d="M0 0 C0.66 0.33 1.32 0.66 2 1 C2.99 0.67 3.98 0.34 5 0 C4.37240135 2.92879371 3.41377341 5.36095629 2 8 C1.01 7.67 0.02 7.34 -1 7 C-1.04254356 5.00045254 -1.04080783 2.99958364 -1 1 C-0.67 0.67 -0.34 0.34 0 0 Z " fill="#DF7929" transform="translate(23,100)"/>
<path d="M0 0 C1.65 1.32 3.3 2.64 5 4 C4.01 4.33 3.02 4.66 2 5 C1.67 6.65 1.34 8.3 1 10 C-0.32 10.33 -1.64 10.66 -3 11 C-2.67 10.46375 -2.34 9.9275 -2 9.375 C-0.77537082 6.46650569 -0.93051908 4.12664129 -1 1 C-0.67 0.67 -0.34 0.34 0 0 Z " fill="#7A2D3C" transform="translate(35,72)"/>
<path d="M0 0 C0.66 0 1.32 0 2 0 C2.33 1.65 2.66 3.3 3 5 C-1.75 8 -1.75 8 -4 8 C-3.67 6.68 -3.34 5.36 -3 4 C-2.34 4 -1.68 4 -1 4 C-0.67 2.68 -0.34 1.36 0 0 Z " fill="#63173B" transform="translate(61,51)"/>
<path d="M0 0 C0.20086443 3.71599191 0.1519437 4.77208445 -2 8 C-2.66 8 -3.32 8 -4 8 C-4.33 8.99 -4.66 9.98 -5 11 C-6.48262169 8.03475663 -5.83538959 6.14877613 -5 3 C-1.8 0 -1.8 0 0 0 Z " fill="#7D2345" transform="translate(58,49)"/>
<path d="M0 0 C0.66 0.33 1.32 0.66 2 1 C2 1.66 2 2.32 2 3 C1.34 3 0.68 3 0 3 C-0.103125 3.763125 -0.20625 4.52625 -0.3125 5.3125 C-1.04364039 8.17059424 -1.76951913 9.15742885 -4 11 C-5 8 -5 8 -4 5 C-3.34 5 -2.68 5 -2 5 C-1.34 3.35 -0.68 1.7 0 0 Z " fill="#5B91C4" transform="translate(17,43)"/>
<path d="M0 0 C1.32 0 2.64 0 4 0 C4 1.32 4 2.64 4 4 C2.68 4 1.36 4 0 4 C0 4.66 0 5.32 0 6 C-0.99 6 -1.98 6 -3 6 C-3.33 6.66 -3.66 7.32 -4 8 C-4 7.01 -4 6.02 -4 5 C-3.34 5 -2.68 5 -2 5 C-1.7834375 4.0409375 -1.7834375 4.0409375 -1.5625 3.0625 C-1 1 -1 1 0 0 Z " fill="#205AAE" transform="translate(21,41)"/>
<path d="M0 0 C0.66 0.99 1.32 1.98 2 3 C0 6 0 6 -2.125 6.6875 C-2.74375 6.790625 -3.3625 6.89375 -4 7 C-3.67 7.66 -3.34 8.32 -3 9 C-4.32 8.34 -5.64 7.68 -7 7 C-6.67 5.68 -6.34 4.36 -6 3 C-5.34 3 -4.68 3 -4 3 C-4 3.66 -4 4.32 -4 5 C-1.48916886 3.74458443 -1.12874554 2.49936512 0 0 Z " fill="#162F80" transform="translate(33,36)"/>
<path d="M0 0 C0.3125 2.25 0.3125 2.25 0 5 C-2.5 7.3125 -2.5 7.3125 -5 9 C-5.66 8.67 -6.32 8.34 -7 8 C-4.18918919 0 -4.18918919 0 0 0 Z " fill="#45528C" transform="translate(42,23)"/>
<path d="M0 0 C-2.66666667 2.66666667 -5.33333333 5.33333333 -8 8 C-9 5 -9 5 -7.8125 2.375 C-6 0 -6 0 -3.9375 -0.875 C-2 -1 -2 -1 0 0 Z " fill="#3EB6E4" transform="translate(39,14)"/>
<path d="M0 0 C0.66 0.33 1.32 0.66 2 1 C1.360625 1.598125 0.72125 2.19625 0.0625 2.8125 C-2.20310389 4.90810337 -2.20310389 4.90810337 -3 8 C-6.0625 9.1875 -6.0625 9.1875 -9 10 C-7.84906278 6.54718834 -6.6794007 5.61917837 -3.9375 3.3125 C-2.83728516 2.37857422 -2.83728516 2.37857422 -1.71484375 1.42578125 C-1.14894531 0.95527344 -0.58304688 0.48476563 0 0 Z " fill="#82B8DA" transform="translate(52,1)"/>
<path d="M0 0 C1.65 0.33 3.3 0.66 5 1 C1.375 6.875 1.375 6.875 -2 8 C-1.34 5.36 -0.68 2.72 0 0 Z " fill="#32A0DB" transform="translate(28,22)"/>
<path d="M0 0 C0.33 0.66 0.66 1.32 1 2 C-0.12907201 5.38721604 -1.51444325 6.51444325 -4 9 C-5.23512079 11.13309192 -5.23512079 11.13309192 -6 13 C-6.66 12.67 -7.32 12.34 -8 12 C-8 11.34 -8 10.68 -8 10 C-7.34 10 -6.68 10 -6 10 C-5.34 8.02 -4.68 6.04 -4 4 C-3.01 4 -2.02 4 -1 4 C-0.67 2.68 -0.34 1.36 0 0 Z " fill="#7F3525" transform="translate(26,104)"/>
<path d="M0 0 C1.67542976 0.28604898 3.34385343 0.61781233 5 1 C4.53199289 5.05606165 4.12046792 8.46588679 2 12 C1.34 11.67 0.68 11.34 0 11 C0.33 10.4225 0.66 9.845 1 9.25 C2.27075898 6.80116138 2.27075898 6.80116138 2 3 C1.01 2.34 0.02 1.68 -1 1 C-0.67 0.67 -0.34 0.34 0 0 Z " fill="#AB5D3E" transform="translate(29,61)"/>
<path d="M0 0 C0.66 0 1.32 0 2 0 C2 0.99 2 1.98 2 3 C2.66 3 3.32 3 4 3 C4 3.66 4 4.32 4 5 C-0.75 6.125 -0.75 6.125 -3 5 C-3 4.01 -3 3.02 -3 2 C-2.01 2 -1.02 2 0 2 C0 1.34 0 0.68 0 0 Z " fill="#112370" transform="translate(40,50)"/>
<path d="M0 0 C1.98 0.495 1.98 0.495 4 1 C4.33 2.65 4.66 4.3 5 6 C4.01 6 3.02 6 2 6 C2 5.34 2 4.68 2 4 C1.34 4 0.68 4 0 4 C-0.33 4.66 -0.66 5.32 -1 6 C-0.67 4.02 -0.34 2.04 0 0 Z " fill="#CF7134" transform="translate(23,88)"/>
<path d="M0 0 C-0.33 0.99 -0.66 1.98 -1 3 C-1.66 3 -2.32 3 -3 3 C-3 2.34 -3 1.68 -3 1 C-3.99 1.495 -3.99 1.495 -5 2 C-5 2.66 -5 3.32 -5 4 C-5.66 4 -6.32 4 -7 4 C-7 3.34 -7 2.68 -7 2 C-7.66 2 -8.32 2 -9 2 C-9 1.34 -9 0.68 -9 0 C-5.62182575 -0.84454356 -3.32534757 -1.10844919 0 0 Z " fill="#2D285E" transform="translate(49,48)"/>
<path d="M0 0 C0.33 0.99 0.66 1.98 1 3 C1.66 3 2.32 3 3 3 C2.34 4.65 1.68 6.3 1 8 C0.01 8 -0.98 8 -2 8 C-1.125 2.25 -1.125 2.25 0 0 Z " fill="#B16124" transform="translate(11,118)"/>
<path d="M0 0 C5.75 0.75 5.75 0.75 8 3 C5.36 3.33 2.72 3.66 0 4 C0 2.68 0 1.36 0 0 Z " fill="#EEB94A" transform="translate(7,61)"/>
<path d="M0 0 C-0.33 0.66 -0.66 1.32 -1 2 C-3.28515625 2.4140625 -3.28515625 2.4140625 -6.0625 2.625 C-6.98160156 2.69976562 -7.90070312 2.77453125 -8.84765625 2.8515625 C-9.55792969 2.90054688 -10.26820312 2.94953125 -11 3 C-10.67 2.01 -10.34 1.02 -10 0 C-3.375 -1.125 -3.375 -1.125 0 0 Z " fill="#371929" transform="translate(21,67)"/>
<path d="M0 0 C0.33 0 0.66 0 1 0 C1 2.31 1 4.62 1 7 C0.34 7 -0.32 7 -1 7 C-1 8.65 -1 10.3 -1 12 C-1.66 11.67 -2.32 11.34 -3 11 C-2.44894091 7.0507432 -1.61064629 3.65079826 0 0 Z " fill="#E9AF4E" transform="translate(35,61)"/>
<path d="M0 0 C0.99 0.33 1.98 0.66 3 1 C2.34 1 1.68 1 1 1 C1 2.32 1 3.64 1 5 C0.34 5 -0.32 5 -1 5 C-1 5.66 -1 6.32 -1 7 C-2.32 7.33 -3.64 7.66 -5 8 C-3.62845496 5.04590299 -2.01136276 2.55991624 0 0 Z " fill="#551A3E" transform="translate(68,43)"/>
<path d="M0 0 C2 4 2 4 2 8 C0.02 8.99 0.02 8.99 -2 10 C-1.34 6.7 -0.68 3.4 0 0 Z " fill="#825C78" transform="translate(42,32)"/>
<path d="M0 0 C0.66 1.32 1.32 2.64 2 4 C1.01 5.485 1.01 5.485 0 7 C-1.9375 6.6875 -1.9375 6.6875 -4 6 C-4.33 5.01 -4.66 4.02 -5 3 C-4.01 3 -3.02 3 -2 3 C-1.34 2.01 -0.68 1.02 0 0 Z " fill="#1D87D9" transform="translate(34,18)"/>
<path d="M0 0 C0.99 0.33 1.98 0.66 3 1 C1.515 3.475 1.515 3.475 0 6 C-1.65 5.67 -3.3 5.34 -5 5 C-3.35 3.35 -1.7 1.7 0 0 Z " fill="#E1E2DE" transform="translate(54,1)"/>
<path d="M0 0 C0 0.66 0 1.32 0 2 C-2.95664519 3.4783226 -5.74229737 3.06032783 -9 3 C-9 2.34 -9 1.68 -9 1 C-5.8035914 -0.06546953 -3.34252724 -0.07427838 0 0 Z " fill="#180E23" transform="translate(14,69)"/>
<path d="M0 0 C-3.4019487 2.09350689 -6.05272412 2.17942163 -10 2 C-10 1.34 -10 0.68 -10 0 C-6.30581799 -1.231394 -3.7943739 -0.64432764 0 0 Z " fill="#8F4736" transform="translate(31,63)"/>
<path d="M0 0 C0.66 0.99 1.32 1.98 2 3 C-0.75 8.875 -0.75 8.875 -3 10 C-3 8.35 -3 6.7 -3 5 C-2.34 5 -1.68 5 -1 5 C-0.67 3.35 -0.34 1.7 0 0 Z " fill="#DFBA93" transform="translate(47,16)"/>
<path d="M0 0 C1.39195915 4.17587745 -0.17676781 6.13474776 -2 10 C-2.66 10 -3.32 10 -4 10 C-2.99806563 6.20696275 -2.18975773 3.28463659 0 0 Z " fill="#B55F2D" transform="translate(19,99)"/>
<path d="M0 0 C0.99 0.33 1.98 0.66 3 1 C3 2.98 3 4.96 3 7 C2.01 7.495 2.01 7.495 1 8 C1 7.34 1 6.68 1 6 C0.34 6 -0.32 6 -1 6 C-0.67 4.02 -0.34 2.04 0 0 Z " fill="#EFA832" transform="translate(20,98)"/>
<path d="M0 0 C0.66 0.33 1.32 0.66 2 1 C1.34 2.98 0.68 4.96 0 7 C-1.32 6.34 -2.64 5.68 -4 5 C-4 4.34 -4 3.68 -4 3 C-2.68 2.67 -1.36 2.34 0 2 C0 1.34 0 0.68 0 0 Z " fill="#5C2345" transform="translate(40,68)"/>
<path d="M0 0 C0.33 0 0.66 0 1 0 C1.33 2.64 1.66 5.28 2 8 C0.02 8.99 0.02 8.99 -2 10 C-2 8.35 -2 6.7 -2 5 C-1.34 5 -0.68 5 0 5 C0 3.35 0 1.7 0 0 Z " fill="#A85A43" transform="translate(36,63)"/>
<path d="M0 0 C2.64 0 5.28 0 8 0 C8 0.99 8 1.98 8 3 C5.69 3 3.38 3 1 3 C0.67 2.01 0.34 1.02 0 0 Z " fill="#D59256" transform="translate(41,41)"/>
<path d="M0 0 C0.66 0.33 1.32 0.66 2 1 C0.68 4.3 -0.64 7.6 -2 11 C-2.66 9.68 -3.32 8.36 -4 7 C-3.34 7 -2.68 7 -2 7 C-1.34 4.69 -0.68 2.38 0 0 Z " fill="#40417B" transform="translate(47,25)"/>
<path d="M0 0 C0.33 0.66 0.66 1.32 1 2 C0.67 2.99 0.34 3.98 0 5 C-0.99 5 -1.98 5 -3 5 C-3.66 6.32 -4.32 7.64 -5 9 C-5 4.61031544 -2.87194899 3.23094261 0 0 Z " fill="#F39744" transform="translate(45,72)"/>
<path d="M0 0 C0.99 0 1.98 0 3 0 C3 0.99 3 1.98 3 3 C0.5 5.1875 0.5 5.1875 -2 7 C-1.125 1.125 -1.125 1.125 0 0 Z " fill="#8C293E" transform="translate(42,68)"/>
<path d="M0 0 C0.66 0 1.32 0 2 0 C2.33 2.31 2.66 4.62 3 7 C1.68 7 0.36 7 -1 7 C-0.67 4.69 -0.34 2.38 0 0 Z " fill="#6D244D" transform="translate(46,60)"/>
<path d="M0 0 C1 3 1 3 0.25 5.125 C-1 7 -1 7 -4 8 C-2.87548273 5.0280615 -1.77706209 2.66559313 0 0 Z " fill="#D54743" transform="translate(54,58)"/>
<path d="M0 0 C0 0.66 0 1.32 0 2 C-1.96147874 3.38938077 -3.96166576 4.7260411 -6 6 C-6 4.35 -6 2.7 -6 1 C-3 0 -3 0 0 0 Z " fill="#DE493B" transform="translate(70,40)"/>
<path d="M0 0 C0.99 0.33 1.98 0.66 3 1 C2.979375 1.78375 2.95875 2.5675 2.9375 3.375 C2.81315937 5.98114961 2.81315937 5.98114961 4 8 C2.68 7.34 1.36 6.68 0 6 C0 4.02 0 2.04 0 0 Z " fill="#AF796C" transform="translate(38,36)"/>
<path d="M0 0 C1.65 0 3.3 0 5 0 C4.67 0.66 4.34 1.32 4 2 C3.67 2.99 3.34 3.98 3 5 C2.01 5.33 1.02 5.66 0 6 C0 4.02 0 2.04 0 0 Z " fill="#2174C9" transform="translate(35,18)"/>
</svg>
