<svg version="1.1" id="Layer_1" xmlns="http://www.w3.org/2000/svg" xmlns:xlink="http://www.w3.org/1999/xlink" x="0px" y="0px"
	 width="100%" viewBox="0 0 300 200" enable-background="new 0 0 300 200" xml:space="preserve">
<path fill="#FFFFFF" opacity="1.000000" stroke="none" 
	d="
M2.000000,1.000000 
	C101.622948,1.000000 201.245895,1.000000 300.934418,1.000000 
	C300.934418,67.593651 300.934418,134.187393 300.934418,200.890564 
	C201.116928,200.890564 101.233696,200.890564 1.000000,200.890564 
	C1.000000,134.979523 1.000000,68.958420 1.221841,2.364024 
	C1.718727,1.590206 1.904166,1.326628 2.000000,1.000000 
M18.517979,73.971764 
	C41.099682,60.884373 64.405396,50.343746 91.986816,53.928333 
	C83.665092,41.123531 49.011322,34.420845 34.134865,37.066242 
	C35.661476,38.893200 37.073311,40.582798 38.559872,42.361828 
	C31.387897,43.039829 24.526024,43.688515 17.664150,44.337200 
	C17.666670,44.842709 17.669189,45.348217 17.671707,45.853725 
	C20.146952,47.124550 22.622194,48.395374 25.798105,50.025928 
	C19.110620,53.462761 13.455462,56.379761 9.877455,62.979607 
	C13.486268,62.979607 16.241728,62.979607 19.730547,62.979607 
	C13.225784,69.562599 5.986908,74.707390 2.948330,84.418312 
	C8.588575,80.640938 13.255606,77.515343 18.517979,73.971764 
M189.756607,130.272324 
	C192.520248,120.064804 195.283890,109.857285 198.054489,99.624054 
	C188.841370,97.767128 188.535034,97.960587 186.774857,106.353340 
	C185.745270,111.262474 184.718460,116.172203 183.432175,122.314911 
	C181.733612,115.138397 180.184204,109.217804 178.975662,103.228432 
	C178.348221,100.118858 177.101181,98.419228 173.704697,98.897942 
	C170.443848,99.357552 166.229630,97.194130 165.157928,102.901451 
	C164.001587,109.059502 162.273956,115.110275 160.474380,122.532433 
	C159.124146,115.355057 157.811432,109.564255 157.013107,103.703392 
	C156.506851,99.986900 155.012680,98.320847 151.207474,98.886246 
	C149.613113,99.123146 147.975800,99.070999 145.844055,99.175446 
	C146.135468,101.063454 146.232117,102.516510 146.594742,103.899834 
	C148.445923,110.961517 150.357986,118.007309 152.263641,125.054626 
	C154.530685,133.438354 154.547501,133.566666 163.189209,132.885590 
	C164.581070,132.775894 166.584549,131.163956 167.021210,129.827042 
	C168.758896,124.506828 169.988144,119.020561 171.405685,113.595787 
	C173.579483,118.306328 174.799072,122.915146 175.958801,127.538979 
	C177.449966,133.484222 184.367874,135.289825 189.756607,130.272324 
M71.469498,68.845985 
	C82.400543,66.473122 93.269135,64.922073 103.502609,71.891228 
	C103.826431,66.069267 102.241211,62.889381 98.109528,60.562443 
	C90.512718,56.283981 82.355339,56.958096 74.372299,58.554089 
	C49.257126,63.575218 28.445585,76.360359 10.942146,94.778793 
	C8.473617,97.376373 6.445126,100.392120 4.212955,103.214317 
	C16.076015,98.497299 27.112173,93.156792 38.122837,87.764229 
	C39.304977,87.185280 40.668503,86.538567 41.390434,85.525879 
	C48.582329,75.437424 59.408314,71.865570 71.469498,68.845985 
M78.577179,106.987495 
	C76.508476,106.987495 74.439781,106.987495 71.830444,106.987495 
	C71.830444,100.825027 71.830444,95.580872 71.830444,90.235382 
	C68.360191,90.235382 65.446091,90.235382 62.323601,90.235382 
	C62.323601,104.567688 62.323601,118.584785 62.323601,132.707230 
	C65.647766,132.707230 68.563751,132.707230 72.218735,132.707230 
	C72.218735,126.724640 72.218735,121.020325 72.218735,115.499512 
	C78.190590,115.499512 83.406250,115.499512 89.180634,115.499512 
	C89.180634,121.534378 89.180634,127.104935 89.180634,132.682648 
	C92.688148,132.682648 95.603317,132.682648 98.630371,132.682648 
	C98.630371,118.327812 98.630371,104.306305 98.630371,90.271408 
	C95.283806,90.271408 92.366325,90.271408 88.728424,90.271408 
	C88.728424,95.969322 88.728424,101.342552 88.728424,106.987465 
	C85.179466,106.987465 82.359436,106.987465 78.577179,106.987495 
M140.749435,132.073105 
	C140.749435,121.166809 140.749435,110.260513 140.749435,98.438568 
	C136.436600,99.047165 132.733459,99.569717 127.477394,100.311409 
	C121.216354,96.502953 114.344376,96.885010 109.408104,102.466225 
	C103.843285,108.758110 103.237907,121.353325 108.174706,128.127441 
	C112.717285,134.360580 119.846504,135.173508 129.319962,130.637589 
	C132.326157,134.719070 136.446533,132.621902 140.749435,132.073105 
M203.959991,104.586975 
	C196.989685,116.132477 200.172501,127.597557 211.642197,132.259689 
	C221.407852,136.229172 232.690674,130.721497 233.486984,121.347092 
	C228.980667,121.336830 224.653320,120.088249 220.417770,123.698799 
	C216.520035,127.021400 211.835388,124.001488 211.516678,118.074463 
	C215.333008,118.074463 219.129837,118.074455 222.926682,118.074455 
	C226.822830,118.074455 230.718994,118.074463 234.507462,118.074463 
	C235.688400,105.181770 229.495102,98.085068 218.041565,97.966431 
	C212.514175,97.909180 208.024551,99.879219 203.959991,104.586975 
M289.407745,95.910423 
	C292.648895,93.445885 295.890045,90.981354 299.515747,88.224396 
	C281.908234,87.900864 270.394806,98.271622 258.128693,110.107040 
	C254.917007,106.395638 252.592361,101.827187 248.904373,99.978386 
	C245.237762,98.140305 240.200806,99.035797 235.764755,98.732574 
	C235.534485,99.288200 235.304214,99.843834 235.073944,100.399460 
	C238.256256,103.298256 241.536026,106.098038 244.601456,109.115562 
	C251.970627,116.369560 251.920105,116.400909 244.820938,123.601440 
	C241.989288,126.473526 239.212570,129.399765 236.275604,132.441406 
	C245.038712,134.410645 251.117172,132.068710 257.087952,125.774879 
	C266.999908,115.326645 278.196503,106.097122 289.407745,95.910423 
M265.535431,130.173508 
	C270.103210,135.419601 275.872803,132.094254 281.270050,132.533661 
	C277.991028,128.533340 274.494232,125.037285 270.950104,121.589844 
	C270.264069,120.922516 269.393280,120.445168 268.490479,119.795898 
	C266.266632,121.967422 264.180359,124.004616 261.901764,126.229599 
	C263.043518,127.487488 264.025696,128.569519 265.535431,130.173508 
M185.723495,165.388947 
	C187.903992,163.340912 186.532318,163.236557 184.572815,162.967575 
	C182.826096,162.727783 181.153244,161.950012 179.447800,161.409668 
	C179.594940,160.844330 179.742081,160.278976 179.889236,159.713638 
	C182.776581,159.713638 185.663940,159.713638 188.629761,159.713638 
	C187.517731,153.285324 183.040207,150.816742 178.959885,154.282806 
	C177.427521,155.584488 176.295029,158.672607 176.665207,160.627167 
	C177.461395,164.831116 180.875443,166.243881 185.723495,165.388947 
M135.790970,165.476578 
	C136.552902,164.752350 137.314850,164.028137 138.064316,163.315781 
	C134.806976,162.696777 132.207489,162.202805 129.608017,161.708832 
	C129.720078,161.046829 129.832138,160.384827 129.944199,159.722824 
	C132.845978,159.722824 135.747742,159.722824 138.785858,159.722824 
	C139.041473,155.052505 137.045151,152.932220 133.004898,153.017426 
	C129.014984,153.101608 126.997093,155.422928 126.966171,159.390121 
	C126.922585,164.982269 130.833771,165.598831 135.790970,165.476578 
M247.139603,155.554840 
	C247.310501,158.691940 247.481400,161.829056 247.652313,164.966156 
	C248.126602,164.905640 248.600891,164.845123 249.075180,164.784607 
	C249.923904,163.169006 250.772614,161.553391 251.763000,159.668091 
	C254.263336,161.672913 256.249603,163.265549 258.235840,164.858185 
	C258.527313,164.533356 258.818787,164.208542 259.110260,163.883728 
	C257.736816,161.892410 256.363403,159.901093 254.932770,157.826828 
	C256.277557,156.111572 257.519836,154.527054 258.762115,152.942551 
	C258.437592,152.576462 258.113037,152.210358 257.788513,151.844269 
	C255.368439,153.711594 252.948380,155.578918 250.365601,157.571777 
	C250.026291,154.121902 249.728912,151.098541 249.431549,148.075180 
	C248.832993,148.091125 248.234421,148.107071 247.635864,148.123016 
	C247.470551,150.286636 247.305237,152.450272 247.139603,155.554840 
M172.912598,159.700165 
	C172.260315,153.453781 170.673386,152.117416 164.416534,152.539658 
	C163.768707,151.097748 163.120865,149.655823 162.473038,148.213913 
	C162.193573,148.345123 161.914093,148.476334 161.634628,148.607559 
	C161.634628,154.240707 161.634628,159.873871 161.634628,165.507019 
	C162.180023,165.524063 162.725403,165.541092 163.270798,165.558136 
	C163.457993,163.230545 163.267700,160.780563 163.968338,158.619431 
	C164.417053,157.235306 166.180481,156.277390 167.354538,155.128418 
	C168.245499,156.284210 169.560181,157.320053 169.929199,158.623611 
	C170.497803,160.632156 170.418152,162.824219 170.613510,164.938431 
	C171.181915,164.940475 171.750336,164.942520 172.318756,164.944565 
	C172.517197,163.480820 172.715652,162.017090 172.912598,159.700165 
M225.221329,154.779343 
	C221.152405,151.656662 221.144653,151.656250 217.317062,154.515274 
	C219.204803,154.876862 220.931763,155.207672 223.879425,155.772293 
	C219.971619,157.763504 214.347717,156.810196 215.782944,161.798264 
	C217.209320,166.755615 222.051910,164.357803 226.130020,164.790146 
	C225.956070,161.339142 225.808182,158.405060 225.221329,154.779343 
M77.806274,160.685532 
	C76.363174,157.527252 75.110847,154.257355 73.366371,151.275391 
	C72.807816,150.320602 69.878670,149.579422 69.835022,149.664520 
	C67.367592,154.473618 65.090874,159.380554 62.691635,164.498856 
	C66.126587,163.109665 68.646957,161.287247 71.156036,161.302673 
	C73.639137,161.317947 76.110832,163.187912 78.862503,164.361633 
	C78.622131,163.424545 78.359390,162.400192 77.806274,160.685532 
M86.342743,164.644379 
	C88.994041,163.866470 92.250160,163.749496 94.080559,162.074509 
	C95.268585,160.987335 95.348518,156.524704 94.209572,155.521103 
	C92.008087,153.581192 88.593849,153.017578 85.114220,151.662170 
	C85.057274,151.331696 84.799187,149.833969 84.541107,148.336243 
	C84.054955,148.353546 83.568810,148.370850 83.082664,148.388153 
	C83.082664,153.535599 83.051582,158.683868 83.188896,163.827667 
	C83.194786,164.048386 84.755638,164.227600 86.342743,164.644379 
M209.208099,153.261581 
	C206.977432,153.101761 204.746765,152.941956 202.384460,152.772705 
	C202.139786,151.573975 201.807968,149.948349 201.476151,148.322708 
	C201.137054,148.366852 200.797958,148.410995 200.458862,148.455154 
	C200.458862,153.768311 200.458862,159.081467 200.458862,164.496948 
	C204.409103,164.317535 209.544342,167.070648 211.622696,161.573242 
	C212.423233,159.455780 210.510712,156.312607 209.208099,153.261581 
M240.079880,160.537384 
	C240.404205,162.024780 240.728531,163.512177 241.052841,164.999573 
	C241.777634,164.871857 242.502411,164.744156 243.227203,164.616440 
	C242.780350,161.262665 243.181793,157.460449 241.698517,154.654587 
	C239.129517,149.794922 234.838028,154.269058 230.809250,153.537979 
	C231.044678,157.864838 231.258942,161.802719 231.473206,165.740585 
	C232.136459,165.731720 232.799728,165.722839 233.462982,165.713959 
	C233.622467,163.715927 233.379639,161.566742 234.057205,159.763382 
	C234.704971,158.039368 236.310165,156.675110 237.494522,155.152725 
	C238.355911,156.661453 239.217300,158.170197 240.079880,160.537384 
M267.865356,164.917801 
	C269.091858,163.489471 270.318390,162.061142 271.544891,160.632797 
	C269.234192,158.911896 266.923462,157.190994 264.016327,155.025894 
	C266.018799,154.774384 267.820099,154.548157 270.056915,154.267212 
	C267.130829,151.220551 263.690552,151.823013 262.076843,154.078354 
	C257.199646,160.894699 267.102600,158.576538 268.048340,162.751221 
	C265.548248,162.751221 263.465302,162.751221 261.382355,162.751221 
	C261.346649,163.219452 261.310944,163.687683 261.275238,164.155914 
	C263.211578,164.439117 265.147949,164.722336 267.865356,164.917801 
M110.709099,157.904739 
	C109.968201,156.624542 109.480118,154.562927 108.434479,154.224609 
	C106.163963,153.490036 103.035896,152.672974 101.328796,153.688644 
	C99.576363,154.731277 97.974373,158.152054 98.381638,160.097687 
	C98.783600,162.018036 101.567375,164.328781 103.686455,164.816620 
	C108.166321,165.847946 110.321686,162.899887 110.709099,157.904739 
M148.853714,153.160324 
	C149.268173,155.924164 149.629242,158.697342 150.109970,161.449615 
	C150.782608,165.300766 153.105591,166.221573 156.446365,164.029221 
	C151.555252,161.392838 151.489655,157.322159 156.132889,153.825684 
	C154.594269,152.629837 153.027985,151.412491 151.185822,149.980713 
	C150.587967,150.908875 150.006577,151.811478 148.853714,153.160324 
M118.525291,164.932968 
	C122.697685,162.157822 123.475456,157.794205 124.772369,153.673523 
	C124.312424,153.426071 123.852486,153.178619 123.392540,152.931168 
	C121.829742,155.739334 120.266953,158.547516 118.632538,161.484375 
	C116.943878,158.208939 115.503677,155.415436 114.063477,152.621933 
	C113.383751,152.996994 112.704025,153.372040 112.024307,153.747086 
	C113.954041,157.418213 115.883774,161.089325 118.525291,164.932968 
z"/>
<path fill="#F8F8F8" opacity="1.000000" stroke="none" 
	d="
M1.500000,1.000000 
	C1.904166,1.326628 1.718727,1.590206 1.221841,1.895367 
	C1.000000,1.666667 1.000000,1.333333 1.500000,1.000000 
z"/>
<path fill="#BABABA" opacity="1.000000" stroke="none" 
	d="
M18.220306,74.180756 
	C13.255606,77.515343 8.588575,80.640938 2.948330,84.418312 
	C5.986908,74.707390 13.225784,69.562599 19.730547,62.979607 
	C16.241728,62.979607 13.486268,62.979607 9.877455,62.979607 
	C13.455462,56.379761 19.110620,53.462761 25.798105,50.025928 
	C22.622194,48.395374 20.146952,47.124550 17.671707,45.853725 
	C17.669189,45.348217 17.666670,44.842709 17.664150,44.337200 
	C24.526024,43.688515 31.387897,43.039829 38.559872,42.361828 
	C37.073311,40.582798 35.661476,38.893200 34.134865,37.066242 
	C49.011322,34.420845 83.665092,41.123531 91.986816,53.928333 
	C64.405396,50.343746 41.099682,60.884373 18.220306,74.180756 
M71.048569,51.845238 
	C72.793549,51.481468 74.538528,51.117699 76.827919,50.640438 
	C74.162590,47.355350 71.494293,44.825626 67.459915,46.506214 
	C66.142654,47.054951 65.612152,49.492348 64.254951,51.891174 
	C67.294373,51.891174 68.758308,51.891174 71.048569,51.845238 
z"/>
<path fill="#BABABA" opacity="1.000000" stroke="none" 
	d="
M189.593277,130.651688 
	C184.367874,135.289825 177.449966,133.484222 175.958801,127.538979 
	C174.799072,122.915146 173.579483,118.306328 171.405685,113.595787 
	C169.988144,119.020561 168.758896,124.506828 167.021210,129.827042 
	C166.584549,131.163956 164.581070,132.775894 163.189209,132.885590 
	C154.547501,133.566666 154.530685,133.438354 152.263641,125.054626 
	C150.357986,118.007309 148.445923,110.961517 146.594742,103.899834 
	C146.232117,102.516510 146.135468,101.063454 145.844055,99.175446 
	C147.975800,99.070999 149.613113,99.123146 151.207474,98.886246 
	C155.012680,98.320847 156.506851,99.986900 157.013107,103.703392 
	C157.811432,109.564255 159.124146,115.355057 160.474380,122.532433 
	C162.273956,115.110275 164.001587,109.059502 165.157928,102.901451 
	C166.229630,97.194130 170.443848,99.357552 173.704697,98.897942 
	C177.101181,98.419228 178.348221,100.118858 178.975662,103.228432 
	C180.184204,109.217804 181.733612,115.138397 183.432175,122.314911 
	C184.718460,116.172203 185.745270,111.262474 186.774857,106.353340 
	C188.535034,97.960587 188.841370,97.767128 198.054489,99.624054 
	C195.283890,109.857285 192.520248,120.064804 189.593277,130.651688 
z"/>
<path fill="#BABABA" opacity="1.000000" stroke="none" 
	d="
M71.053452,68.907158 
	C59.408314,71.865570 48.582329,75.437424 41.390434,85.525879 
	C40.668503,86.538567 39.304977,87.185280 38.122837,87.764229 
	C27.112173,93.156792 16.076015,98.497299 4.212955,103.214317 
	C6.445126,100.392120 8.473617,97.376373 10.942146,94.778793 
	C28.445585,76.360359 49.257126,63.575218 74.372299,58.554089 
	C82.355339,56.958096 90.512718,56.283981 98.109528,60.562443 
	C102.241211,62.889381 103.826431,66.069267 103.502609,71.891228 
	C93.269135,64.922073 82.400543,66.473122 71.053452,68.907158 
z"/>
<path fill="#B8B8B8" opacity="1.000000" stroke="none" 
	d="
M79.058296,106.987480 
	C82.359436,106.987465 85.179466,106.987465 88.728424,106.987465 
	C88.728424,101.342552 88.728424,95.969322 88.728424,90.271408 
	C92.366325,90.271408 95.283806,90.271408 98.630371,90.271408 
	C98.630371,104.306305 98.630371,118.327812 98.630371,132.682648 
	C95.603317,132.682648 92.688148,132.682648 89.180634,132.682648 
	C89.180634,127.104935 89.180634,121.534378 89.180634,115.499512 
	C83.406250,115.499512 78.190590,115.499512 72.218735,115.499512 
	C72.218735,121.020325 72.218735,126.724640 72.218735,132.707230 
	C68.563751,132.707230 65.647766,132.707230 62.323601,132.707230 
	C62.323601,118.584785 62.323601,104.567688 62.323601,90.235382 
	C65.446091,90.235382 68.360191,90.235382 71.830444,90.235382 
	C71.830444,95.580872 71.830444,100.825027 71.830444,106.987495 
	C74.439781,106.987495 76.508476,106.987495 79.058296,106.987480 
z"/>
<path fill="#BABABA" opacity="1.000000" stroke="none" 
	d="
M140.432098,132.403198 
	C136.446533,132.621902 132.326157,134.719070 129.319962,130.637589 
	C119.846504,135.173508 112.717285,134.360580 108.174706,128.127441 
	C103.237907,121.353325 103.843285,108.758110 109.408104,102.466225 
	C114.344376,96.885010 121.216354,96.502953 127.477394,100.311409 
	C132.733459,99.569717 136.436600,99.047165 140.749435,98.438568 
	C140.749435,110.260513 140.749435,121.166809 140.432098,132.403198 
M125.450462,107.959221 
	C121.621964,106.294594 117.972633,107.609459 116.509949,110.804512 
	C115.251503,113.553444 115.308395,117.567940 116.301399,120.510712 
	C117.456726,123.934540 121.285095,125.167175 124.621262,123.800728 
	C126.743538,122.931473 129.100082,120.687553 129.741516,118.571892 
	C130.922684,114.676109 130.324265,110.634567 125.450462,107.959221 
z"/>
<path fill="#BABABA" opacity="1.000000" stroke="none" 
	d="
M204.199112,104.307388 
	C208.024551,99.879219 212.514175,97.909180 218.041565,97.966431 
	C229.495102,98.085068 235.688400,105.181770 234.507462,118.074463 
	C230.718994,118.074463 226.822830,118.074455 222.926682,118.074455 
	C219.129837,118.074455 215.333008,118.074463 211.516678,118.074463 
	C211.835388,124.001488 216.520035,127.021400 220.417770,123.698799 
	C224.653320,120.088249 228.980667,121.336830 233.486984,121.347092 
	C232.690674,130.721497 221.407852,136.229172 211.642197,132.259689 
	C200.172501,127.597557 196.989685,116.132477 204.199112,104.307388 
M215.659088,112.114090 
	C218.031448,112.114090 220.403809,112.114090 223.215057,112.114090 
	C222.587784,107.972626 220.598495,106.874161 217.613007,106.872887 
	C214.510620,106.871559 211.643631,107.150208 210.994827,111.556030 
	C212.334503,111.754120 213.550598,111.933929 215.659088,112.114090 
z"/>
<path fill="#BABABA" opacity="1.000000" stroke="none" 
	d="
M289.129883,96.132339 
	C278.196503,106.097122 266.999908,115.326645 257.087952,125.774879 
	C251.117172,132.068710 245.038712,134.410645 236.275604,132.441406 
	C239.212570,129.399765 241.989288,126.473526 244.820938,123.601440 
	C251.920105,116.400909 251.970627,116.369560 244.601456,109.115562 
	C241.536026,106.098038 238.256256,103.298256 235.073944,100.399460 
	C235.304214,99.843834 235.534485,99.288200 235.764755,98.732574 
	C240.200806,99.035797 245.237762,98.140305 248.904373,99.978386 
	C252.592361,101.827187 254.917007,106.395638 258.128693,110.107040 
	C270.394806,98.271622 281.908234,87.900864 299.515747,88.224396 
	C295.890045,90.981354 292.648895,93.445885 289.129883,96.132339 
z"/>
<path fill="#BABABA" opacity="1.000000" stroke="none" 
	d="
M265.271637,129.912537 
	C264.025696,128.569519 263.043518,127.487488 261.901764,126.229599 
	C264.180359,124.004616 266.266632,121.967422 268.490479,119.795898 
	C269.393280,120.445168 270.264069,120.922516 270.950104,121.589844 
	C274.494232,125.037285 277.991028,128.533340 281.270050,132.533661 
	C275.872803,132.094254 270.103210,135.419601 265.271637,129.912537 
z"/>
<path fill="#C9C9C9" opacity="1.000000" stroke="none" 
	d="
M185.379211,165.553879 
	C180.875443,166.243881 177.461395,164.831116 176.665207,160.627167 
	C176.295029,158.672607 177.427521,155.584488 178.959885,154.282806 
	C183.040207,150.816742 187.517731,153.285324 188.629761,159.713638 
	C185.663940,159.713638 182.776581,159.713638 179.889236,159.713638 
	C179.742081,160.278976 179.594940,160.844330 179.447800,161.409668 
	C181.153244,161.950012 182.826096,162.727783 184.572815,162.967575 
	C186.532318,163.236557 187.903992,163.340912 185.379211,165.553879 
z"/>
<path fill="#C9C9C9" opacity="1.000000" stroke="none" 
	d="
M135.437073,165.613541 
	C130.833771,165.598831 126.922585,164.982269 126.966171,159.390121 
	C126.997093,155.422928 129.014984,153.101608 133.004898,153.017426 
	C137.045151,152.932220 139.041473,155.052505 138.785858,159.722824 
	C135.747742,159.722824 132.845978,159.722824 129.944199,159.722824 
	C129.832138,160.384827 129.720078,161.046829 129.608017,161.708832 
	C132.207489,162.202805 134.806976,162.696777 138.064316,163.315781 
	C137.314850,164.028137 136.552902,164.752350 135.437073,165.613541 
z"/>
<path fill="#BFBFBF" opacity="1.000000" stroke="none" 
	d="
M247.139771,155.084366 
	C247.305237,152.450272 247.470551,150.286636 247.635864,148.123016 
	C248.234421,148.107071 248.832993,148.091125 249.431549,148.075180 
	C249.728912,151.098541 250.026291,154.121902 250.365601,157.571777 
	C252.948380,155.578918 255.368439,153.711594 257.788513,151.844269 
	C258.113037,152.210358 258.437592,152.576462 258.762115,152.942551 
	C257.519836,154.527054 256.277557,156.111572 254.932770,157.826828 
	C256.363403,159.901093 257.736816,161.892410 259.110260,163.883728 
	C258.818787,164.208542 258.527313,164.533356 258.235840,164.858185 
	C256.249603,163.265549 254.263336,161.672913 251.763000,159.668091 
	C250.772614,161.553391 249.923904,163.169006 249.075180,164.784607 
	C248.600891,164.845123 248.126602,164.905640 247.652313,164.966156 
	C247.481400,161.829056 247.310501,158.691940 247.139771,155.084366 
z"/>
<path fill="#BFBFBF" opacity="1.000000" stroke="none" 
	d="
M172.913345,160.126755 
	C172.715652,162.017090 172.517197,163.480820 172.318756,164.944565 
	C171.750336,164.942520 171.181915,164.940475 170.613510,164.938431 
	C170.418152,162.824219 170.497803,160.632156 169.929199,158.623611 
	C169.560181,157.320053 168.245499,156.284210 167.354538,155.128418 
	C166.180481,156.277390 164.417053,157.235306 163.968338,158.619431 
	C163.267700,160.780563 163.457993,163.230545 163.270798,165.558136 
	C162.725403,165.541092 162.180023,165.524063 161.634628,165.507019 
	C161.634628,159.873871 161.634628,154.240707 161.634628,148.607559 
	C161.914093,148.476334 162.193573,148.345123 162.473038,148.213913 
	C163.120865,149.655823 163.768707,151.097748 164.414169,152.540634 
	C170.673386,152.117416 172.260315,153.453781 172.913345,160.126755 
z"/>
<path fill="#BFBFBF" opacity="1.000000" stroke="none" 
	d="
M225.440796,155.125153 
	C225.808182,158.405060 225.956070,161.339142 226.130020,164.790146 
	C222.051910,164.357803 217.209320,166.755615 215.782944,161.798264 
	C214.347717,156.810196 219.971619,157.763504 223.879425,155.772293 
	C220.931763,155.207672 219.204803,154.876862 217.317062,154.515274 
	C221.144653,151.656250 221.152405,151.656662 225.440796,155.125153 
z"/>
<path fill="#BFBFBF" opacity="1.000000" stroke="none" 
	d="
M77.951462,161.030701 
	C78.359390,162.400192 78.622131,163.424545 78.862503,164.361633 
	C76.110832,163.187912 73.639137,161.317947 71.156036,161.302673 
	C68.646957,161.287247 66.126587,163.109665 62.691635,164.498856 
	C65.090874,159.380554 67.367592,154.473618 69.835022,149.664520 
	C69.878670,149.579422 72.807816,150.320602 73.366371,151.275391 
	C75.110847,154.257355 76.363174,157.527252 77.951462,161.030701 
M73.527855,158.552063 
	C72.884338,156.710297 72.240829,154.868530 71.135643,151.705444 
	C69.637650,154.917908 68.840698,156.626984 67.770927,158.921112 
	C69.970154,158.921112 71.426003,158.921112 73.527855,158.552063 
z"/>
<path fill="#BFBFBF" opacity="1.000000" stroke="none" 
	d="
M85.967438,164.535263 
	C84.755638,164.227600 83.194786,164.048386 83.188896,163.827667 
	C83.051582,158.683868 83.082664,153.535599 83.082664,148.388153 
	C83.568810,148.370850 84.054955,148.353546 84.541107,148.336243 
	C84.799187,149.833969 85.057274,151.331696 85.114220,151.662170 
	C88.593849,153.017578 92.008087,153.581192 94.209572,155.521103 
	C95.348518,156.524704 95.268585,160.987335 94.080559,162.074509 
	C92.250160,163.749496 88.994041,163.866470 85.967438,164.535263 
M88.517517,154.934326 
	C85.287994,154.964233 84.541153,157.132874 85.118614,159.610870 
	C85.412849,160.873520 86.835396,162.563477 87.965286,162.751053 
	C89.144211,162.946808 91.406586,161.839996 91.742523,160.822845 
	C92.484138,158.577301 92.911957,155.771835 88.517517,154.934326 
z"/>
<path fill="#BABABA" opacity="1.000000" stroke="none" 
	d="
M209.521210,153.449188 
	C210.510712,156.312607 212.423233,159.455780 211.622696,161.573242 
	C209.544342,167.070648 204.409103,164.317535 200.458862,164.496948 
	C200.458862,159.081467 200.458862,153.768311 200.458862,148.455154 
	C200.797958,148.410995 201.137054,148.366852 201.476151,148.322708 
	C201.807968,149.948349 202.139786,151.573975 202.384460,152.772705 
	C204.746765,152.941956 206.977432,153.101761 209.521210,153.449188 
M202.915756,156.281815 
	C203.271255,158.327698 203.240158,160.583633 204.179367,162.312408 
	C204.537140,162.970963 207.757187,163.049622 208.535141,162.264847 
	C209.572495,161.218384 210.173309,158.885895 209.771774,157.435120 
	C208.784561,153.868393 206.012695,154.549927 202.915756,156.281815 
z"/>
<path fill="#C9C9C9" opacity="1.000000" stroke="none" 
	d="
M240.079285,160.108154 
	C239.217300,158.170197 238.355911,156.661453 237.494522,155.152725 
	C236.310165,156.675110 234.704971,158.039368 234.057205,159.763382 
	C233.379639,161.566742 233.622467,163.715927 233.462982,165.713959 
	C232.799728,165.722839 232.136459,165.731720 231.473206,165.740585 
	C231.258942,161.802719 231.044678,157.864838 230.809250,153.537979 
	C234.838028,154.269058 239.129517,149.794922 241.698517,154.654587 
	C243.181793,157.460449 242.780350,161.262665 243.227203,164.616440 
	C242.502411,164.744156 241.777634,164.871857 241.052841,164.999573 
	C240.728531,163.512177 240.404205,162.024780 240.079285,160.108154 
z"/>
<path fill="#BFBFBF" opacity="1.000000" stroke="none" 
	d="
M267.474823,164.961670 
	C265.147949,164.722336 263.211578,164.439117 261.275238,164.155914 
	C261.310944,163.687683 261.346649,163.219452 261.382355,162.751221 
	C263.465302,162.751221 265.548248,162.751221 268.048340,162.751221 
	C267.102600,158.576538 257.199646,160.894699 262.076843,154.078354 
	C263.690552,151.823013 267.130829,151.220551 270.056915,154.267212 
	C267.820099,154.548157 266.018799,154.774384 264.016327,155.025894 
	C266.923462,157.190994 269.234192,158.911896 271.544922,160.632812 
	C270.318390,162.061142 269.091858,163.489471 267.474823,164.961670 
z"/>
<path fill="#BFBFBF" opacity="1.000000" stroke="none" 
	d="
M110.766815,158.274323 
	C110.321686,162.899887 108.166321,165.847946 103.686455,164.816620 
	C101.567375,164.328781 98.783600,162.018036 98.381638,160.097687 
	C97.974373,158.152054 99.576363,154.731277 101.328796,153.688644 
	C103.035896,152.672974 106.163963,153.490036 108.434479,154.224609 
	C109.480118,154.562927 109.968201,156.624542 110.766815,158.274323 
M100.865349,157.168594 
	C101.581871,159.063522 102.019753,161.168549 103.190422,162.721024 
	C103.526917,163.167267 106.908089,162.391617 107.256508,161.521088 
	C107.892197,159.932816 107.305420,157.855286 107.228600,155.981842 
	C105.215065,156.142883 103.201538,156.303909 100.865349,157.168594 
z"/>
<path fill="#C9C9C9" opacity="1.000000" stroke="none" 
	d="
M149.139435,152.937210 
	C150.006577,151.811478 150.587967,150.908875 151.185822,149.980713 
	C153.027985,151.412491 154.594269,152.629837 156.132889,153.825684 
	C151.489655,157.322159 151.555252,161.392838 156.446365,164.029221 
	C153.105591,166.221573 150.782608,165.300766 150.109970,161.449615 
	C149.629242,158.697342 149.268173,155.924164 149.139435,152.937210 
z"/>
<path fill="#BFBFBF" opacity="1.000000" stroke="none" 
	d="
M118.169403,164.846710 
	C115.883774,161.089325 113.954041,157.418213 112.024307,153.747086 
	C112.704025,153.372040 113.383751,152.996994 114.063477,152.621933 
	C115.503677,155.415436 116.943878,158.208939 118.632538,161.484375 
	C120.266953,158.547516 121.829742,155.739334 123.392540,152.931168 
	C123.852486,153.178619 124.312424,153.426071 124.772369,153.673523 
	C123.475456,157.794205 122.697685,162.157822 118.169403,164.846710 
z"/>
<path fill="#FFFFFF" opacity="1.000000" stroke="none" 
	d="
M70.635406,51.868206 
	C68.758308,51.891174 67.294373,51.891174 64.254951,51.891174 
	C65.612152,49.492348 66.142654,47.054951 67.459915,46.506214 
	C71.494293,44.825626 74.162590,47.355350 76.827919,50.640438 
	C74.538528,51.117699 72.793549,51.481468 70.635406,51.868206 
z"/>
<path fill="#FFFFFF" opacity="1.000000" stroke="none" 
	d="
M125.814209,108.079803 
	C130.324265,110.634567 130.922684,114.676109 129.741516,118.571892 
	C129.100082,120.687553 126.743538,122.931473 124.621262,123.800728 
	C121.285095,125.167175 117.456726,123.934540 116.301399,120.510712 
	C115.308395,117.567940 115.251503,113.553444 116.509949,110.804512 
	C117.972633,107.609459 121.621964,106.294594 125.814209,108.079803 
z"/>
<path fill="#FFFFFF" opacity="1.000000" stroke="none" 
	d="
M215.212891,112.113914 
	C213.550598,111.933929 212.334503,111.754120 210.994827,111.556030 
	C211.643631,107.150208 214.510620,106.871559 217.613007,106.872887 
	C220.598495,106.874161 222.587784,107.972626 223.215057,112.114090 
	C220.403809,112.114090 218.031448,112.114090 215.212891,112.113914 
z"/>
<path fill="#F8F8F8" opacity="1.000000" stroke="none" 
	d="
M73.204857,158.736588 
	C71.426003,158.921112 69.970154,158.921112 67.770927,158.921112 
	C68.840698,156.626984 69.637650,154.917908 71.135643,151.705444 
	C72.240829,154.868530 72.884338,156.710297 73.204857,158.736588 
z"/>
<path fill="#FFFFFF" opacity="1.000000" stroke="none" 
	d="
M88.938629,154.950989 
	C92.911957,155.771835 92.484138,158.577301 91.742523,160.822845 
	C91.406586,161.839996 89.144211,162.946808 87.965286,162.751053 
	C86.835396,162.563477 85.412849,160.873520 85.118614,159.610870 
	C84.541153,157.132874 85.287994,154.964233 88.938629,154.950989 
z"/>
<path fill="#F8F8F8" opacity="1.000000" stroke="none" 
	d="
M203.151245,155.953690 
	C206.012695,154.549927 208.784561,153.868393 209.771774,157.435120 
	C210.173309,158.885895 209.572495,161.218384 208.535141,162.264847 
	C207.757187,163.049622 204.537140,162.970963 204.179367,162.312408 
	C203.240158,160.583633 203.271255,158.327698 203.151245,155.953690 
z"/>
<path fill="#FFFFFF" opacity="1.000000" stroke="none" 
	d="
M101.026672,156.816772 
	C103.201538,156.303909 105.215065,156.142883 107.228600,155.981842 
	C107.305420,157.855286 107.892197,159.932816 107.256508,161.521088 
	C106.908089,162.391617 103.526917,163.167267 103.190422,162.721024 
	C102.019753,161.168549 101.581871,159.063522 101.026672,156.816772 
z"/>
</svg>