<svg version="1.1" id="Layer_1" xmlns="http://www.w3.org/2000/svg" xmlns:xlink="http://www.w3.org/1999/xlink" x="0px" y="0px"
	 width="100%" viewBox="0 0 300 200" enable-background="new 0 0 300 200" xml:space="preserve">
<path fill="#FFFFFF" opacity="1.000000" stroke="none" 
	d="
M1.000001,96.000000 
	C1.000000,64.979103 1.000000,33.958210 1.222876,2.365330 
	C1.722260,1.593009 1.907009,1.328561 2.000000,1.000000 
	C101.020897,1.000000 200.041794,1.000000 299.636688,1.221551 
	C300.408295,1.721565 300.671387,1.907197 301.000000,2.000000 
	C301.000000,68.284447 301.000000,134.568893 301.000000,200.926666 
	C201.122620,200.926666 101.245186,200.926666 1.000000,200.926666 
	C1.000000,169.646729 1.000000,138.292023 1.364014,106.481293 
	C4.848113,107.522598 8.157439,110.493576 11.037742,110.123695 
	C14.240731,109.712372 18.431120,106.858337 19.688465,103.975845 
	C21.283249,100.319794 20.944578,95.710487 15.337114,93.493584 
	C12.159198,92.237198 9.872944,91.344521 6.875529,93.509865 
	C5.194607,94.724167 2.976228,95.194481 1.000001,96.000000 
M140.392609,92.164864 
	C139.291168,97.947121 138.189743,103.729370 137.088303,109.511627 
	C137.766907,109.691238 138.445511,109.870850 139.124115,110.050461 
	C139.932770,107.821526 140.741409,105.592590 141.604370,103.213982 
	C143.415771,103.083885 145.199234,102.955795 147.748276,102.903885 
	C152.562073,102.307037 152.090729,98.654602 151.964661,95.368095 
	C151.823349,91.684814 148.928879,92.077049 146.476395,92.033607 
	C144.660751,92.001434 142.842422,92.120171 140.392609,92.164864 
M48.824989,103.004883 
	C48.071144,100.464920 48.004959,96.357155 46.438423,95.670044 
	C41.090279,93.324257 40.679729,89.437035 41.053814,84.673286 
	C41.248894,82.189087 41.290504,79.656395 41.039120,77.182419 
	C40.692989,73.775978 41.873444,71.782845 45.008629,70.112473 
	C50.714371,67.072563 50.344536,60.867477 45.257324,57.133171 
	C40.338047,53.522137 36.468788,55.092484 32.276783,57.929092 
	C28.823124,60.266094 28.748554,68.024796 32.583961,69.580452 
	C36.724979,71.260056 37.362644,74.027679 37.089134,77.834953 
	C36.874771,80.818962 36.839691,83.848640 37.097961,86.825668 
	C37.433197,90.689812 36.420429,93.257156 32.620098,95.129662 
	C28.701534,97.060432 28.523329,104.788589 32.365093,106.684883 
	C36.557358,108.754181 37.488174,111.699730 37.093369,115.860161 
	C36.842625,118.502533 36.852180,121.205582 37.091457,123.850075 
	C37.454014,127.857002 36.770142,130.818512 32.417099,132.503159 
	C29.196358,133.749588 28.865107,141.511292 31.570820,143.668945 
	C36.848919,147.877930 39.991798,148.039383 45.759758,144.397766 
	C50.246986,141.564743 50.425125,134.740082 45.685207,132.347946 
	C41.753227,130.363541 40.475513,127.736259 41.046158,123.631004 
	C41.296120,121.832771 41.244076,119.954964 41.058800,118.140915 
	C40.515751,112.823807 41.043556,108.180740 47.101299,106.147675 
	C47.832748,105.902199 48.213150,104.610741 48.824989,103.004883 
M62.023438,114.816826 
	C56.404701,113.085167 55.181419,109.036728 55.781685,103.685410 
	C56.149975,100.402130 55.553146,97.005424 55.976608,93.735664 
	C56.188618,92.098648 57.364178,89.840958 58.714825,89.242355 
	C62.195992,87.699524 63.046814,85.433937 63.043068,81.842888 
	C63.039444,78.372765 61.048954,77.175491 58.730686,75.339073 
	C54.049561,71.630913 50.373539,74.143944 46.511379,76.397285 
	C42.932121,78.485558 42.704327,86.389343 46.462681,87.999275 
	C50.637821,89.787735 51.497684,92.525421 51.167419,96.581230 
	C50.858147,100.379280 51.410809,104.259071 50.963299,108.029198 
	C50.755505,109.779770 49.445824,111.884460 47.988747,112.904869 
	C44.535347,115.323334 42.602978,120.498604 44.508953,123.812508 
	C46.112030,126.599762 53.524807,129.125885 56.249329,127.813400 
	C63.400417,124.368484 63.556644,124.061729 62.023438,114.816826 
M27.456667,74.033157 
	C24.624689,73.231468 17.314701,75.908173 16.182529,78.161415 
	C14.947070,80.620216 16.046600,87.290192 18.234758,87.989006 
	C22.997816,89.510147 23.345480,92.923561 23.020699,96.969963 
	C22.874924,98.786194 22.978733,100.624023 22.999151,102.451714 
	C23.053558,107.321815 24.151871,112.663956 17.411354,114.371269 
	C16.991230,114.477684 16.583254,114.962601 16.336681,115.372025 
	C14.096682,119.091492 16.537029,124.681633 21.489880,127.241600 
	C24.806870,128.956039 33.312275,126.796646 33.690487,123.622292 
	C34.058220,120.535843 33.728867,115.509422 31.868464,114.391136 
	C27.665501,111.864723 26.635151,108.991295 26.975058,104.654320 
	C27.220997,101.516273 27.209562,98.329300 26.971579,95.190025 
	C26.724539,91.931305 28.002743,90.103691 30.810751,88.433281 
	C32.389107,87.494362 33.414036,85.089615 34.009686,83.138123 
	C35.579411,77.995331 31.862513,76.130196 27.456667,74.033157 
M58.178905,97.274033 
	C57.280083,102.642693 58.318207,106.632767 64.077003,109.114456 
	C68.407310,110.980553 71.014923,108.777031 74.054199,106.955627 
	C78.101723,104.530006 78.232544,97.648041 74.344696,95.164162 
	C67.370918,90.708755 66.663300,90.770821 58.178905,97.274033 
M214.012924,102.070740 
	C213.927170,103.127663 213.841400,104.184593 213.755646,105.241524 
	C211.034180,101.639435 209.339188,97.781960 207.347214,94.084480 
	C206.849060,93.159798 205.263672,92.107307 204.416168,92.280319 
	C203.526642,92.461899 202.472076,93.965469 202.284256,95.031326 
	C201.827042,97.625961 201.828018,100.301537 201.648132,102.944763 
	C201.494324,105.204689 201.345657,107.464958 201.194717,109.725075 
	C201.880173,109.808319 202.565613,109.891563 203.251068,109.974808 
	C203.947372,105.605301 204.643661,101.235786 205.452805,96.158180 
	C207.512024,100.493835 208.966125,104.211235 211.039459,107.543343 
	C211.709473,108.620125 214.005692,108.685020 215.558014,109.212799 
	C216.264511,103.577538 216.971024,97.942276 217.677521,92.307014 
	C216.884964,92.208313 216.092422,92.109619 215.299866,92.010918 
	C214.878967,95.088234 214.458054,98.165558 214.012924,102.070740 
M107.058601,104.457611 
	C107.175865,106.210388 107.293129,107.963165 107.410400,109.715935 
	C107.918709,109.730263 108.427017,109.744583 108.935333,109.758904 
	C109.454803,107.640511 109.974281,105.522125 110.651978,102.758522 
	C112.916206,103.160545 115.640724,102.902534 117.084396,104.139458 
	C118.203819,105.098579 117.722839,107.925591 117.953255,109.922295 
	C118.563873,109.913475 119.174484,109.904655 119.785095,109.895836 
	C120.008842,106.883316 119.724052,103.721802 120.554565,100.887047 
	C122.775208,93.307480 122.029655,92.286896 114.293526,91.920738 
	C109.798424,91.707977 107.366898,92.606728 107.885597,97.705635 
	C108.079819,99.614914 107.381210,101.615028 107.058601,104.457611 
M268.386139,101.006554 
	C270.710938,95.705254 270.169434,92.752792 266.409515,92.242157 
	C263.343689,91.825790 259.974731,91.717041 257.127106,92.651299 
	C256.116852,92.982742 256.217255,96.787613 255.866714,99.015633 
	C255.559311,100.969391 255.199295,102.929382 255.107452,104.898056 
	C255.031372,106.528481 255.312454,108.175583 255.435303,109.815292 
	C255.985809,109.862228 256.536316,109.909172 257.086823,109.956108 
	C257.560120,107.761803 258.033417,105.567497 258.481171,103.491516 
	C264.673065,101.410027 266.606964,104.287735 265.777283,110.477676 
	C270.151459,107.752075 268.212311,104.558884 268.386139,101.006554 
M281.957611,103.848221 
	C281.417419,105.213448 280.635284,107.806473 280.374237,107.755028 
	C277.594788,107.207291 274.898010,106.240051 271.672516,105.229614 
	C271.715027,105.632805 271.563721,108.054100 272.051147,108.190338 
	C275.105255,109.043991 278.310791,109.776573 281.446594,109.703949 
	C282.648865,109.676102 284.480255,107.592232 284.833466,106.152824 
	C285.590271,103.069016 285.324310,100.001511 280.821442,99.939194 
	C279.853546,99.925804 278.621796,99.773750 277.991058,99.177948 
	C277.079895,98.317284 276.179932,97.013741 276.124359,95.858322 
	C276.096161,95.271790 278.058655,93.926537 278.890564,94.090996 
	C281.035706,94.515045 283.052429,95.588890 286.685486,97.019379 
	C285.351288,94.837685 284.805573,92.751419 283.673553,92.359795 
	C281.727661,91.686577 279.045624,91.340637 277.354370,92.199661 
	C275.358215,93.213539 273.456818,95.455612 272.794250,97.566879 
	C272.509033,98.475777 275.271912,100.652206 276.968170,101.769966 
	C278.241211,102.608841 280.022461,102.676476 281.957611,103.848221 
M177.621063,109.627106 
	C182.102264,107.181419 181.607010,102.753235 181.929947,98.684486 
	C182.183075,95.495422 181.876862,92.613213 177.794144,91.995796 
	C171.636993,91.064667 168.529572,92.487198 167.342987,96.926483 
	C164.592178,107.217880 166.870834,110.335274 177.621063,109.627106 
M198.411026,100.911751 
	C198.547638,98.017494 198.684235,95.123230 198.820831,92.228973 
	C198.146698,92.178047 197.472565,92.127121 196.798431,92.076195 
	C196.240051,96.191246 195.491486,100.291985 195.180222,104.425652 
	C194.904449,108.087639 192.613190,108.225258 189.940964,108.008675 
	C186.751068,107.750137 186.983002,105.611191 187.286911,103.273041 
	C187.759949,99.633698 188.043503,95.969727 188.407364,92.316193 
	C187.901047,92.180168 187.394730,92.044144 186.888412,91.908119 
	C186.305969,93.395775 185.470703,94.839828 185.204712,96.382057 
	C184.867966,98.334656 185.122360,100.381622 184.897720,102.362480 
	C184.106689,109.337639 184.856537,110.216042 191.745529,110.025574 
	C197.059006,109.878677 197.678787,109.083466 198.411026,100.911751 
M96.504005,110.028442 
	C102.882133,109.922882 103.371986,109.564819 104.417198,102.839851 
	C102.273735,105.156342 101.215973,107.277779 99.714226,107.661461 
	C98.040123,108.089180 94.290230,106.811958 94.314194,106.491455 
	C94.614838,102.470200 94.224121,97.512466 96.444603,94.753830 
	C98.959290,91.629662 101.989578,94.953178 103.477417,98.168839 
	C106.077179,95.133224 105.429153,92.830154 102.149452,92.062820 
	C95.556892,90.520401 92.361282,92.582664 91.308807,99.233505 
	C90.998856,101.192223 91.123093,103.216286 90.979256,105.205399 
	C90.735680,108.573708 92.211304,110.226501 96.504005,110.028442 
M232.178452,109.815819 
	C235.200989,104.157806 238.223541,98.499794 241.246094,92.841782 
	C240.535431,92.448517 239.824768,92.055252 239.114105,91.661987 
	C236.934219,96.019341 234.754318,100.376701 232.050613,105.781090 
	C230.528824,100.218353 229.389511,96.053795 228.250214,91.889229 
	C227.582764,92.087799 226.915298,92.286369 226.247833,92.484940 
	C227.346283,98.438835 227.507233,104.625847 232.178452,109.815819 
M127.914993,102.046524 
	C127.914993,104.597900 127.914993,107.149277 127.914993,109.700653 
	C128.147552,109.783585 128.380127,109.866516 128.612686,109.949448 
	C131.350861,104.054558 134.089050,98.159668 136.827225,92.264778 
	C136.563141,92.026871 136.299042,91.788963 136.034943,91.551064 
	C133.937546,94.227310 131.840164,96.903564 129.764404,99.552208 
	C128.226791,96.856613 126.828354,94.404991 125.429916,91.953362 
	C124.838020,92.235695 124.246124,92.518028 123.654236,92.800362 
	C124.991096,95.626289 126.327950,98.452225 127.914993,102.046524 
M245.762756,94.673767 
	C244.484573,92.327942 243.319794,92.580574 242.941925,95.054756 
	C242.246826,99.605721 241.821381,104.199425 241.364853,108.783409 
	C241.304001,109.394524 241.717224,110.052841 241.910904,110.689293 
	C242.438950,110.468933 242.966995,110.248566 243.495056,110.028206 
	C244.158981,107.450317 244.822906,104.872437 245.504517,102.225883 
	C247.946869,101.955360 250.242935,101.701042 252.538986,101.446724 
	C252.540436,100.955544 252.541885,100.464363 252.543335,99.973183 
	C251.057159,99.718346 249.561707,99.207527 248.086685,99.260895 
	C244.815796,99.379204 245.077896,97.596207 245.762756,94.673767 
M288.951538,100.223892 
	C288.713776,103.436111 286.477997,106.955063 290.505951,110.816032 
	C290.887604,107.170250 291.138184,104.776642 291.391296,102.358765 
	C294.110931,101.962051 296.502625,101.613174 298.894348,101.264297 
	C298.874451,100.762154 298.854553,100.260017 298.834656,99.757874 
	C296.691742,99.429916 294.548828,99.101959 292.214294,98.744667 
	C292.214294,96.777008 292.214294,95.046417 292.214294,93.065010 
	C287.281952,93.403313 289.811005,97.229782 288.951538,100.223892 
M158.023758,95.879181 
	C157.709137,100.487778 157.394501,105.096375 157.079880,109.704971 
	C157.755157,109.774048 158.430420,109.843117 159.105698,109.912193 
	C161.454773,104.588707 158.189468,97.474991 163.654297,93.186317 
	C160.562790,93.186317 157.314911,93.186317 153.583572,93.186317 
	C155.344925,93.953667 156.620850,94.509521 158.023758,95.879181 
M222.929886,103.353203 
	C223.185883,99.654022 223.441895,95.954842 223.697906,92.255661 
	C222.934814,92.199837 222.171738,92.144020 221.408646,92.088203 
	C220.756531,97.930267 220.104401,103.772339 219.452271,109.614410 
	C220.106415,109.785522 220.760559,109.956635 221.414719,110.127747 
	C221.909760,108.161087 222.404800,106.194435 222.929886,103.353203 
z"/>
<path fill="#BABABA" opacity="1.000000" stroke="none" 
	d="
M1.000001,96.454109 
	C2.976228,95.194481 5.194607,94.724167 6.875529,93.509865 
	C9.872944,91.344521 12.159198,92.237198 15.337114,93.493584 
	C20.944578,95.710487 21.283249,100.319794 19.688465,103.975845 
	C18.431120,106.858337 14.240731,109.712372 11.037742,110.123695 
	C8.157439,110.493576 4.848113,107.522598 1.364014,106.012634 
	C1.000000,102.969406 1.000000,99.938812 1.000001,96.454109 
z"/>
<path fill="#F8F8F8" opacity="1.000000" stroke="none" 
	d="
M301.000000,1.500000 
	C300.671387,1.907197 300.408295,1.721565 300.105347,1.221551 
	C300.333344,1.000000 300.666656,1.000000 301.000000,1.500000 
z"/>
<path fill="#F8F8F8" opacity="1.000000" stroke="none" 
	d="
M1.500000,1.000000 
	C1.907009,1.328561 1.722260,1.593009 1.222876,1.896672 
	C1.000000,1.666667 1.000000,1.333333 1.500000,1.000000 
z"/>
<path fill="#BABABA" opacity="1.000000" stroke="none" 
	d="
M48.790619,103.404480 
	C48.213150,104.610741 47.832748,105.902199 47.101299,106.147675 
	C41.043556,108.180740 40.515751,112.823807 41.058800,118.140915 
	C41.244076,119.954964 41.296120,121.832771 41.046158,123.631004 
	C40.475513,127.736259 41.753227,130.363541 45.685207,132.347946 
	C50.425125,134.740082 50.246986,141.564743 45.759758,144.397766 
	C39.991798,148.039383 36.848919,147.877930 31.570820,143.668945 
	C28.865107,141.511292 29.196358,133.749588 32.417099,132.503159 
	C36.770142,130.818512 37.454014,127.857002 37.091457,123.850075 
	C36.852180,121.205582 36.842625,118.502533 37.093369,115.860161 
	C37.488174,111.699730 36.557358,108.754181 32.365093,106.684883 
	C28.523329,104.788589 28.701534,97.060432 32.620098,95.129662 
	C36.420429,93.257156 37.433197,90.689812 37.097961,86.825668 
	C36.839691,83.848640 36.874771,80.818962 37.089134,77.834953 
	C37.362644,74.027679 36.724979,71.260056 32.583961,69.580452 
	C28.748554,68.024796 28.823124,60.266094 32.276783,57.929092 
	C36.468788,55.092484 40.338047,53.522137 45.257324,57.133171 
	C50.344536,60.867477 50.714371,67.072563 45.008629,70.112473 
	C41.873444,71.782845 40.692989,73.775978 41.039120,77.182419 
	C41.290504,79.656395 41.248894,82.189087 41.053814,84.673286 
	C40.679729,89.437035 41.090279,93.324257 46.438423,95.670044 
	C48.004959,96.357155 48.071144,100.464920 48.790619,103.404480 
z"/>
<path fill="#BBBBBB" opacity="1.000000" stroke="none" 
	d="
M62.289543,115.123703 
	C63.556644,124.061729 63.400417,124.368484 56.249329,127.813400 
	C53.524807,129.125885 46.112030,126.599762 44.508953,123.812508 
	C42.602978,120.498604 44.535347,115.323334 47.988747,112.904869 
	C49.445824,111.884460 50.755505,109.779770 50.963299,108.029198 
	C51.410809,104.259071 50.858147,100.379280 51.167419,96.581230 
	C51.497684,92.525421 50.637821,89.787735 46.462681,87.999275 
	C42.704327,86.389343 42.932121,78.485558 46.511379,76.397285 
	C50.373539,74.143944 54.049561,71.630913 58.730686,75.339073 
	C61.048954,77.175491 63.039444,78.372765 63.043068,81.842888 
	C63.046814,85.433937 62.195992,87.699524 58.714825,89.242355 
	C57.364178,89.840958 56.188618,92.098648 55.976608,93.735664 
	C55.553146,97.005424 56.149975,100.402130 55.781685,103.685410 
	C55.181419,109.036728 56.404701,113.085167 62.289543,115.123703 
z"/>
<path fill="#B9B9B9" opacity="1.000000" stroke="none" 
	d="
M27.768761,74.244919 
	C31.862513,76.130196 35.579411,77.995331 34.009686,83.138123 
	C33.414036,85.089615 32.389107,87.494362 30.810751,88.433281 
	C28.002743,90.103691 26.724539,91.931305 26.971579,95.190025 
	C27.209562,98.329300 27.220997,101.516273 26.975058,104.654320 
	C26.635151,108.991295 27.665501,111.864723 31.868464,114.391136 
	C33.728867,115.509422 34.058220,120.535843 33.690487,123.622292 
	C33.312275,126.796646 24.806870,128.956039 21.489880,127.241600 
	C16.537029,124.681633 14.096682,119.091492 16.336681,115.372025 
	C16.583254,114.962601 16.991230,114.477684 17.411354,114.371269 
	C24.151871,112.663956 23.053558,107.321815 22.999151,102.451714 
	C22.978733,100.624023 22.874924,98.786194 23.020699,96.969963 
	C23.345480,92.923561 22.997816,89.510147 18.234758,87.989006 
	C16.046600,87.290192 14.947070,80.620216 16.182529,78.161415 
	C17.314701,75.908173 24.624689,73.231468 27.768761,74.244919 
z"/>
<path fill="#BABABA" opacity="1.000000" stroke="none" 
	d="
M58.351921,96.912872 
	C66.663300,90.770821 67.370918,90.708755 74.344696,95.164162 
	C78.232544,97.648041 78.101723,104.530006 74.054199,106.955627 
	C71.014923,108.777031 68.407310,110.980553 64.077003,109.114456 
	C58.318207,106.632767 57.280083,102.642693 58.351921,96.912872 
z"/>
<path fill="#C1C1C1" opacity="1.000000" stroke="none" 
	d="
M214.025040,101.656807 
	C214.458054,98.165558 214.878967,95.088234 215.299866,92.010918 
	C216.092422,92.109619 216.884964,92.208313 217.677521,92.307014 
	C216.971024,97.942276 216.264511,103.577538 215.558014,109.212799 
	C214.005692,108.685020 211.709473,108.620125 211.039459,107.543343 
	C208.966125,104.211235 207.512024,100.493835 205.452805,96.158180 
	C204.643661,101.235786 203.947372,105.605301 203.251068,109.974808 
	C202.565613,109.891563 201.880173,109.808319 201.194717,109.725075 
	C201.345657,107.464958 201.494324,105.204689 201.648132,102.944763 
	C201.828018,100.301537 201.827042,97.625961 202.284256,95.031326 
	C202.472076,93.965469 203.526642,92.461899 204.416168,92.280319 
	C205.263672,92.107307 206.849060,93.159798 207.347214,94.084480 
	C209.339188,97.781960 211.034180,101.639435 213.755646,105.241524 
	C213.841400,104.184593 213.927170,103.127663 214.025040,101.656807 
z"/>
<path fill="#C1C1C1" opacity="1.000000" stroke="none" 
	d="
M107.074142,104.015671 
	C107.381210,101.615028 108.079819,99.614914 107.885597,97.705635 
	C107.366898,92.606728 109.798424,91.707977 114.293526,91.920738 
	C122.029655,92.286896 122.775208,93.307480 120.554565,100.887047 
	C119.724052,103.721802 120.008842,106.883316 119.785095,109.895836 
	C119.174484,109.904655 118.563873,109.913475 117.953255,109.922295 
	C117.722839,107.925591 118.203819,105.098579 117.084396,104.139458 
	C115.640724,102.902534 112.916206,103.160545 110.651978,102.758522 
	C109.974281,105.522125 109.454803,107.640511 108.935333,109.758904 
	C108.427017,109.744583 107.918709,109.730263 107.410400,109.715935 
	C107.293129,107.963165 107.175865,106.210388 107.074142,104.015671 
M112.789253,94.033249 
	C111.755119,96.056770 110.720978,98.080299 109.294815,100.870903 
	C114.024979,100.767014 118.150124,102.403214 118.814125,97.194092 
	C119.319763,93.227310 115.932098,94.169380 112.789253,94.033249 
z"/>
<path fill="#C1C1C1" opacity="1.000000" stroke="none" 
	d="
M268.215790,101.368835 
	C268.212311,104.558884 270.151459,107.752075 265.777283,110.477676 
	C266.606964,104.287735 264.673065,101.410027 258.481171,103.491516 
	C258.033417,105.567497 257.560120,107.761803 257.086823,109.956108 
	C256.536316,109.909172 255.985809,109.862228 255.435303,109.815292 
	C255.312454,108.175583 255.031372,106.528481 255.107452,104.898056 
	C255.199295,102.929382 255.559311,100.969391 255.866714,99.015633 
	C256.217255,96.787613 256.116852,92.982742 257.127106,92.651299 
	C259.974731,91.717041 263.343689,91.825790 266.409515,92.242157 
	C270.169434,92.752792 270.710938,95.705254 268.215790,101.368835 
M262.562927,93.986252 
	C257.283325,93.762772 259.066895,97.779495 258.161621,100.880890 
	C261.680603,100.513306 265.513458,102.864960 266.815399,97.851974 
	C267.526031,95.115585 266.332672,93.705795 262.562927,93.986252 
z"/>
<path fill="#C1C1C1" opacity="1.000000" stroke="none" 
	d="
M281.767517,103.467842 
	C280.022461,102.676476 278.241211,102.608841 276.968170,101.769966 
	C275.271912,100.652206 272.509033,98.475777 272.794250,97.566879 
	C273.456818,95.455612 275.358215,93.213539 277.354370,92.199661 
	C279.045624,91.340637 281.727661,91.686577 283.673553,92.359795 
	C284.805573,92.751419 285.351288,94.837685 286.685486,97.019379 
	C283.052429,95.588890 281.035706,94.515045 278.890564,94.090996 
	C278.058655,93.926537 276.096161,95.271790 276.124359,95.858322 
	C276.179932,97.013741 277.079895,98.317284 277.991058,99.177948 
	C278.621796,99.773750 279.853546,99.925804 280.821442,99.939194 
	C285.324310,100.001511 285.590271,103.069016 284.833466,106.152824 
	C284.480255,107.592232 282.648865,109.676102 281.446594,109.703949 
	C278.310791,109.776573 275.105255,109.043991 272.051147,108.190338 
	C271.563721,108.054100 271.715027,105.632805 271.672516,105.229614 
	C274.898010,106.240051 277.594788,107.207291 280.374237,107.755028 
	C280.635284,107.806473 281.417419,105.213448 281.767517,103.467842 
z"/>
<path fill="#C1C1C1" opacity="1.000000" stroke="none" 
	d="
M177.218765,109.757065 
	C166.870834,110.335274 164.592178,107.217880 167.342987,96.926483 
	C168.529572,92.487198 171.636993,91.064667 177.794144,91.995796 
	C181.876862,92.613213 182.183075,95.495422 181.929947,98.684486 
	C181.607010,102.753235 182.102264,107.181419 177.218765,109.757065 
M169.801132,102.862152 
	C169.127457,105.329445 168.885193,107.660461 172.339157,108.001984 
	C175.075562,108.272552 177.871841,108.338142 178.308929,104.556961 
	C178.593323,102.096626 179.129349,99.587608 178.865570,97.175522 
	C178.739502,96.022484 177.165405,94.363739 175.990158,94.106003 
	C171.247620,93.065979 170.184052,94.584206 169.801132,102.862152 
z"/>
<path fill="#C1C1C1" opacity="1.000000" stroke="none" 
	d="
M198.298340,101.337173 
	C197.678787,109.083466 197.059006,109.878677 191.745529,110.025574 
	C184.856537,110.216042 184.106689,109.337639 184.897720,102.362480 
	C185.122360,100.381622 184.867966,98.334656 185.204712,96.382057 
	C185.470703,94.839828 186.305969,93.395775 186.888412,91.908119 
	C187.394730,92.044144 187.901047,92.180168 188.407364,92.316193 
	C188.043503,95.969727 187.759949,99.633698 187.286911,103.273041 
	C186.983002,105.611191 186.751068,107.750137 189.940964,108.008675 
	C192.613190,108.225258 194.904449,108.087639 195.180222,104.425652 
	C195.491486,100.291985 196.240051,96.191246 196.798431,92.076195 
	C197.472565,92.127121 198.146698,92.178047 198.820831,92.228973 
	C198.684235,95.123230 198.547638,98.017494 198.298340,101.337173 
z"/>
<path fill="#C1C1C1" opacity="1.000000" stroke="none" 
	d="
M96.069717,110.025993 
	C92.211304,110.226501 90.735680,108.573708 90.979256,105.205399 
	C91.123093,103.216286 90.998856,101.192223 91.308807,99.233505 
	C92.361282,92.582664 95.556892,90.520401 102.149452,92.062820 
	C105.429153,92.830154 106.077179,95.133224 103.477417,98.168839 
	C101.989578,94.953178 98.959290,91.629662 96.444603,94.753830 
	C94.224121,97.512466 94.614838,102.470200 94.314194,106.491455 
	C94.290230,106.811958 98.040123,108.089180 99.714226,107.661461 
	C101.215973,107.277779 102.273735,105.156342 104.417198,102.839851 
	C103.371986,109.564819 102.882133,109.922882 96.069717,110.025993 
z"/>
<path fill="#C1C1C1" opacity="1.000000" stroke="none" 
	d="
M231.805023,109.846436 
	C227.507233,104.625847 227.346283,98.438835 226.247833,92.484940 
	C226.915298,92.286369 227.582764,92.087799 228.250214,91.889229 
	C229.389511,96.053795 230.528824,100.218353 232.050613,105.781090 
	C234.754318,100.376701 236.934219,96.019341 239.114105,91.661987 
	C239.824768,92.055252 240.535431,92.448517 241.246094,92.841782 
	C238.223541,98.499794 235.200989,104.157806 231.805023,109.846436 
z"/>
<path fill="#C1C1C1" opacity="1.000000" stroke="none" 
	d="
M127.789902,101.662338 
	C126.327950,98.452225 124.991096,95.626289 123.654236,92.800362 
	C124.246124,92.518028 124.838020,92.235695 125.429916,91.953362 
	C126.828354,94.404991 128.226791,96.856613 129.764404,99.552208 
	C131.840164,96.903564 133.937546,94.227310 136.034943,91.551064 
	C136.299042,91.788963 136.563141,92.026871 136.827225,92.264778 
	C134.089050,98.159668 131.350861,104.054558 128.612686,109.949448 
	C128.380127,109.866516 128.147552,109.783585 127.914993,109.700653 
	C127.914993,107.149277 127.914993,104.597900 127.789902,101.662338 
z"/>
<path fill="#C1C1C1" opacity="1.000000" stroke="none" 
	d="
M245.755829,95.057693 
	C245.077896,97.596207 244.815796,99.379204 248.086685,99.260895 
	C249.561707,99.207527 251.057159,99.718346 252.543335,99.973183 
	C252.541885,100.464363 252.540436,100.955544 252.538986,101.446724 
	C250.242935,101.701042 247.946869,101.955360 245.504517,102.225883 
	C244.822906,104.872437 244.158981,107.450317 243.495056,110.028206 
	C242.966995,110.248566 242.438950,110.468933 241.910904,110.689293 
	C241.717224,110.052841 241.304001,109.394524 241.364853,108.783409 
	C241.821381,104.199425 242.246826,99.605721 242.941925,95.054756 
	C243.319794,92.580574 244.484573,92.327942 245.755829,95.057693 
z"/>
<path fill="#C1C1C1" opacity="1.000000" stroke="none" 
	d="
M288.972076,99.782784 
	C289.811005,97.229782 287.281952,93.403313 292.214294,93.065010 
	C292.214294,95.046417 292.214294,96.777008 292.214294,98.744667 
	C294.548828,99.101959 296.691742,99.429916 298.834656,99.757874 
	C298.854553,100.260017 298.874451,100.762154 298.894348,101.264297 
	C296.502625,101.613174 294.110931,101.962051 291.391296,102.358765 
	C291.138184,104.776642 290.887604,107.170250 290.505951,110.816032 
	C286.477997,106.955063 288.713776,103.436111 288.972076,99.782784 
z"/>
<path fill="#C1C1C1" opacity="1.000000" stroke="none" 
	d="
M157.960266,95.472282 
	C156.620850,94.509521 155.344925,93.953667 153.583572,93.186317 
	C157.314911,93.186317 160.562790,93.186317 163.654297,93.186317 
	C158.189468,97.474991 161.454773,104.588707 159.105698,109.912193 
	C158.430420,109.843117 157.755157,109.774048 157.079880,109.704971 
	C157.394501,105.096375 157.709137,100.487778 157.960266,95.472282 
z"/>
<path fill="#BBBBBB" opacity="1.000000" stroke="none" 
	d="
M146.982697,102.827705 
	C145.199234,102.955795 143.415771,103.083885 141.604370,103.213982 
	C140.741409,105.592590 139.932770,107.821526 139.124115,110.050461 
	C138.445511,109.870850 137.766907,109.691238 137.088303,109.511627 
	C138.189743,103.729370 139.291168,97.947121 140.819351,92.393463 
	C141.494537,93.061859 141.742996,93.501648 141.746277,94.241989 
	C141.343872,96.741066 141.186646,98.939598 141.026291,101.181671 
	C143.404922,101.181671 145.197342,101.181671 146.990692,101.456581 
	C146.988663,102.096893 146.985672,102.462303 146.982697,102.827705 
z"/>
<path fill="#C1C1C1" opacity="1.000000" stroke="none" 
	d="
M222.914871,103.790489 
	C222.404800,106.194435 221.909760,108.161087 221.414719,110.127747 
	C220.760559,109.956635 220.106415,109.785522 219.452271,109.614410 
	C220.104401,103.772339 220.756531,97.930267 221.408646,92.088203 
	C222.171738,92.144020 222.934814,92.199837 223.697906,92.255661 
	C223.441895,95.954842 223.185883,99.654022 222.914871,103.790489 
z"/>
<path fill="#C1C1C1" opacity="1.000000" stroke="none" 
	d="
M147.365479,102.865799 
	C146.985672,102.462303 146.988663,102.096893 147.333832,101.248344 
	C148.220154,98.746300 148.764267,96.727394 149.515121,93.941437 
	C146.226807,93.941437 144.109131,93.941437 141.991455,93.941437 
	C141.742996,93.501648 141.494537,93.061859 141.135696,92.396881 
	C142.842422,92.120171 144.660751,92.001434 146.476395,92.033607 
	C148.928879,92.077049 151.823349,91.684814 151.964661,95.368095 
	C152.090729,98.654602 152.562073,102.307037 147.365479,102.865799 
z"/>
<path fill="#FFFFFF" opacity="1.000000" stroke="none" 
	d="
M113.208549,94.013397 
	C115.932098,94.169380 119.319763,93.227310 118.814125,97.194092 
	C118.150124,102.403214 114.024979,100.767014 109.294815,100.870903 
	C110.720978,98.080299 111.755119,96.056770 113.208549,94.013397 
z"/>
<path fill="#FFFFFF" opacity="1.000000" stroke="none" 
	d="
M262.988617,93.986862 
	C266.332672,93.705795 267.526031,95.115585 266.815399,97.851974 
	C265.513458,102.864960 261.680603,100.513306 258.161621,100.880890 
	C259.066895,97.779495 257.283325,93.762772 262.988617,93.986862 
z"/>
<path fill="#FFFFFF" opacity="1.000000" stroke="none" 
	d="
M169.848602,102.447411 
	C170.184052,94.584206 171.247620,93.065979 175.990158,94.106003 
	C177.165405,94.363739 178.739502,96.022484 178.865570,97.175522 
	C179.129349,99.587608 178.593323,102.096626 178.308929,104.556961 
	C177.871841,108.338142 175.075562,108.272552 172.339157,108.001984 
	C168.885193,107.660461 169.127457,105.329445 169.848602,102.447411 
z"/>
<path fill="#FFFFFF" opacity="1.000000" stroke="none" 
	d="
M141.746277,94.241989 
	C144.109131,93.941437 146.226807,93.941437 149.515121,93.941437 
	C148.764267,96.727394 148.220154,98.746300 147.332886,100.973434 
	C145.197342,101.181671 143.404922,101.181671 141.026291,101.181671 
	C141.186646,98.939598 141.343872,96.741066 141.746277,94.241989 
z"/>
</svg>