<svg version="1.1" id="Layer_1" xmlns="http://www.w3.org/2000/svg" xmlns:xlink="http://www.w3.org/1999/xlink" x="0px" y="0px"
	 width="100%" viewBox="0 0 300 200" enable-background="new 0 0 300 200" xml:space="preserve">
<path fill="#FFFFFF" opacity="1.000000" stroke="none" 
	d="
M1.000000,108.000000 
	C1.000000,72.979103 1.000000,37.958210 1.222842,2.365286 
	C1.722152,1.592923 1.906924,1.328503 2.000000,1.000000 
	C101.020897,1.000000 200.041794,1.000000 299.636719,1.221506 
	C300.408356,1.721469 300.671448,1.907132 301.000000,2.000000 
	C301.000000,30.354227 301.000000,58.708454 300.728729,87.557175 
	C300.279358,88.087608 300.101257,88.123558 299.503845,88.107185 
	C297.657623,88.135880 296.230774,88.216881 294.137512,88.335716 
	C294.137512,92.707336 294.137512,96.705742 294.137512,102.032677 
	C288.158508,96.651764 283.243439,92.228363 277.518402,87.076035 
	C277.518402,96.767456 277.518402,105.126610 277.518402,113.758995 
	C279.522430,113.758995 281.266266,113.758995 283.707764,113.758995 
	C283.707764,109.234840 283.707764,104.908966 283.707764,99.935127 
	C289.649811,105.074814 294.850098,109.572899 300.291809,114.107147 
	C300.533264,114.143303 301.000000,114.000000 301.000000,114.000000 
	C301.000000,142.972870 301.000000,171.945740 301.000000,200.959305 
	C201.120697,200.959305 101.241379,200.959305 1.000000,200.959305 
	C1.000000,174.313538 1.000000,147.625427 1.366650,120.322342 
	C2.846451,121.848938 4.014425,123.964012 5.064194,126.136223 
	C14.560913,145.787094 38.763840,152.184113 56.706566,139.769638 
	C73.088524,128.435043 76.489281,106.582718 64.581390,89.967743 
	C63.349743,88.249237 61.881802,85.775032 62.237724,83.994049 
	C64.528748,72.529999 62.548210,68.348122 51.667389,63.447777 
	C56.899498,58.964802 56.899498,58.964802 55.990974,56.000301 
	C51.060947,59.262432 45.978630,62.112549 41.521645,65.732567 
	C37.784630,68.767822 35.025585,68.303780 31.478823,65.621414 
	C26.905809,62.162903 21.945076,59.217052 17.151323,56.050411 
	C16.664610,56.539627 16.177898,57.028843 15.691186,57.518059 
	C17.603029,59.560329 19.514872,61.602604 21.396851,63.612972 
	C10.660028,68.011223 8.480247,72.606613 11.442381,84.653282 
	C11.619442,85.373367 11.740042,86.527824 11.341774,86.905899 
	C5.268954,92.670837 3.438169,100.479431 1.000000,108.000000 
M238.026169,109.347679 
	C244.028229,115.226845 251.038879,116.104324 256.730438,111.688782 
	C262.461578,107.242523 263.886719,99.932777 260.197418,93.906044 
	C256.227783,87.421356 248.563553,85.351669 242.061752,89.008598 
	C234.966553,92.999298 233.231766,100.626160 238.026169,109.347679 
M117.731529,102.118561 
	C118.052460,99.618019 117.647118,97.866211 114.436516,98.080521 
	C111.485596,98.277504 108.511177,98.122391 105.356430,98.122391 
	C105.356430,100.296341 105.356430,101.956886 105.356430,103.577553 
	C107.373978,103.822830 108.945007,104.013824 111.086433,104.274162 
	C108.778770,107.756905 106.208382,109.548737 102.507858,108.777847 
	C98.899490,108.026154 95.956970,105.537575 96.332748,101.996368 
	C96.633415,99.162949 98.589279,95.718353 100.899475,94.088753 
	C103.644791,92.152214 104.472389,90.622131 103.322090,87.732323 
	C94.517296,88.386719 88.724716,95.692909 90.575462,103.687897 
	C92.065895,110.126366 97.293251,114.584984 103.633667,114.825745 
	C110.253723,115.077133 115.281845,110.790039 117.731529,102.118561 
M135.958664,114.054329 
	C137.515152,114.054329 139.071640,114.054329 141.420120,114.054329 
	C139.108963,110.521393 137.332809,107.806274 135.497070,105.000084 
	C136.565460,103.814926 137.524963,102.908890 138.299088,101.865334 
	C142.392044,96.347839 139.672989,89.127396 132.893616,88.238625 
	C128.857635,87.709518 124.695625,88.141685 120.377251,88.141685 
	C120.377251,96.952515 120.377251,105.311050 120.377251,113.756279 
	C122.313347,113.756279 123.902100,113.756279 126.026314,113.756279 
	C126.026314,106.766678 126.026314,100.029915 126.026314,91.564316 
	C129.366974,93.251099 132.656708,93.811943 133.616547,95.613861 
	C135.998672,100.085915 131.335510,101.565414 128.277298,103.890007 
	C130.700760,107.372749 132.954849,110.612083 135.958664,114.054329 
M173.706665,105.537292 
	C174.395508,100.783470 178.107559,103.113655 180.423737,102.966873 
	C184.109177,102.733299 184.689117,101.393188 183.108521,97.958572 
	C180.149475,97.958572 177.215103,97.958572 174.337891,97.958572 
	C173.042938,94.209747 173.851807,92.410255 177.700195,92.695190 
	C179.024918,92.793274 180.366074,92.650993 181.694794,92.717247 
	C185.156799,92.889885 185.547302,91.142853 184.583008,88.307037 
	C178.893661,88.307037 173.340286,88.307037 167.570618,88.307037 
	C167.570618,96.899071 167.570618,105.141777 167.570618,113.674568 
	C173.744324,113.674568 179.630203,113.674568 185.442932,113.674568 
	C186.843842,109.798378 185.008652,109.380157 181.929550,109.042633 
	C179.144424,108.737328 175.062607,111.581009 173.706665,105.537292 
M151.227646,93.657768 
	C153.953827,93.341019 156.677856,92.789169 159.406708,92.764153 
	C163.232346,92.729073 163.512497,91.069862 162.294571,88.371582 
	C156.389542,88.371582 150.822601,88.371582 145.317123,88.371582 
	C145.317123,97.034332 145.317123,105.280472 145.317123,113.977158 
	C150.598633,113.977158 155.566879,114.130775 160.511780,113.859146 
	C161.619720,113.798294 162.645844,112.248215 163.709641,111.383743 
	C162.671967,110.651222 161.684219,109.390793 160.587067,109.287003 
	C157.523148,108.997147 154.413910,109.186180 151.370117,109.186180 
	C151.370117,106.655998 151.370117,104.931709 151.370117,102.815804 
	C154.387268,102.815804 157.048782,102.980095 159.665390,102.709763 
	C160.394302,102.634453 161.499680,101.276718 161.504532,100.501495 
	C161.509430,99.722282 160.461548,98.410049 159.692505,98.258682 
	C157.927139,97.911209 156.040482,98.000015 154.221756,98.145470 
	C151.448380,98.367264 150.672287,97.014763 151.227646,93.657768 
M200.027618,94.482185 
	C198.889130,95.805252 197.750641,97.128326 195.767654,99.432816 
	C195.767654,94.871582 195.767654,91.642891 195.767654,88.412697 
	C193.579666,88.412697 191.889740,88.412697 190.291412,88.412697 
	C190.291412,97.100632 190.291412,105.347885 190.291412,113.673737 
	C192.216461,113.673737 193.798477,113.673737 195.931030,113.673737 
	C195.931030,109.885262 195.931030,106.362503 195.931030,101.557053 
	C198.770172,105.216858 200.791168,107.783035 202.769745,110.381508 
	C205.890991,114.480606 205.878937,114.489784 211.682220,113.199852 
	C208.284714,108.955894 204.996414,104.848343 201.543839,100.535583 
	C204.732849,96.504753 207.781219,92.651695 210.982132,88.605843 
	C204.986069,86.280083 203.019516,90.635635 200.027618,94.482185 
M230.078262,113.845314 
	C231.716309,112.898819 233.354355,111.952316 234.991867,111.006134 
	C233.152252,107.897224 231.570831,106.639343 228.286880,108.337067 
	C224.969604,110.052017 221.140884,108.944382 219.632233,105.742241 
	C218.485962,103.309273 218.527344,99.549446 219.590622,97.035828 
	C220.938721,93.848907 224.438797,92.192635 228.004913,93.755844 
	C231.346115,95.220459 233.276077,94.391441 234.689194,91.331245 
	C229.588333,86.482971 223.528427,85.911156 218.001984,89.744339 
	C212.506470,93.556061 210.524246,100.440643 213.164505,106.545723 
	C215.797424,112.633804 222.205750,115.601555 230.078262,113.845314 
M269.474396,88.039764 
	C268.344360,88.833801 266.259827,89.596916 266.232971,90.426689 
	C265.982086,98.171638 266.084320,105.928032 266.084320,113.739388 
	C268.347473,113.739388 269.933136,113.739388 271.988861,113.739388 
	C271.988861,105.697128 272.030243,97.925568 271.918304,90.156219 
	C271.908264,89.457970 270.906952,88.773994 269.474396,88.039764 
z"/>
<path fill="#9F9F9F" opacity="1.000000" stroke="none" 
	d="
M1.000000,108.437500 
	C3.438169,100.479431 5.268954,92.670837 11.341774,86.905899 
	C11.740042,86.527824 11.619442,85.373367 11.442381,84.653282 
	C8.480247,72.606613 10.660028,68.011223 21.396851,63.612972 
	C19.514872,61.602604 17.603029,59.560329 15.691186,57.518059 
	C16.177898,57.028843 16.664610,56.539627 17.151323,56.050411 
	C21.945076,59.217052 26.905809,62.162903 31.478823,65.621414 
	C35.025585,68.303780 37.784630,68.767822 41.521645,65.732567 
	C45.978630,62.112549 51.060947,59.262432 55.990974,56.000301 
	C56.899498,58.964802 56.899498,58.964802 51.667389,63.447777 
	C62.548210,68.348122 64.528748,72.529999 62.237724,83.994049 
	C61.881802,85.775032 63.349743,88.249237 64.581390,89.967743 
	C76.489281,106.582718 73.088524,128.435043 56.706566,139.769638 
	C38.763840,152.184113 14.560913,145.787094 5.064194,126.136223 
	C4.014425,123.964012 2.846451,121.848938 1.366650,119.853683 
	C1.000000,119.555557 1.000000,119.111107 1.335318,118.275131 
	C1.447092,116.922401 1.223547,115.961197 1.000001,115.000000 
	C1.000000,112.958336 1.000000,110.916664 1.000000,108.437500 
M34.713921,132.111771 
	C25.662598,131.338226 19.367962,126.500656 16.263588,118.227425 
	C12.396126,107.920555 16.019688,99.395744 24.104362,92.700882 
	C20.836714,91.572479 17.759289,90.509766 14.555605,89.403450 
	C2.759221,99.380920 2.213664,120.085258 13.622736,132.239883 
	C26.201553,145.640701 46.690655,145.659225 59.387619,132.281265 
	C71.012772,120.032600 70.538643,99.779510 58.430904,89.368233 
	C55.572781,90.559792 52.752949,91.735390 49.877216,92.934288 
	C58.685913,104.076385 60.462898,110.982986 56.352516,119.379654 
	C52.170315,127.923042 45.364235,132.506271 34.713921,132.111771 
M46.472557,95.917053 
	C45.032078,95.197922 43.591599,94.478783 41.985764,93.677094 
	C40.094563,96.654213 38.446239,99.248985 36.503765,102.306808 
	C35.354980,100.311028 34.339832,98.961716 33.752647,97.446556 
	C32.231010,93.520149 29.998964,93.546928 26.877592,95.696060 
	C19.479582,100.789757 16.527889,110.208580 19.998735,118.164513 
	C23.191036,125.481987 29.819771,129.507980 37.932129,129.056458 
	C45.137901,128.655411 51.513939,123.651237 53.807167,116.597122 
	C56.326633,108.847076 53.979332,101.781258 46.472557,95.917053 
M17.466171,69.849892 
	C13.165551,74.419945 12.301969,78.795174 14.820992,83.251343 
	C17.080196,87.247887 21.943686,89.411697 26.208811,88.359917 
	C30.865221,87.211639 34.371243,84.285538 34.425323,79.620544 
	C34.462658,76.399826 32.916607,72.460281 30.732220,70.074043 
	C27.220568,66.237877 22.457279,66.565819 17.466171,69.849892 
M59.477394,79.862587 
	C59.960827,71.934105 54.222954,66.045380 47.379936,67.447075 
	C42.355698,68.476219 38.444675,73.011810 38.359573,77.907944 
	C38.272854,82.896729 41.957333,87.318535 47.162056,88.471947 
	C52.232700,89.595657 56.695091,86.682961 59.477394,79.862587 
M38.174988,92.502182 
	C40.287788,89.683578 40.078217,87.471916 36.275654,85.957268 
	C35.492764,86.959480 33.972618,88.049271 34.075935,88.953568 
	C34.283398,90.769394 35.377026,92.483963 36.104923,94.240326 
	C36.693851,93.866425 37.282776,93.492523 38.174988,92.502182 
z"/>
<path fill="#BFBFBF" opacity="1.000000" stroke="none" 
	d="
M301.000000,113.531349 
	C301.000000,114.000000 300.533264,114.143303 300.278625,113.631821 
	C299.990387,104.800056 299.956787,96.479774 299.923218,88.159500 
	C300.101257,88.123558 300.279358,88.087608 300.728729,88.025833 
	C301.000000,96.354233 301.000000,104.708466 301.000000,113.531349 
z"/>
<path fill="#FFFFFF" opacity="1.000000" stroke="none" 
	d="
M1.000001,115.375000 
	C1.223547,115.961197 1.447092,116.922401 1.335318,117.941803 
	C1.000000,117.250000 1.000000,116.500000 1.000001,115.375000 
z"/>
<path fill="#F8F8F8" opacity="1.000000" stroke="none" 
	d="
M301.000000,1.500000 
	C300.671448,1.907132 300.408356,1.721469 300.105408,1.221506 
	C300.333344,1.000000 300.666656,1.000000 301.000000,1.500000 
z"/>
<path fill="#F8F8F8" opacity="1.000000" stroke="none" 
	d="
M1.500000,1.000000 
	C1.906924,1.328503 1.722152,1.592923 1.222842,1.896629 
	C1.000000,1.666667 1.000000,1.333333 1.500000,1.000000 
z"/>
<path fill="#9E9E9E" opacity="1.000000" stroke="none" 
	d="
M299.503845,88.107185 
	C299.956787,96.479774 299.990387,104.800056 300.037170,113.595657 
	C294.850098,109.572899 289.649811,105.074814 283.707764,99.935127 
	C283.707764,104.908966 283.707764,109.234840 283.707764,113.758995 
	C281.266266,113.758995 279.522430,113.758995 277.518402,113.758995 
	C277.518402,105.126610 277.518402,96.767456 277.518402,87.076035 
	C283.243439,92.228363 288.158508,96.651764 294.137512,102.032677 
	C294.137512,96.705742 294.137512,92.707336 294.137512,88.335716 
	C296.230774,88.216881 297.657623,88.135880 299.503845,88.107185 
z"/>
<path fill="#9E9E9E" opacity="1.000000" stroke="none" 
	d="
M237.799133,109.047379 
	C233.231766,100.626160 234.966553,92.999298 242.061752,89.008598 
	C248.563553,85.351669 256.227783,87.421356 260.197418,93.906044 
	C263.886719,99.932777 262.461578,107.242523 256.730438,111.688782 
	C251.038879,116.104324 244.028229,115.226845 237.799133,109.047379 
M248.523315,92.913483 
	C244.694626,92.878708 241.785324,94.902771 241.243271,98.365143 
	C240.837601,100.956528 241.512833,104.802841 243.253647,106.350632 
	C245.135239,108.023613 249.441422,108.929131 251.543732,107.877602 
	C253.944763,106.676651 256.310638,103.024536 256.478149,100.301414 
	C256.724548,96.295296 253.897278,93.288704 248.523315,92.913483 
z"/>
<path fill="#9E9E9E" opacity="1.000000" stroke="none" 
	d="
M117.665749,102.518158 
	C115.281845,110.790039 110.253723,115.077133 103.633667,114.825745 
	C97.293251,114.584984 92.065895,110.126366 90.575462,103.687897 
	C88.724716,95.692909 94.517296,88.386719 103.322090,87.732323 
	C104.472389,90.622131 103.644791,92.152214 100.899475,94.088753 
	C98.589279,95.718353 96.633415,99.162949 96.332748,101.996368 
	C95.956970,105.537575 98.899490,108.026154 102.507858,108.777847 
	C106.208382,109.548737 108.778770,107.756905 111.086433,104.274162 
	C108.945007,104.013824 107.373978,103.822830 105.356430,103.577553 
	C105.356430,101.956886 105.356430,100.296341 105.356430,98.122391 
	C108.511177,98.122391 111.485596,98.277504 114.436516,98.080521 
	C117.647118,97.866211 118.052460,99.618019 117.665749,102.518158 
z"/>
<path fill="#9E9E9E" opacity="1.000000" stroke="none" 
	d="
M135.583801,113.952873 
	C132.954849,110.612083 130.700760,107.372749 128.277298,103.890007 
	C131.335510,101.565414 135.998672,100.085915 133.616547,95.613861 
	C132.656708,93.811943 129.366974,93.251099 126.026314,91.564316 
	C126.026314,100.029915 126.026314,106.766678 126.026314,113.756279 
	C123.902100,113.756279 122.313347,113.756279 120.377251,113.756279 
	C120.377251,105.311050 120.377251,96.952515 120.377251,88.141685 
	C124.695625,88.141685 128.857635,87.709518 132.893616,88.238625 
	C139.672989,89.127396 142.392044,96.347839 138.299088,101.865334 
	C137.524963,102.908890 136.565460,103.814926 135.497070,105.000084 
	C137.332809,107.806274 139.108963,110.521393 141.420120,114.054329 
	C139.071640,114.054329 137.515152,114.054329 135.583801,113.952873 
z"/>
<path fill="#9E9E9E" opacity="1.000000" stroke="none" 
	d="
M173.706436,106.011230 
	C175.062607,111.581009 179.144424,108.737328 181.929550,109.042633 
	C185.008652,109.380157 186.843842,109.798378 185.442932,113.674568 
	C179.630203,113.674568 173.744324,113.674568 167.570618,113.674568 
	C167.570618,105.141777 167.570618,96.899071 167.570618,88.307037 
	C173.340286,88.307037 178.893661,88.307037 184.583008,88.307037 
	C185.547302,91.142853 185.156799,92.889885 181.694794,92.717247 
	C180.366074,92.650993 179.024918,92.793274 177.700195,92.695190 
	C173.851807,92.410255 173.042938,94.209747 174.337891,97.958572 
	C177.215103,97.958572 180.149475,97.958572 183.108521,97.958572 
	C184.689117,101.393188 184.109177,102.733299 180.423737,102.966873 
	C178.107559,103.113655 174.395508,100.783470 173.706436,106.011230 
z"/>
<path fill="#9E9E9E" opacity="1.000000" stroke="none" 
	d="
M151.131165,94.106033 
	C150.672287,97.014763 151.448380,98.367264 154.221756,98.145470 
	C156.040482,98.000015 157.927139,97.911209 159.692505,98.258682 
	C160.461548,98.410049 161.509430,99.722282 161.504532,100.501495 
	C161.499680,101.276718 160.394302,102.634453 159.665390,102.709763 
	C157.048782,102.980095 154.387268,102.815804 151.370117,102.815804 
	C151.370117,104.931709 151.370117,106.655998 151.370117,109.186180 
	C154.413910,109.186180 157.523148,108.997147 160.587067,109.287003 
	C161.684219,109.390793 162.671967,110.651222 163.709641,111.383743 
	C162.645844,112.248215 161.619720,113.798294 160.511780,113.859146 
	C155.566879,114.130775 150.598633,113.977158 145.317123,113.977158 
	C145.317123,105.280472 145.317123,97.034332 145.317123,88.371582 
	C150.822601,88.371582 156.389542,88.371582 162.294571,88.371582 
	C163.512497,91.069862 163.232346,92.729073 159.406708,92.764153 
	C156.677856,92.789169 153.953827,93.341019 151.131165,94.106033 
z"/>
<path fill="#9E9E9E" opacity="1.000000" stroke="none" 
	d="
M200.255386,94.204399 
	C203.019516,90.635635 204.986069,86.280083 210.982132,88.605843 
	C207.781219,92.651695 204.732849,96.504753 201.543839,100.535583 
	C204.996414,104.848343 208.284714,108.955894 211.682220,113.199852 
	C205.878937,114.489784 205.890991,114.480606 202.769745,110.381508 
	C200.791168,107.783035 198.770172,105.216858 195.931030,101.557053 
	C195.931030,106.362503 195.931030,109.885262 195.931030,113.673737 
	C193.798477,113.673737 192.216461,113.673737 190.291412,113.673737 
	C190.291412,105.347885 190.291412,97.100632 190.291412,88.412697 
	C191.889740,88.412697 193.579666,88.412697 195.767654,88.412697 
	C195.767654,91.642891 195.767654,94.871582 195.767654,99.432816 
	C197.750641,97.128326 198.889130,95.805252 200.255386,94.204399 
z"/>
<path fill="#9E9E9E" opacity="1.000000" stroke="none" 
	d="
M229.701477,113.937454 
	C222.205750,115.601555 215.797424,112.633804 213.164505,106.545723 
	C210.524246,100.440643 212.506470,93.556061 218.001984,89.744339 
	C223.528427,85.911156 229.588333,86.482971 234.689194,91.331245 
	C233.276077,94.391441 231.346115,95.220459 228.004913,93.755844 
	C224.438797,92.192635 220.938721,93.848907 219.590622,97.035828 
	C218.527344,99.549446 218.485962,103.309273 219.632233,105.742241 
	C221.140884,108.944382 224.969604,110.052017 228.286880,108.337067 
	C231.570831,106.639343 233.152252,107.897224 234.991867,111.006134 
	C233.354355,111.952316 231.716309,112.898819 229.701477,113.937454 
z"/>
<path fill="#9C9C9C" opacity="1.000000" stroke="none" 
	d="
M269.920197,88.061584 
	C270.906952,88.773994 271.908264,89.457970 271.918304,90.156219 
	C272.030243,97.925568 271.988861,105.697128 271.988861,113.739388 
	C269.933136,113.739388 268.347473,113.739388 266.084320,113.739388 
	C266.084320,105.928032 265.982086,98.171638 266.232971,90.426689 
	C266.259827,89.596916 268.344360,88.833801 269.920197,88.061584 
z"/>
<path fill="#FCFCFC" opacity="1.000000" stroke="none" 
	d="
M35.161102,132.126099 
	C45.364235,132.506271 52.170315,127.923042 56.352516,119.379654 
	C60.462898,110.982986 58.685913,104.076385 49.877216,92.934288 
	C52.752949,91.735390 55.572781,90.559792 58.430904,89.368233 
	C70.538643,99.779510 71.012772,120.032600 59.387619,132.281265 
	C46.690655,145.659225 26.201553,145.640701 13.622736,132.239883 
	C2.213664,120.085258 2.759221,99.380920 14.555605,89.403450 
	C17.759289,90.509766 20.836714,91.572479 24.104362,92.700882 
	C16.019688,99.395744 12.396126,107.920555 16.263588,118.227425 
	C19.367962,126.500656 25.662598,131.338226 35.161102,132.126099 
z"/>
<path fill="#FCFCFC" opacity="1.000000" stroke="none" 
	d="
M46.773617,96.124039 
	C53.979332,101.781258 56.326633,108.847076 53.807167,116.597122 
	C51.513939,123.651237 45.137901,128.655411 37.932129,129.056458 
	C29.819771,129.507980 23.191036,125.481987 19.998735,118.164513 
	C16.527889,110.208580 19.479582,100.789757 26.877592,95.696060 
	C29.998964,93.546928 32.231010,93.520149 33.752647,97.446556 
	C34.339832,98.961716 35.354980,100.311028 36.503765,102.306808 
	C38.446239,99.248985 40.094563,96.654213 41.985764,93.677094 
	C43.591599,94.478783 45.032078,95.197922 46.773617,96.124039 
M40.885265,115.113548 
	C40.263973,116.356247 39.915947,118.361908 38.970806,118.700417 
	C35.982342,119.770775 32.924007,119.512207 31.221416,116.227394 
	C29.489208,112.885445 30.555534,110.180916 33.451149,107.956825 
	C34.773258,106.941322 35.904743,105.677658 37.122684,104.526543 
	C29.461868,104.484276 26.258770,108.272522 26.909992,114.499054 
	C27.470774,119.860863 32.333664,123.628601 37.868122,122.989372 
	C43.294514,122.362610 46.830196,117.604919 46.206997,111.174667 
	C44.144951,111.174667 41.989616,110.980026 39.896564,111.256638 
	C38.846935,111.395348 37.910728,112.392326 36.923229,113.001160 
	C37.976688,113.680412 39.030148,114.359665 40.885265,115.113548 
z"/>
<path fill="#FAFAFA" opacity="1.000000" stroke="none" 
	d="
M17.751289,69.598320 
	C22.457279,66.565819 27.220568,66.237877 30.732220,70.074043 
	C32.916607,72.460281 34.462658,76.399826 34.425323,79.620544 
	C34.371243,84.285538 30.865221,87.211639 26.208811,88.359917 
	C21.943686,89.411697 17.080196,87.247887 14.820992,83.251343 
	C12.301969,78.795174 13.165551,74.419945 17.751289,69.598320 
M27.875204,75.637543 
	C26.066765,73.303894 23.556744,72.399826 21.514984,74.561256 
	C20.360905,75.782982 19.931755,78.659851 20.551558,80.257629 
	C20.990217,81.388435 24.678783,82.620186 25.262815,82.065521 
	C26.734926,80.667442 27.271589,78.284393 27.875204,75.637543 
z"/>
<path fill="#FAFAFA" opacity="1.000000" stroke="none" 
	d="
M59.357418,80.226334 
	C56.695091,86.682961 52.232700,89.595657 47.162056,88.471947 
	C41.957333,87.318535 38.272854,82.896729 38.359573,77.907944 
	C38.444675,73.011810 42.355698,68.476219 47.379936,67.447075 
	C54.222954,66.045380 59.960827,71.934105 59.357418,80.226334 
M46.661812,81.838799 
	C49.604042,83.348381 52.109596,82.544052 53.047718,79.574982 
	C53.504616,78.128944 52.728146,75.410667 51.569839,74.581261 
	C50.375168,73.725807 47.573895,73.782127 46.298233,74.649506 
	C43.657299,76.445190 43.865692,79.081444 46.661812,81.838799 
z"/>
<path fill="#F8F8F8" opacity="1.000000" stroke="none" 
	d="
M38.023346,92.810402 
	C37.282776,93.492523 36.693851,93.866425 36.104919,94.240326 
	C35.377026,92.483963 34.283398,90.769394 34.075935,88.953568 
	C33.972618,88.049271 35.492764,86.959480 36.275654,85.957268 
	C40.078217,87.471916 40.287788,89.683578 38.023346,92.810402 
z"/>
<path fill="#FCFCFC" opacity="1.000000" stroke="none" 
	d="
M248.925995,92.919876 
	C253.897278,93.288704 256.724548,96.295296 256.478149,100.301414 
	C256.310638,103.024536 253.944763,106.676651 251.543732,107.877602 
	C249.441422,108.929131 245.135239,108.023613 243.253647,106.350632 
	C241.512833,104.802841 240.837601,100.956528 241.243271,98.365143 
	C241.785324,94.902771 244.694626,92.878708 248.925995,92.919876 
z"/>
<path fill="#A2A2A2" opacity="1.000000" stroke="none" 
	d="
M40.484436,115.076233 
	C39.030148,114.359665 37.976688,113.680412 36.923229,113.001160 
	C37.910728,112.392326 38.846935,111.395348 39.896564,111.256638 
	C41.989616,110.980026 44.144951,111.174667 46.206997,111.174667 
	C46.830196,117.604919 43.294514,122.362610 37.868122,122.989372 
	C32.333664,123.628601 27.470774,119.860863 26.909992,114.499054 
	C26.258770,108.272522 29.461868,104.484276 37.122684,104.526543 
	C35.904743,105.677658 34.773258,106.941322 33.451149,107.956825 
	C30.555534,110.180916 29.489208,112.885445 31.221416,116.227394 
	C32.924007,119.512207 35.982342,119.770775 38.970806,118.700417 
	C39.915947,118.361908 40.263973,116.356247 40.484436,115.076233 
z"/>
<path fill="#9F9F9F" opacity="1.000000" stroke="none" 
	d="
M28.029186,75.966827 
	C27.271589,78.284393 26.734926,80.667442 25.262815,82.065521 
	C24.678783,82.620186 20.990217,81.388435 20.551558,80.257629 
	C19.931755,78.659851 20.360905,75.782982 21.514984,74.561256 
	C23.556744,72.399826 26.066765,73.303894 28.029186,75.966827 
z"/>
<path fill="#9F9F9F" opacity="1.000000" stroke="none" 
	d="
M46.374413,81.631737 
	C43.865692,79.081444 43.657299,76.445190 46.298233,74.649506 
	C47.573895,73.782127 50.375168,73.725807 51.569839,74.581261 
	C52.728146,75.410667 53.504616,78.128944 53.047718,79.574982 
	C52.109596,82.544052 49.604042,83.348381 46.374413,81.631737 
z"/>
</svg>