<svg version="1.1" id="Layer_1" xmlns="http://www.w3.org/2000/svg" xmlns:xlink="http://www.w3.org/1999/xlink" x="0px" y="0px"
	 width="100%" viewBox="0 0 300 200" enable-background="new 0 0 300 200" xml:space="preserve">
<path fill="#FFFFFF" opacity="1.000000" stroke="none" 
	d="
M301.000000,105.000000 
	C301.000000,136.354233 301.000000,167.708450 300.779175,199.637238 
	C300.284454,200.412399 300.098358,200.675125 300.000000,201.000000 
	C200.979111,201.000000 101.958206,201.000000 2.361419,200.779877 
	C1.588511,200.282227 1.326670,200.095642 1.000000,200.000000 
	C1.000000,171.312439 1.000000,142.624878 1.379268,113.366562 
	C2.751869,113.912308 4.086522,114.870941 4.687008,116.169151 
	C12.852823,133.823120 30.866093,143.222534 48.642334,139.594421 
	C66.780357,135.892426 80.829674,118.414001 80.184235,99.646118 
	C79.362564,75.753990 56.440315,57.245945 33.129856,62.526337 
	C18.228687,65.901817 8.681597,75.157448 2.939534,89.108978 
	C2.035004,89.039070 1.517502,89.019539 1.000000,89.000000 
	C1.000000,59.699856 1.000000,30.399714 1.000000,1.000000 
	C100.354202,1.000000 199.708450,1.000000 299.637573,1.220828 
	C300.410126,1.719263 300.672607,1.905378 301.000000,2.000000 
	C301.000000,33.354229 301.000000,64.708458 300.636719,96.564133 
	C299.500183,95.658257 298.682159,94.273438 297.961151,92.839828 
	C294.364655,85.688583 288.218506,82.298904 280.577789,82.341782 
	C270.858246,82.396324 262.972961,90.398476 262.200928,100.073387 
	C261.491791,108.960060 268.156799,117.442337 277.524872,119.575569 
	C286.084106,121.524620 295.719238,115.927788 299.003113,107.209854 
	C299.328827,106.345192 300.318481,105.730629 301.000000,105.000000 
M121.876831,113.732307 
	C125.343819,119.763206 126.192917,120.075584 134.897003,118.266258 
	C131.978439,113.700661 129.349731,109.113228 126.239861,104.879196 
	C123.897270,101.689796 123.945221,99.214546 126.380180,96.095398 
	C129.335968,92.309074 131.764679,88.111298 134.713120,83.650200 
	C125.160629,82.452568 125.187103,82.469452 120.740753,89.441452 
	C119.199432,91.858299 117.490883,94.168488 115.858711,96.527390 
	C115.509628,96.409874 115.160538,96.292351 114.811455,96.174835 
	C114.811455,91.956505 114.811455,87.738182 114.811455,83.413712 
	C111.672318,83.413712 109.099709,83.413712 105.945045,83.413712 
	C105.945045,85.846680 105.945053,87.963661 105.945053,90.080635 
	C105.945053,99.525414 105.945045,108.970184 105.945045,118.602005 
	C109.242538,118.602005 111.935104,118.602005 115.218109,118.602005 
	C115.218109,113.760796 115.218109,109.307419 115.218109,103.751778 
	C117.776459,107.586411 119.620949,110.351059 121.876831,113.732307 
M239.920792,108.635551 
	C236.290405,104.498383 235.702942,98.805206 238.514694,95.009117 
	C240.855957,91.848236 246.763397,90.101753 250.193039,92.714729 
	C255.184052,96.517303 257.769653,93.238136 261.048431,90.703941 
	C256.260651,83.488937 247.695450,80.707710 239.468811,83.475494 
	C232.242844,85.906609 226.755386,94.051971 227.190842,101.700409 
	C227.700485,110.652077 233.691467,117.611809 242.598221,119.599152 
	C249.563034,121.153191 257.418457,117.646591 260.828064,111.313179 
	C257.631470,109.013847 255.219955,105.706673 250.245865,109.443642 
	C248.223251,110.963211 243.834167,109.332870 239.920792,108.635551 
M187.011261,110.749924 
	C187.037827,110.585838 187.031784,110.405922 187.101318,110.262688 
	C187.156784,110.148491 187.304398,110.079033 187.411102,109.989723 
	C188.526566,111.335960 189.978729,112.524384 190.696991,114.056793 
	C193.278625,119.564728 197.583984,119.694572 203.180679,118.449646 
	C200.928909,115.192238 199.102661,112.266495 196.983063,109.571465 
	C195.197952,107.301743 194.865204,105.462708 196.834732,103.017708 
	C199.072540,100.239655 200.826920,97.072182 202.813995,94.039551 
	C193.734894,90.056442 191.165009,97.327698 187.732834,103.025124 
	C187.383774,102.711136 187.034698,102.397148 186.685623,102.083160 
	C186.685623,95.856125 186.685623,89.629089 186.685623,81.651291 
	C183.145462,83.354111 178.633255,84.425720 178.564804,85.730438 
	C177.993637,96.618393 178.240463,107.549248 178.240463,118.676559 
	C181.399521,118.676559 183.953842,118.676559 187.002808,118.676559 
	C187.002808,116.075874 187.002808,113.783188 187.011261,110.749924 
M150.487167,103.273499 
	C149.447205,111.356621 152.823425,117.148621 159.801270,119.252106 
	C166.108017,121.153297 171.985291,118.773224 174.880493,112.980209 
	C172.085358,110.900520 169.550125,109.087425 165.495468,110.763329 
	C163.994217,111.383835 160.725647,110.114014 159.662903,108.673538 
	C158.773773,107.468384 159.305023,104.303154 160.367233,102.859100 
	C161.217072,101.703781 164.435745,100.860588 165.520172,101.559372 
	C169.880371,104.369026 172.043808,101.145912 174.918045,99.283844 
	C171.008057,93.611664 167.619965,91.972839 161.181534,93.076515 
	C155.840378,93.992096 152.135880,97.060005 150.487167,103.273499 
M223.002457,107.480103 
	C223.002457,99.539566 223.002457,91.599030 223.002457,83.525864 
	C219.674789,83.525864 216.983917,83.525864 214.352234,83.525864 
	C214.352234,95.522560 214.352234,107.079910 214.352234,118.669342 
	C217.345352,118.669342 219.921204,118.669342 223.002457,118.669342 
	C223.002457,115.059288 223.002457,111.765724 223.002457,107.480103 
M145.768692,94.925102 
	C142.948044,93.715347 138.754684,91.974464 138.206573,95.995117 
	C137.197784,103.395111 137.918625,111.030884 137.918625,118.559944 
	C140.998535,118.559944 143.351715,118.559944 145.953232,118.559944 
	C145.953232,110.695427 145.953232,103.268250 145.768692,94.925102 
M144.599884,82.560829 
	C140.997131,81.358383 137.738480,81.539597 137.181168,86.038734 
	C137.000671,87.495888 138.521851,89.986984 139.887146,90.585793 
	C141.311905,91.210693 144.668701,90.635429 145.083237,89.677315 
	C145.892670,87.806435 145.240784,85.303307 144.599884,82.560829 
z"/>
<path fill="#BBBBBB" opacity="1.000000" stroke="none" 
	d="
M3.326561,89.159348 
	C8.681597,75.157448 18.228687,65.901817 33.129856,62.526337 
	C56.440315,57.245945 79.362564,75.753990 80.184235,99.646118 
	C80.829674,118.414001 66.780357,135.892426 48.642334,139.594421 
	C30.866093,143.222534 12.852823,133.823120 4.687008,116.169151 
	C4.086522,114.870941 2.751869,113.912308 1.379268,112.897903 
	C1.000000,112.250000 1.000000,111.500000 1.357848,110.417557 
	C1.477131,107.723404 1.238566,105.361702 1.000000,103.000000 
	C1.000000,101.933327 1.000000,100.866661 1.298316,99.159721 
	C2.173275,95.399422 2.749918,92.279381 3.326561,89.159348 
M56.717110,88.199417 
	C60.536346,86.036270 64.355583,83.873116 68.227829,81.679939 
	C53.650455,61.049316 24.007406,64.074776 13.975474,81.853149 
	C19.958176,85.253464 25.939762,88.653145 32.966782,92.646996 
	C32.966782,88.263062 32.784641,84.987076 33.080059,81.754738 
	C33.166367,80.810417 34.612827,79.990402 35.435856,79.113411 
	C36.276672,79.976349 37.800705,80.805443 37.845394,81.707809 
	C38.100552,86.860107 38.066692,92.031128 37.963081,97.192413 
	C37.946064,98.040199 37.308514,99.245934 36.596909,99.648712 
	C32.254768,102.106407 27.873922,104.522987 23.343428,106.598427 
	C22.398003,107.031525 20.771261,105.977379 19.458496,105.608604 
	C19.985455,104.393913 20.183393,102.742981 21.103239,102.049202 
	C23.521948,100.224930 26.254786,98.817139 29.432339,96.899559 
	C22.793123,93.207657 16.906603,89.934311 10.642672,86.451096 
	C4.894310,98.398956 6.115813,109.352379 12.864232,119.569748 
	C18.579796,128.223343 26.619675,133.573212 37.637749,134.123123 
	C37.637749,126.454056 37.637749,119.445511 37.637749,111.924088 
	C34.654018,113.518097 32.281155,115.055969 29.699053,116.050713 
	C28.416796,116.544693 26.750290,116.041267 25.257618,115.989067 
	C25.864841,114.487816 26.045795,112.385666 27.158197,111.596550 
	C30.673578,109.102814 34.441593,106.903458 38.318661,105.014671 
	C39.685726,104.348679 41.961578,104.318825 43.281750,105.018639 
	C47.090504,107.037621 50.755592,109.402779 54.188850,112.011368 
	C55.287098,112.845818 55.484989,114.865257 56.094830,116.342514 
	C54.502155,116.420807 52.737480,116.973221 51.355137,116.471741 
	C48.992371,115.614578 46.869194,114.096985 44.278976,112.652428 
	C44.278976,120.273445 44.278976,127.007401 44.278976,134.227356 
	C55.871483,133.169205 64.184349,127.644188 69.752533,118.281425 
	C75.692055,108.294273 76.358917,97.780251 71.176498,86.352821 
	C64.809570,90.002419 58.920822,93.377922 52.353611,97.142326 
	C55.587456,98.977394 58.028965,100.100327 60.140659,101.667641 
	C61.261497,102.499519 61.810116,104.102394 62.617039,105.357231 
	C61.040451,105.712303 59.140690,106.809364 57.945473,106.288811 
	C53.687065,104.434097 49.600689,102.141838 45.610203,99.746925 
	C44.705990,99.204254 44.013062,97.597801 43.971653,96.453896 
	C43.803024,91.795311 43.778187,87.117760 44.044968,82.466957 
	C44.110737,81.320374 45.474525,80.248230 46.241600,79.141869 
	C47.172592,80.251526 48.750805,81.277641 48.906940,82.487305 
	C49.294991,85.493767 49.034580,88.583939 49.034580,92.571686 
	C52.107941,90.842606 54.101509,89.721024 56.717110,88.199417 
z"/>
<path fill="#BABABA" opacity="1.000000" stroke="none" 
	d="
M301.000000,104.666664 
	C300.318481,105.730629 299.328827,106.345192 299.003113,107.209854 
	C295.719238,115.927788 286.084106,121.524620 277.524872,119.575569 
	C268.156799,117.442337 261.491791,108.960060 262.200928,100.073387 
	C262.972961,90.398476 270.858246,82.396324 280.577789,82.341782 
	C288.218506,82.298904 294.364655,85.688583 297.961151,92.839828 
	C298.682159,94.273438 299.500183,95.658257 300.636719,97.032791 
	C301.000000,97.444443 301.000000,97.888893 300.680054,98.819511 
	C300.573425,100.537125 300.786713,101.768562 301.000000,103.000000 
	C301.000000,103.444443 301.000000,103.888893 301.000000,104.666664 
M279.859406,91.273140 
	C279.066010,91.523949 278.241913,91.704697 277.484131,92.036758 
	C271.930664,94.470253 269.680511,100.613533 272.446747,105.718254 
	C275.176575,110.755806 281.138092,112.391098 286.200653,109.454002 
	C289.953705,107.276627 291.267426,103.789749 290.851349,99.711746 
	C290.395233,95.241341 286.667450,92.291161 279.859406,91.273140 
z"/>
<path fill="#F8F8F8" opacity="1.000000" stroke="none" 
	d="
M2.939534,89.108978 
	C2.749918,92.279381 2.173275,95.399422 1.298316,98.759727 
	C1.000000,95.969406 1.000000,92.938812 1.000000,89.454109 
	C1.517502,89.019539 2.035004,89.039070 2.939534,89.108978 
z"/>
<path fill="#F8F8F8" opacity="1.000000" stroke="none" 
	d="
M1.000000,103.437500 
	C1.238566,105.361702 1.477131,107.723404 1.357848,110.042557 
	C1.000000,107.958336 1.000000,105.916664 1.000000,103.437500 
z"/>
<path fill="#FFFFFF" opacity="1.000000" stroke="none" 
	d="
M301.000000,102.600006 
	C300.786713,101.768562 300.573425,100.537125 300.680054,99.152847 
	C301.000000,100.066673 301.000000,101.133339 301.000000,102.600006 
z"/>
<path fill="#FAFAFA" opacity="1.000000" stroke="none" 
	d="
M300.500000,201.000000 
	C300.098358,200.675125 300.284454,200.412399 300.779175,200.105896 
	C301.000000,200.333328 301.000000,200.666672 300.500000,201.000000 
z"/>
<path fill="#F8F8F8" opacity="1.000000" stroke="none" 
	d="
M1.000000,200.500000 
	C1.326670,200.095642 1.588511,200.282227 1.892761,200.779877 
	C1.666667,201.000000 1.333333,201.000000 1.000000,200.500000 
z"/>
<path fill="#F8F8F8" opacity="1.000000" stroke="none" 
	d="
M301.000000,1.500000 
	C300.672607,1.905378 300.410126,1.719263 300.106262,1.220828 
	C300.333344,1.000000 300.666656,1.000000 301.000000,1.500000 
z"/>
<path fill="#B9B9B9" opacity="1.000000" stroke="none" 
	d="
M121.671135,113.424004 
	C119.620949,110.351059 117.776459,107.586411 115.218109,103.751778 
	C115.218109,109.307419 115.218109,113.760796 115.218109,118.602005 
	C111.935104,118.602005 109.242538,118.602005 105.945045,118.602005 
	C105.945045,108.970184 105.945053,99.525414 105.945053,90.080635 
	C105.945053,87.963661 105.945045,85.846680 105.945045,83.413712 
	C109.099709,83.413712 111.672318,83.413712 114.811455,83.413712 
	C114.811455,87.738182 114.811455,91.956505 114.811455,96.174835 
	C115.160538,96.292351 115.509628,96.409874 115.858711,96.527390 
	C117.490883,94.168488 119.199432,91.858299 120.740753,89.441452 
	C125.187103,82.469452 125.160629,82.452568 134.713120,83.650200 
	C131.764679,88.111298 129.335968,92.309074 126.380180,96.095398 
	C123.945221,99.214546 123.897270,101.689796 126.239861,104.879196 
	C129.349731,109.113228 131.978439,113.700661 134.897003,118.266258 
	C126.192917,120.075584 125.343819,119.763206 121.671135,113.424004 
z"/>
<path fill="#BABABA" opacity="1.000000" stroke="none" 
	d="
M240.221313,108.885651 
	C243.834167,109.332870 248.223251,110.963211 250.245865,109.443642 
	C255.219955,105.706673 257.631470,109.013847 260.828064,111.313179 
	C257.418457,117.646591 249.563034,121.153191 242.598221,119.599152 
	C233.691467,117.611809 227.700485,110.652077 227.190842,101.700409 
	C226.755386,94.051971 232.242844,85.906609 239.468811,83.475494 
	C247.695450,80.707710 256.260651,83.488937 261.048431,90.703941 
	C257.769653,93.238136 255.184052,96.517303 250.193039,92.714729 
	C246.763397,90.101753 240.855957,91.848236 238.514694,95.009117 
	C235.702942,98.805206 236.290405,104.498383 240.221313,108.885651 
z"/>
<path fill="#B9B9B9" opacity="1.000000" stroke="none" 
	d="
M187.007034,111.120209 
	C187.002808,113.783188 187.002808,116.075874 187.002808,118.676559 
	C183.953842,118.676559 181.399521,118.676559 178.240463,118.676559 
	C178.240463,107.549248 177.993637,96.618393 178.564804,85.730438 
	C178.633255,84.425720 183.145462,83.354111 186.685623,81.651291 
	C186.685623,89.629089 186.685623,95.856125 186.685623,102.083160 
	C187.034698,102.397148 187.383774,102.711136 187.732834,103.025124 
	C191.165009,97.327698 193.734894,90.056442 202.813995,94.039551 
	C200.826920,97.072182 199.072540,100.239655 196.834732,103.017708 
	C194.865204,105.462708 195.197952,107.301743 196.983063,109.571465 
	C199.102661,112.266495 200.928909,115.192238 203.180679,118.449646 
	C197.583984,119.694572 193.278625,119.564728 190.696991,114.056793 
	C189.978729,112.524384 188.526566,111.335960 187.411102,109.989723 
	C187.304398,110.079033 187.156784,110.148491 187.101318,110.262688 
	C187.031784,110.405922 187.037827,110.585838 187.007034,111.120209 
z"/>
<path fill="#BABABA" opacity="1.000000" stroke="none" 
	d="
M150.620575,102.896454 
	C152.135880,97.060005 155.840378,93.992096 161.181534,93.076515 
	C167.619965,91.972839 171.008057,93.611664 174.918045,99.283844 
	C172.043808,101.145912 169.880371,104.369026 165.520172,101.559372 
	C164.435745,100.860588 161.217072,101.703781 160.367233,102.859100 
	C159.305023,104.303154 158.773773,107.468384 159.662903,108.673538 
	C160.725647,110.114014 163.994217,111.383835 165.495468,110.763329 
	C169.550125,109.087425 172.085358,110.900520 174.880493,112.980209 
	C171.985291,118.773224 166.108017,121.153297 159.801270,119.252106 
	C152.823425,117.148621 149.447205,111.356621 150.620575,102.896454 
z"/>
<path fill="#B9B9B9" opacity="1.000000" stroke="none" 
	d="
M223.002457,107.976135 
	C223.002457,111.765724 223.002457,115.059288 223.002457,118.669342 
	C219.921204,118.669342 217.345352,118.669342 214.352234,118.669342 
	C214.352234,107.079910 214.352234,95.522560 214.352234,83.525864 
	C216.983917,83.525864 219.674789,83.525864 223.002457,83.525864 
	C223.002457,91.599030 223.002457,99.539566 223.002457,107.976135 
z"/>
<path fill="#B9B9B9" opacity="1.000000" stroke="none" 
	d="
M145.860962,95.383087 
	C145.953232,103.268250 145.953232,110.695427 145.953232,118.559944 
	C143.351715,118.559944 140.998535,118.559944 137.918625,118.559944 
	C137.918625,111.030884 137.197784,103.395111 138.206573,95.995117 
	C138.754684,91.974464 142.948044,93.715347 145.860962,95.383087 
z"/>
<path fill="#B9B9B9" opacity="1.000000" stroke="none" 
	d="
M144.896912,82.811394 
	C145.240784,85.303307 145.892670,87.806435 145.083237,89.677315 
	C144.668701,90.635429 141.311905,91.210693 139.887146,90.585793 
	C138.521851,89.986984 137.000671,87.495888 137.181168,86.038734 
	C137.738480,81.539597 140.997131,81.358383 144.896912,82.811394 
z"/>
<path fill="#FDFDFD" opacity="1.000000" stroke="none" 
	d="
M56.406094,88.399429 
	C54.101509,89.721024 52.107941,90.842606 49.034580,92.571686 
	C49.034580,88.583939 49.294991,85.493767 48.906940,82.487305 
	C48.750805,81.277641 47.172592,80.251526 46.241600,79.141869 
	C45.474525,80.248230 44.110737,81.320374 44.044968,82.466957 
	C43.778187,87.117760 43.803024,91.795311 43.971653,96.453896 
	C44.013062,97.597801 44.705990,99.204254 45.610203,99.746925 
	C49.600689,102.141838 53.687065,104.434097 57.945473,106.288811 
	C59.140690,106.809364 61.040451,105.712303 62.617039,105.357231 
	C61.810116,104.102394 61.261497,102.499519 60.140659,101.667641 
	C58.028965,100.100327 55.587456,98.977394 52.353611,97.142326 
	C58.920822,93.377922 64.809570,90.002419 71.176498,86.352821 
	C76.358917,97.780251 75.692055,108.294273 69.752533,118.281425 
	C64.184349,127.644188 55.871483,133.169205 44.278976,134.227356 
	C44.278976,127.007401 44.278976,120.273445 44.278976,112.652428 
	C46.869194,114.096985 48.992371,115.614578 51.355137,116.471741 
	C52.737480,116.973221 54.502155,116.420807 56.094830,116.342514 
	C55.484989,114.865257 55.287098,112.845818 54.188850,112.011368 
	C50.755592,109.402779 47.090504,107.037621 43.281750,105.018639 
	C41.961578,104.318825 39.685726,104.348679 38.318661,105.014671 
	C34.441593,106.903458 30.673578,109.102814 27.158197,111.596550 
	C26.045795,112.385666 25.864841,114.487816 25.257618,115.989067 
	C26.750290,116.041267 28.416796,116.544693 29.699053,116.050713 
	C32.281155,115.055969 34.654018,113.518097 37.637749,111.924088 
	C37.637749,119.445511 37.637749,126.454056 37.637749,134.123123 
	C26.619675,133.573212 18.579796,128.223343 12.864232,119.569748 
	C6.115813,109.352379 4.894310,98.398956 10.642672,86.451096 
	C16.906603,89.934311 22.793123,93.207657 29.432339,96.899559 
	C26.254786,98.817139 23.521948,100.224930 21.103239,102.049202 
	C20.183393,102.742981 19.985455,104.393913 19.458496,105.608604 
	C20.771261,105.977379 22.398003,107.031525 23.343428,106.598427 
	C27.873922,104.522987 32.254768,102.106407 36.596909,99.648712 
	C37.308514,99.245934 37.946064,98.040199 37.963081,97.192413 
	C38.066692,92.031128 38.100552,86.860107 37.845394,81.707809 
	C37.800705,80.805443 36.276672,79.976349 35.435852,79.113411 
	C34.612827,79.990402 33.166367,80.810417 33.080059,81.754738 
	C32.784641,84.987076 32.966782,88.263062 32.966782,92.646996 
	C25.939762,88.653145 19.958176,85.253464 13.975474,81.853149 
	C24.007406,64.074776 53.650455,61.049316 68.227829,81.679939 
	C64.355583,83.873116 60.536346,86.036270 56.406094,88.399429 
z"/>
<path fill="#FDFDFD" opacity="1.000000" stroke="none" 
	d="
M280.241486,91.225571 
	C286.667450,92.291161 290.395233,95.241341 290.851349,99.711746 
	C291.267426,103.789749 289.953705,107.276627 286.200653,109.454002 
	C281.138092,112.391098 275.176575,110.755806 272.446747,105.718254 
	C269.680511,100.613533 271.930664,94.470253 277.484131,92.036758 
	C278.241913,91.704697 279.066010,91.523949 280.241486,91.225571 
z"/>
</svg>