<svg version="1.1" id="Layer_1" xmlns="http://www.w3.org/2000/svg" xmlns:xlink="http://www.w3.org/1999/xlink" x="0px" y="0px"
	 width="100%" viewBox="0 0 300 200" enable-background="new 0 0 300 200" xml:space="preserve">
<path fill="#FFFFFF" opacity="1.000000" stroke="none" 
	d="
M301.000000,114.000000 
	C301.000000,142.354233 301.000000,170.708450 300.779266,199.637238 
	C300.286041,200.413376 300.099884,200.676102 300.000000,201.000000 
	C200.979111,201.000000 101.958206,201.000000 2.362110,200.779388 
	C1.589495,200.281128 1.327194,200.094879 1.000000,200.000000 
	C1.000000,134.312439 1.000000,68.624878 1.221315,2.363378 
	C1.716778,1.588685 1.902568,1.325538 2.000000,1.000000 
	C101.560234,1.000000 201.120468,1.000000 301.000000,1.000000 
	C301.000000,37.686943 301.000000,74.374817 300.657654,111.531097 
	C299.858704,112.006134 299.402130,112.012741 298.656158,111.862122 
	C294.430573,107.535454 290.494415,103.366013 286.515686,99.151512 
	C291.223450,93.650055 295.383118,88.789139 299.887604,83.525230 
	C295.775574,82.871269 292.706512,82.530067 289.891327,85.759468 
	C283.009979,93.653259 275.792145,101.253700 268.709076,108.971619 
	C267.541321,110.244019 266.370087,111.513222 264.317139,113.743530 
	C267.615631,113.743530 270.059875,114.499535 271.373108,113.601555 
	C275.288116,110.924515 278.759216,107.598320 282.548248,104.403877 
	C287.721924,107.728302 290.475891,115.571480 299.092590,113.896149 
	C299.979279,113.977798 300.489624,113.988899 301.000000,114.000000 
M173.890732,73.737381 
	C173.804321,73.686417 173.717896,73.635452 173.631485,73.584488 
	C173.764664,73.714867 173.897858,73.845253 173.969330,74.751747 
	C178.001282,85.644844 182.546875,96.382896 185.897232,107.481750 
	C188.426117,115.859306 195.052887,118.838600 202.490738,123.603790 
	C201.735428,120.881020 201.440247,119.473053 200.957520,118.132629 
	C197.862762,109.539337 193.993042,101.143539 191.798798,92.329140 
	C189.315704,82.354439 182.413025,77.686707 173.890732,73.737381 
M39.441578,135.494904 
	C42.354702,133.604889 45.496155,131.987396 48.138260,129.773895 
	C56.156982,123.055962 65.243988,117.292221 66.809509,105.329895 
	C67.640472,98.980492 70.039665,92.836311 71.511726,87.407867 
	C66.769485,88.970581 62.274311,90.721367 57.632362,91.888344 
	C54.450596,92.688232 50.983521,92.358521 47.806694,93.170425 
	C46.377117,93.535789 44.530640,95.310005 44.282871,96.696808 
	C43.499092,101.083725 43.502220,105.603859 42.977989,110.046158 
	C42.073872,117.707611 41.001858,125.349243 40.023071,132.135345 
	C38.651760,119.206726 37.280449,106.278114 35.942692,93.665871 
	C26.537863,91.253433 16.654388,93.949219 9.292283,86.309074 
	C11.691830,96.580139 14.448277,106.411118 17.313646,116.210236 
	C17.567947,117.079903 18.434263,117.858650 19.181015,118.482491 
	C25.788662,124.002571 32.433537,129.478088 39.441578,135.494904 
M35.730000,70.036949 
	C24.672647,68.610275 13.615294,67.183609 2.160679,65.705681 
	C6.835673,80.479980 10.944698,83.714874 25.151402,83.957451 
	C34.908207,84.124039 44.672123,84.106415 54.429459,83.953773 
	C67.983749,83.741745 72.567963,80.031952 76.657555,65.992973 
	C74.391212,66.169167 72.314949,66.282043 70.249664,66.499229 
	C59.054962,67.676483 47.862980,68.879524 35.730000,70.036949 
M211.081909,108.399902 
	C211.081909,105.190010 211.081909,101.980118 211.081909,97.336075 
	C214.393311,101.807106 217.160828,104.762482 219.001328,108.212418 
	C221.744247,113.353943 225.653915,113.899902 230.731949,112.577454 
	C230.731949,102.809380 230.731949,93.243614 230.731949,83.527184 
	C228.025238,83.527184 225.662552,83.527184 222.855484,83.527184 
	C222.855484,88.671288 222.855484,93.395821 222.855484,99.361130 
	C219.370728,94.661049 216.279800,91.191849 214.011108,87.249474 
	C211.366074,82.653076 207.797867,82.517982 203.296738,83.613205 
	C203.296738,93.370499 203.296738,102.942856 203.296738,112.454483 
	C210.050842,113.753975 210.332458,113.634193 211.081909,108.399902 
M153.256439,113.799599 
	C156.729202,114.208984 158.004364,112.672340 157.880402,109.205566 
	C157.681305,103.637802 157.826996,98.057709 157.826996,92.427727 
	C160.935165,92.140709 163.189529,91.932541 165.654083,91.704956 
	C165.654083,88.836906 165.654083,86.273293 165.654083,83.092499 
	C158.261841,83.092499 151.158829,83.090286 144.055801,83.093109 
	C136.669174,83.096039 135.969025,84.076630 137.931274,91.651520 
	C146.035721,92.818680 146.035736,92.818680 146.035812,101.249207 
	C146.035843,105.317322 146.035812,109.385429 146.035812,113.799530 
	C148.736923,113.799530 150.547546,113.799530 153.256439,113.799599 
M109.346481,83.094566 
	C102.414810,83.094566 95.483139,83.094566 88.450897,83.094566 
	C88.450897,86.424774 88.450897,89.103706 88.450897,91.729134 
	C96.920189,92.581566 96.920204,92.581566 96.920280,101.161148 
	C96.920311,105.230507 96.920280,109.299858 96.920280,113.443268 
	C101.032059,113.443268 104.264717,113.443268 108.137161,113.443268 
	C108.137161,106.224976 108.137161,99.348000 108.137161,92.370079 
	C111.325638,92.129410 113.880806,91.936546 116.309349,91.753235 
	C117.375633,83.398613 117.182388,83.142151 109.346481,83.094566 
M251.698334,89.014893 
	C260.256378,90.290138 270.336731,84.914124 276.980469,95.828262 
	C278.275787,93.868019 279.687286,92.656830 279.831085,91.310257 
	C280.083832,88.943031 273.556366,83.131554 270.899078,83.110306 
	C262.746735,83.045120 254.592163,83.181328 246.441299,83.055046 
	C242.856049,82.999496 241.853226,84.706329 241.905579,87.968170 
	C242.023071,95.287674 241.818924,102.614349 242.055832,109.928055 
	C242.098145,111.233955 243.632309,112.491531 244.477615,113.771423 
	C245.580582,112.499756 247.550674,111.283211 247.635635,109.946823 
	C247.993835,104.312042 247.803879,98.641487 247.784271,92.984116 
	C247.777008,90.890404 247.706528,88.811684 251.698334,89.014893 
M121.954025,111.198112 
	C125.071098,112.039177 128.188171,112.880249 131.736481,113.837677 
	C131.736481,102.754929 131.736481,93.214828 131.736481,83.510468 
	C128.363647,83.510468 125.335205,83.510468 121.900963,83.510468 
	C121.900963,92.697037 121.900963,101.476555 121.954025,111.198112 
M167.591019,109.126457 
	C167.090195,110.438271 166.589386,111.750084 166.088577,113.061897 
	C166.353622,113.544601 166.618668,114.027306 166.883713,114.510010 
	C170.271408,113.597038 174.837540,113.752380 176.820068,111.565529 
	C182.203400,105.627350 178.461105,99.379211 175.385696,92.545929 
	C172.669968,98.326118 170.295181,103.380661 167.591019,109.126457 
M254.652069,95.948578 
	C252.901169,96.039268 251.150284,96.129967 249.049973,96.238762 
	C249.217178,98.408592 249.337448,99.969467 249.464630,101.619965 
	C255.363403,101.619965 260.772461,101.619965 266.346222,101.619965 
	C267.371399,97.949577 267.293121,95.488495 262.570374,95.913338 
	C260.264618,96.120758 257.924774,95.948708 254.652069,95.948578 
z"/>
<path fill="#F8F8F8" opacity="1.000000" stroke="none" 
	d="
M298.945557,112.019348 
	C299.402130,112.012741 299.858704,112.006134 300.657654,111.999756 
	C301.000000,112.444496 301.000000,112.889000 301.000000,113.666748 
	C300.489624,113.988899 299.979279,113.977798 299.168823,113.601990 
	C298.894379,112.831299 298.919952,112.425331 298.945557,112.019348 
z"/>
<path fill="#F8F8F8" opacity="1.000000" stroke="none" 
	d="
M300.500000,201.000000 
	C300.099884,200.676102 300.286041,200.413376 300.779266,200.105896 
	C301.000000,200.333328 301.000000,200.666672 300.500000,201.000000 
z"/>
<path fill="#F8F8F8" opacity="1.000000" stroke="none" 
	d="
M1.000000,200.500000 
	C1.327194,200.094879 1.589495,200.281128 1.893453,200.779388 
	C1.666667,201.000000 1.333333,201.000000 1.000000,200.500000 
z"/>
<path fill="#F8F8F8" opacity="1.000000" stroke="none" 
	d="
M1.500000,1.000000 
	C1.902568,1.325538 1.716778,1.588685 1.221315,1.894720 
	C1.000000,1.666667 1.000000,1.333333 1.500000,1.000000 
z"/>
<path fill="#BABABA" opacity="1.000000" stroke="none" 
	d="
M36.200027,70.055313 
	C47.862980,68.879524 59.054962,67.676483 70.249664,66.499229 
	C72.314949,66.282043 74.391212,66.169167 76.657555,65.992973 
	C72.567963,80.031952 67.983749,83.741745 54.429459,83.953773 
	C44.672123,84.106415 34.908207,84.124039 25.151402,83.957451 
	C10.944698,83.714874 6.835673,80.479980 2.160679,65.705681 
	C13.615294,67.183609 24.672647,68.610275 36.200027,70.055313 
z"/>
<path fill="#BABABA" opacity="1.000000" stroke="none" 
	d="
M40.000294,132.999191 
	C41.001858,125.349243 42.073872,117.707611 42.977989,110.046158 
	C43.502220,105.603859 43.499092,101.083725 44.282871,96.696808 
	C44.530640,95.310005 46.377117,93.535789 47.806694,93.170425 
	C50.983521,92.358521 54.450596,92.688232 57.632362,91.888344 
	C62.274311,90.721367 66.769485,88.970581 71.511726,87.407867 
	C70.039665,92.836311 67.640472,98.980492 66.809509,105.329895 
	C65.243988,117.292221 56.156982,123.055962 48.138260,129.773895 
	C45.496155,131.987396 42.354702,133.604889 39.487961,135.063110 
	C39.689663,134.087280 39.844978,133.543228 40.000294,132.999191 
z"/>
<path fill="#B9B9B9" opacity="1.000000" stroke="none" 
	d="
M40.011681,132.567261 
	C39.844978,133.543228 39.689663,134.087280 39.300880,134.799042 
	C32.433537,129.478088 25.788662,124.002571 19.181015,118.482491 
	C18.434263,117.858650 17.567947,117.079903 17.313646,116.210236 
	C14.448277,106.411118 11.691830,96.580139 9.292283,86.309074 
	C16.654388,93.949219 26.537863,91.253433 35.942692,93.665871 
	C37.280449,106.278114 38.651760,119.206726 40.011681,132.567261 
z"/>
<path fill="#B9B9B9" opacity="1.000000" stroke="none" 
	d="
M211.081314,108.866516 
	C210.332458,113.634193 210.050842,113.753975 203.296738,112.454483 
	C203.296738,102.942856 203.296738,93.370499 203.296738,83.613205 
	C207.797867,82.517982 211.366074,82.653076 214.011108,87.249474 
	C216.279800,91.191849 219.370728,94.661049 222.855484,99.361130 
	C222.855484,93.395821 222.855484,88.671288 222.855484,83.527184 
	C225.662552,83.527184 228.025238,83.527184 230.731949,83.527184 
	C230.731949,93.243614 230.731949,102.809380 230.731949,112.577454 
	C225.653915,113.899902 221.744247,113.353943 219.001328,108.212418 
	C217.160828,104.762482 214.393311,101.807106 211.081909,97.336075 
	C211.081909,101.980118 211.081909,105.190010 211.081314,108.866516 
z"/>
<path fill="#BABABA" opacity="1.000000" stroke="none" 
	d="
M152.807312,113.799561 
	C150.547546,113.799530 148.736923,113.799530 146.035812,113.799530 
	C146.035812,109.385429 146.035843,105.317322 146.035812,101.249207 
	C146.035736,92.818680 146.035721,92.818680 137.931274,91.651520 
	C135.969025,84.076630 136.669174,83.096039 144.055801,83.093109 
	C151.158829,83.090286 158.261841,83.092499 165.654083,83.092499 
	C165.654083,86.273293 165.654083,88.836906 165.654083,91.704956 
	C163.189529,91.932541 160.935165,92.140709 157.826996,92.427727 
	C157.826996,98.057709 157.681305,103.637802 157.880402,109.205566 
	C158.004364,112.672340 156.729202,114.208984 152.807312,113.799561 
z"/>
<path fill="#BABABA" opacity="1.000000" stroke="none" 
	d="
M109.821114,83.094673 
	C117.182388,83.142151 117.375633,83.398613 116.309349,91.753235 
	C113.880806,91.936546 111.325638,92.129410 108.137161,92.370079 
	C108.137161,99.348000 108.137161,106.224976 108.137161,113.443268 
	C104.264717,113.443268 101.032059,113.443268 96.920280,113.443268 
	C96.920280,109.299858 96.920311,105.230507 96.920280,101.161148 
	C96.920204,92.581566 96.920189,92.581566 88.450897,91.729134 
	C88.450897,89.103706 88.450897,86.424774 88.450897,83.094566 
	C95.483139,83.094566 102.414810,83.094566 109.821114,83.094673 
z"/>
<path fill="#BABABA" opacity="1.000000" stroke="none" 
	d="
M173.978271,74.029251 
	C182.413025,77.686707 189.315704,82.354439 191.798798,92.329140 
	C193.993042,101.143539 197.862762,109.539337 200.957520,118.132629 
	C201.440247,119.473053 201.735428,120.881020 202.490738,123.603790 
	C195.052887,118.838600 188.426117,115.859306 185.897232,107.481750 
	C182.546875,96.382896 178.001282,85.644844 173.985657,74.375793 
	C174.001968,73.999847 173.978271,74.029251 173.978271,74.029251 
z"/>
<path fill="#BABABA" opacity="1.000000" stroke="none" 
	d="
M251.221771,89.018959 
	C247.706528,88.811684 247.777008,90.890404 247.784271,92.984116 
	C247.803879,98.641487 247.993835,104.312042 247.635635,109.946823 
	C247.550674,111.283211 245.580582,112.499756 244.477631,113.771423 
	C243.632309,112.491531 242.098145,111.233955 242.055832,109.928055 
	C241.818924,102.614349 242.023071,95.287674 241.905579,87.968170 
	C241.853226,84.706329 242.856049,82.999496 246.441299,83.055046 
	C254.592163,83.181328 262.746735,83.045120 270.899078,83.110306 
	C273.556366,83.131554 280.083832,88.943031 279.831085,91.310257 
	C279.687286,92.656830 278.275787,93.868019 276.980469,95.828262 
	C270.336731,84.914124 260.256378,90.290138 251.221771,89.018959 
z"/>
<path fill="#BCBCBC" opacity="1.000000" stroke="none" 
	d="
M298.656158,111.862129 
	C298.919952,112.425331 298.894379,112.831299 298.792542,113.531433 
	C290.475891,115.571480 287.721924,107.728302 282.548248,104.403877 
	C278.759216,107.598320 275.288116,110.924515 271.373108,113.601555 
	C270.059875,114.499535 267.615631,113.743530 264.317139,113.743530 
	C266.370087,111.513222 267.541321,110.244019 268.709076,108.971619 
	C275.792145,101.253700 283.009979,93.653259 289.891327,85.759468 
	C292.706512,82.530067 295.775574,82.871269 299.887604,83.525230 
	C295.383118,88.789139 291.223450,93.650055 286.515686,99.151512 
	C290.494415,103.366013 294.430573,107.535454 298.656158,111.862129 
z"/>
<path fill="#B9B9B9" opacity="1.000000" stroke="none" 
	d="
M121.927490,110.727097 
	C121.900963,101.476555 121.900963,92.697037 121.900963,83.510468 
	C125.335205,83.510468 128.363647,83.510468 131.736481,83.510468 
	C131.736481,93.214828 131.736481,102.754929 131.736481,113.837677 
	C128.188171,112.880249 125.071098,112.039177 121.927490,110.727097 
z"/>
<path fill="#BABABA" opacity="1.000000" stroke="none" 
	d="
M167.755707,108.780830 
	C170.295181,103.380661 172.669968,98.326118 175.385696,92.545929 
	C178.461105,99.379211 182.203400,105.627350 176.820068,111.565529 
	C174.837540,113.752380 170.271408,113.597038 166.883713,114.510010 
	C166.618668,114.027306 166.353622,113.544601 166.088577,113.061897 
	C166.589386,111.750084 167.090195,110.438271 167.755707,108.780830 
z"/>
<path fill="#BCBCBC" opacity="1.000000" stroke="none" 
	d="
M255.126205,95.948502 
	C257.924774,95.948708 260.264618,96.120758 262.570374,95.913338 
	C267.293121,95.488495 267.371399,97.949577 266.346222,101.619965 
	C260.772461,101.619965 255.363403,101.619965 249.464630,101.619965 
	C249.337448,99.969467 249.217178,98.408592 249.049973,96.238762 
	C251.150284,96.129967 252.901169,96.039268 255.126205,95.948502 
z"/>
<path fill="#BABABA" opacity="1.000000" stroke="none" 
	d="
M174.016510,73.987740 
	C173.897858,73.845253 173.764664,73.714867 173.631485,73.584488 
	C173.717896,73.635452 173.804321,73.686417 173.934509,73.883316 
	C173.978271,74.029251 174.001968,73.999847 174.016510,73.987740 
z"/>
</svg>