<svg version="1.1" id="Layer_1" xmlns="http://www.w3.org/2000/svg" xmlns:xlink="http://www.w3.org/1999/xlink" x="0px" y="0px"
	 width="100%" viewBox="0 0 299 200" enable-background="new 0 0 299 200" xml:space="preserve">
<path fill="#FFFFFF" opacity="1.000000" stroke="none" 
	d="
M300.000000,109.000000 
	C300.000000,139.640808 300.000000,170.281601 300.000000,200.961212 
	C200.443268,200.961212 100.886520,200.961212 1.000000,200.961212 
	C1.000000,158.646347 1.000000,116.291832 1.343708,73.603912 
	C2.463279,73.372215 3.255517,73.629829 4.012347,73.550331 
	C8.943325,73.032402 13.858734,72.192421 18.797556,72.035942 
	C20.161413,71.992729 22.736946,73.845558 22.802320,74.944664 
	C23.303253,83.366837 23.579182,91.822769 23.413883,100.258194 
	C23.262295,107.994034 22.472862,115.717361 21.933203,123.921555 
	C27.526646,124.291077 32.528786,124.621536 37.961212,124.980415 
	C35.789814,106.506126 34.902882,88.904457 37.222370,71.097130 
	C44.323704,72.080986 50.829975,72.982391 57.732155,73.938652 
	C58.041191,68.809624 58.323292,64.127686 58.632248,59.000000 
	C39.083828,59.000000 20.041914,59.000000 1.000000,59.000000 
	C1.000000,40.312439 1.000000,21.624876 1.220483,2.362333 
	C1.713974,1.586442 1.900319,1.323991 2.000000,1.000000 
	C100.687561,1.000000 199.375122,1.000000 298.638397,1.220182 
	C299.411865,1.717067 299.673828,1.903613 300.000000,2.000000 
	C300.000000,33.020893 300.000000,64.041786 299.696594,95.323517 
	C297.105469,86.062065 293.597260,82.101532 285.287811,81.228569 
	C277.880798,80.450417 270.385071,80.530296 262.930908,80.180176 
	C260.109161,80.047646 258.967438,81.387093 259.180786,84.088692 
	C259.585022,89.207718 260.266113,94.321922 260.348846,99.445930 
	C260.546814,111.705605 260.488678,123.969849 260.474243,136.232162 
	C260.471405,138.639954 260.200012,141.047409 260.057404,143.374741 
	C265.501251,142.229294 270.444794,141.189117 275.691040,140.085236 
	C275.414764,134.985199 275.126648,129.666260 274.819733,124.000725 
	C277.698669,124.000725 279.671936,124.016975 281.644867,123.997932 
	C290.421722,123.913231 295.510437,120.267715 298.493835,112.011734 
	C298.872681,110.963295 299.492035,110.001778 300.000000,109.000000 
M228.572205,58.157574 
	C214.543015,58.157574 200.513824,58.157574 187.200470,58.157574 
	C187.200470,80.282684 187.200470,101.803680 187.200470,124.185837 
	C191.487381,124.417244 196.483932,124.686958 202.203217,124.995682 
	C201.757141,116.243126 201.355988,108.371750 200.924103,99.897537 
	C204.762741,100.335304 207.943176,100.698013 211.497192,101.103325 
	C211.497192,96.525345 211.497192,92.476128 211.497192,87.967316 
	C207.898300,88.339714 204.705032,88.670143 201.514160,89.000328 
	C199.979126,72.301613 199.639908,68.152794 218.113358,70.684372 
	C222.818329,71.329124 227.587494,71.505424 231.984894,71.868690 
	C233.493378,66.898064 234.800995,62.589314 236.149994,58.144196 
	C233.789047,58.144196 231.633209,58.144196 228.572205,58.157574 
M81.105659,117.052582 
	C83.110077,126.823753 90.891663,126.774254 97.157104,121.167305 
	C99.446342,119.118660 101.424988,116.722946 103.724869,114.296104 
	C104.173889,115.317169 104.601128,116.039604 104.818108,116.820465 
	C107.115326,125.087448 112.703072,127.290192 119.701683,122.465134 
	C121.725296,121.070000 123.499161,119.202278 125.053139,117.280800 
	C125.885422,116.251686 126.006325,114.647263 126.448273,113.302467 
	C125.095512,113.021652 123.579010,112.208099 122.421867,112.563736 
	C119.410973,113.489136 118.131775,111.950081 117.975883,109.557816 
	C117.612206,103.976738 117.428658,98.365295 117.571815,92.776398 
	C117.666328,89.086304 118.454681,85.413994 118.972649,81.423477 
	C113.358978,81.423477 108.454613,81.423477 102.997948,81.423477 
	C103.227409,83.524818 103.543671,85.271133 103.585838,87.024033 
	C103.709267,92.155487 104.029419,97.310654 103.677536,102.415520 
	C103.425087,106.077972 100.900948,109.015961 97.160667,108.350815 
	C95.749817,108.099907 94.402786,104.280907 94.069618,101.940018 
	C93.583817,98.526627 93.908363,94.970680 94.132973,91.491364 
	C94.340782,88.272217 94.871483,85.073921 95.296188,81.567596 
	C89.742485,81.567596 85.035431,81.567596 81.034813,81.567596 
	C81.034813,93.386749 81.034813,104.803131 81.105659,117.052582 
M134.454987,85.937119 
	C128.800034,90.864708 127.497162,97.245728 127.858261,104.413315 
	C128.265015,112.487160 131.200851,119.273781 138.454697,122.919762 
	C146.220505,126.823090 154.194717,125.894104 161.668350,121.223991 
	C164.608429,119.386787 166.235184,116.784256 164.662201,113.727989 
	C162.740280,109.993729 160.421265,113.425812 158.500443,114.266960 
	C150.554306,117.746628 143.745682,114.850616 142.534531,106.724640 
	C151.329971,106.724640 160.041794,106.724640 168.668152,106.724640 
	C169.750473,95.051598 165.911270,86.358475 158.145187,82.157166 
	C150.945007,78.261993 142.269989,79.486092 134.454987,85.937119 
M77.074501,92.270645 
	C76.617737,89.033463 77.315010,84.144119 75.488319,82.868179 
	C69.959251,79.006126 64.995232,82.919395 60.385719,86.795204 
	C60.080887,84.726410 59.852089,83.173645 59.629421,81.662460 
	C54.628193,81.662460 49.930264,81.662460 45.540833,81.662460 
	C45.540833,96.162910 45.540833,110.182899 45.540833,124.533920 
	C50.446316,124.533920 55.351444,124.533920 60.567490,124.533920 
	C58.996243,113.687454 57.145557,102.986191 63.449501,92.665520 
	C67.978302,95.096619 72.377968,97.980263 77.074501,92.270645 
M217.121704,76.137077 
	C216.661530,77.236061 215.762283,78.355446 215.812225,79.430733 
	C216.143524,86.562103 217.043228,93.683769 217.048294,100.809090 
	C217.053818,108.546303 216.288620,116.284050 215.835175,124.459991 
	C221.042969,124.459991 226.236618,124.459991 230.750092,124.459991 
	C230.750092,108.467316 230.750092,92.775948 230.750092,76.114769 
	C226.833313,76.114769 222.412125,76.114769 217.121704,76.137077 
M239.107849,99.563332 
	C239.107849,107.585831 239.107849,115.608330 239.107849,123.737549 
	C243.641815,123.737549 248.532898,123.737549 252.854874,123.737549 
	C252.854874,109.560249 252.854874,95.733444 252.854874,81.512375 
	C248.462692,81.512375 243.443481,81.512375 237.877869,81.512375 
	C238.300415,87.436241 238.698105,93.011551 239.107849,99.563332 
M246.392456,61.100754 
	C238.539658,62.775742 235.440170,67.838783 238.963638,73.300774 
	C241.113937,76.634148 244.279984,77.773224 248.018417,76.795174 
	C251.601303,75.857826 253.682373,73.290932 253.841263,69.596230 
	C254.038834,65.002419 251.801422,62.059658 246.392456,61.100754 
z"/>
<path fill="#B9B9B9" opacity="1.000000" stroke="none" 
	d="
M300.000000,108.536819 
	C299.492035,110.001778 298.872681,110.963295 298.493835,112.011734 
	C295.510437,120.267715 290.421722,123.913231 281.644867,123.997932 
	C279.671936,124.016975 277.698669,124.000725 274.819733,124.000725 
	C275.126648,129.666260 275.414764,134.985199 275.691040,140.085236 
	C270.444794,141.189117 265.501251,142.229294 260.057404,143.374741 
	C260.200012,141.047409 260.471405,138.639954 260.474243,136.232162 
	C260.488678,123.969849 260.546814,111.705605 260.348846,99.445930 
	C260.266113,94.321922 259.585022,89.207718 259.180786,84.088692 
	C258.967438,81.387093 260.109161,80.047646 262.930908,80.180176 
	C270.385071,80.530296 277.880798,80.450417 285.287811,81.228569 
	C293.597260,82.101532 297.105469,86.062065 299.696594,95.792175 
	C300.000000,100.024544 300.000000,104.049088 300.000000,108.536819 
M274.907959,95.405327 
	C274.518280,101.789795 274.128601,108.174255 273.743713,114.479996 
	C279.089844,115.670334 282.695068,114.124176 284.778503,110.285118 
	C287.681580,104.935707 288.179840,99.192726 285.286560,93.585716 
	C283.232239,89.604599 279.559662,89.627472 275.326019,90.212616 
	C275.191956,91.628883 275.056396,93.060852 274.907959,95.405327 
z"/>
<path fill="#B9B9B9" opacity="1.000000" stroke="none" 
	d="
M1.000000,59.464653 
	C20.041914,59.000000 39.083828,59.000000 58.632248,59.000000 
	C58.323292,64.127686 58.041191,68.809624 57.732155,73.938652 
	C50.829975,72.982391 44.323704,72.080986 37.222370,71.097130 
	C34.902882,88.904457 35.789814,106.506126 37.961212,124.980415 
	C32.528786,124.621536 27.526646,124.291077 21.933203,123.921555 
	C22.472862,115.717361 23.262295,107.994034 23.413883,100.258194 
	C23.579182,91.822769 23.303253,83.366837 22.802320,74.944664 
	C22.736946,73.845558 20.161413,71.992729 18.797556,72.035942 
	C13.858734,72.192421 8.943325,73.032402 4.012347,73.550331 
	C3.255517,73.629829 2.463279,73.372215 1.343708,73.135254 
	C1.000000,68.643097 1.000000,64.286201 1.000000,59.464653 
z"/>
<path fill="#F8F8F8" opacity="1.000000" stroke="none" 
	d="
M1.500000,1.000000 
	C1.900319,1.323991 1.713974,1.586442 1.220483,1.893676 
	C1.000000,1.666667 1.000000,1.333333 1.500000,1.000000 
z"/>
<path fill="#F8F8F8" opacity="1.000000" stroke="none" 
	d="
M300.000000,1.500000 
	C299.673828,1.903613 299.411865,1.717067 299.107056,1.220182 
	C299.333344,1.000000 299.666656,1.000000 300.000000,1.500000 
z"/>
<path fill="#BABABA" opacity="1.000000" stroke="none" 
	d="
M229.024780,58.150887 
	C231.633209,58.144196 233.789047,58.144196 236.149994,58.144196 
	C234.800995,62.589314 233.493378,66.898064 231.984894,71.868690 
	C227.587494,71.505424 222.818329,71.329124 218.113358,70.684372 
	C199.639908,68.152794 199.979126,72.301613 201.514160,89.000328 
	C204.705032,88.670143 207.898300,88.339714 211.497192,87.967316 
	C211.497192,92.476128 211.497192,96.525345 211.497192,101.103325 
	C207.943176,100.698013 204.762741,100.335304 200.924103,99.897537 
	C201.355988,108.371750 201.757141,116.243126 202.203217,124.995682 
	C196.483932,124.686958 191.487381,124.417244 187.200470,124.185837 
	C187.200470,101.803680 187.200470,80.282684 187.200470,58.157574 
	C200.513824,58.157574 214.543015,58.157574 229.024780,58.150887 
z"/>
<path fill="#BABABA" opacity="1.000000" stroke="none" 
	d="
M81.070236,116.636047 
	C81.034813,104.803131 81.034813,93.386749 81.034813,81.567596 
	C85.035431,81.567596 89.742485,81.567596 95.296188,81.567596 
	C94.871483,85.073921 94.340782,88.272217 94.132973,91.491364 
	C93.908363,94.970680 93.583817,98.526627 94.069618,101.940018 
	C94.402786,104.280907 95.749817,108.099907 97.160667,108.350815 
	C100.900948,109.015961 103.425087,106.077972 103.677536,102.415520 
	C104.029419,97.310654 103.709267,92.155487 103.585838,87.024033 
	C103.543671,85.271133 103.227409,83.524818 102.997948,81.423477 
	C108.454613,81.423477 113.358978,81.423477 118.972649,81.423477 
	C118.454681,85.413994 117.666328,89.086304 117.571815,92.776398 
	C117.428658,98.365295 117.612206,103.976738 117.975883,109.557816 
	C118.131775,111.950081 119.410973,113.489136 122.421867,112.563736 
	C123.579010,112.208099 125.095512,113.021652 126.448273,113.302467 
	C126.006325,114.647263 125.885422,116.251686 125.053139,117.280800 
	C123.499161,119.202278 121.725296,121.070000 119.701683,122.465134 
	C112.703072,127.290192 107.115326,125.087448 104.818108,116.820465 
	C104.601128,116.039604 104.173889,115.317169 103.724869,114.296104 
	C101.424988,116.722946 99.446342,119.118660 97.157104,121.167305 
	C90.891663,126.774254 83.110077,126.823753 81.070236,116.636047 
z"/>
<path fill="#B9B9B9" opacity="1.000000" stroke="none" 
	d="
M134.715439,85.681808 
	C142.269989,79.486092 150.945007,78.261993 158.145187,82.157166 
	C165.911270,86.358475 169.750473,95.051598 168.668152,106.724640 
	C160.041794,106.724640 151.329971,106.724640 142.534531,106.724640 
	C143.745682,114.850616 150.554306,117.746628 158.500443,114.266960 
	C160.421265,113.425812 162.740280,109.993729 164.662201,113.727989 
	C166.235184,116.784256 164.608429,119.386787 161.668350,121.223991 
	C154.194717,125.894104 146.220505,126.823090 138.454697,122.919762 
	C131.200851,119.273781 128.265015,112.487160 127.858261,104.413315 
	C127.497162,97.245728 128.800034,90.864708 134.715439,85.681808 
M143.201324,100.971802 
	C147.929916,100.971802 152.658493,100.971802 157.449585,100.971802 
	C156.475327,94.338287 154.728851,92.699127 149.348938,92.945442 
	C144.875824,93.150238 142.751129,95.507759 143.201324,100.971802 
z"/>
<path fill="#BABABA" opacity="1.000000" stroke="none" 
	d="
M76.836716,92.577530 
	C72.377968,97.980263 67.978302,95.096619 63.449501,92.665520 
	C57.145557,102.986191 58.996243,113.687454 60.567490,124.533920 
	C55.351444,124.533920 50.446316,124.533920 45.540833,124.533920 
	C45.540833,110.182899 45.540833,96.162910 45.540833,81.662460 
	C49.930264,81.662460 54.628193,81.662460 59.629421,81.662460 
	C59.852089,83.173645 60.080887,84.726410 60.385719,86.795204 
	C64.995232,82.919395 69.959251,79.006126 75.488319,82.868179 
	C77.315010,84.144119 76.617737,89.033463 76.836716,92.577530 
z"/>
<path fill="#BBBBBB" opacity="1.000000" stroke="none" 
	d="
M217.556305,76.125923 
	C222.412125,76.114769 226.833313,76.114769 230.750092,76.114769 
	C230.750092,92.775948 230.750092,108.467316 230.750092,124.459991 
	C226.236618,124.459991 221.042969,124.459991 215.835175,124.459991 
	C216.288620,116.284050 217.053818,108.546303 217.048294,100.809090 
	C217.043228,93.683769 216.143524,86.562103 215.812225,79.430733 
	C215.762283,78.355446 216.661530,77.236061 217.556305,76.125923 
z"/>
<path fill="#BABABA" opacity="1.000000" stroke="none" 
	d="
M239.101837,99.075104 
	C238.698105,93.011551 238.300415,87.436241 237.877869,81.512375 
	C243.443481,81.512375 248.462692,81.512375 252.854874,81.512375 
	C252.854874,95.733444 252.854874,109.560249 252.854874,123.737549 
	C248.532898,123.737549 243.641815,123.737549 239.107849,123.737549 
	C239.107849,115.608330 239.107849,107.585831 239.101837,99.075104 
z"/>
<path fill="#BABABA" opacity="1.000000" stroke="none" 
	d="
M246.787720,61.108734 
	C251.801422,62.059658 254.038834,65.002419 253.841263,69.596230 
	C253.682373,73.290932 251.601303,75.857826 248.018417,76.795174 
	C244.279984,77.773224 241.113937,76.634148 238.963638,73.300774 
	C235.440170,67.838783 238.539658,62.775742 246.787720,61.108734 
z"/>
<path fill="#FFFFFF" opacity="1.000000" stroke="none" 
	d="
M274.914429,94.949074 
	C275.056396,93.060852 275.191956,91.628883 275.326019,90.212616 
	C279.559662,89.627472 283.232239,89.604599 285.286560,93.585716 
	C288.179840,99.192726 287.681580,104.935707 284.778503,110.285118 
	C282.695068,114.124176 279.089844,115.670334 273.743713,114.479996 
	C274.128601,108.174255 274.518280,101.789795 274.914429,94.949074 
z"/>
<path fill="#FFFFFF" opacity="1.000000" stroke="none" 
	d="
M142.828033,100.783478 
	C142.751129,95.507759 144.875824,93.150238 149.348938,92.945442 
	C154.728851,92.699127 156.475327,94.338287 157.449585,100.971802 
	C152.658493,100.971802 147.929916,100.971802 142.828033,100.783478 
z"/>
</svg>