<?xml version="1.0" encoding="UTF-8"?>
<svg xmlns:xodm="http://www.corel.com/coreldraw/odm/2003" xmlns="http://www.w3.org/2000/svg" xmlns:xlink="http://www.w3.org/1999/xlink" version="1.1" id="Layer_1" x="0px" y="0px" viewBox="0 0 2500 957" style="enable-background:new 0 0 2500 957;" xml:space="preserve">
<style type="text/css">
	.st0{fill:#0088CC;}
	.st1{fill-rule:evenodd;clip-rule:evenodd;fill:#FFFFFF;}
</style>
<g id="Layer_x0020_1">
	<g id="_1626676058944">
		<polygon points="1348.7,708.8 1348.7,367.8 1217.1,367.8 1217.1,275.1 1593.9,275.1 1593.9,367.8 1462.3,367.8 1462.3,708.8   "></polygon>
		<path d="M1602.9,493.5c0-44.9,9-83.7,26.9-116.6c17.9-32.9,41.9-59.8,74.8-77.7c35.9-20.9,74.8-29.9,119.6-29.9s83.7,9,116.6,26.9    c32.9,17.9,56.8,44.9,74.8,77.8c17.9,32.9,26.9,71.8,26.9,116.6s-9,83.7-26.9,116.6c-17.9,32.9-41.9,59.8-74.8,77.8    c-32.9,17.9-71.8,26.9-116.6,26.9c-44.9,0-83.7-9-116.6-26.9c-32.9-17.9-56.8-44.9-74.8-77.8    C1611.8,577.2,1602.9,535.3,1602.9,493.5L1602.9,493.5z M1722.5,493.5c0,26.9,3,50.8,12,68.8c6,17.9,17.9,32.9,32.9,44.9    c14.9,9,32.9,15,56.8,15c32.9,0,59.8-12,74.8-32.9c17.9-23.9,23.9-53.8,23.9-95.7c0-26.9-3-50.8-12-68.8    c-6-17.9-18-32.9-32.9-44.9c-14.9-9-32.9-14.9-56.8-14.9c-32.9,0-59.8,12-74.8,32.9C1731.5,418.7,1722.5,451.6,1722.5,493.5    L1722.5,493.5z"></path>
		<polygon points="2111.2,708.8 2111.2,275.1 2195,275.1 2413.3,547.3 2395.3,547.3 2395.3,275.1 2500,275.1 2500,708.8     2416.3,708.8 2198,436.6 2215.9,436.6 2215.9,708.8   "></polygon>
		<g>
			<path class="st0" d="M478.5,957c263.2,0,478.5-215.3,478.5-478.5C956.9,215.3,741.6,0,478.5,0C215.3,0,0,215.3,0,478.5     C0,741.7,215.3,957,478.5,957z"></path>
			<path class="st1" d="M343.9,317H613c9,0,17.9,0,29.9,6c12,6,17.9,15,23.9,20.9c0,0,0,0,0,3c6,9,9,17.9,9,29.9c0,9-3,20.9-9,29.9     l0,0L496.4,696.8c-3,6-12,9-17.9,9c-6,0-14.9-3-17.9-9L293.1,406.7l0,0c-3-6-9-14.9-12-29.9c0-12,3-23.9,6-32.9     c6-9,14.9-17.9,23.9-23.9C326,317,337.9,317,343.9,317L343.9,317z M457.5,358.9H343.9c-6,0-9,0-12,0s-6,3-6,6c-3,3-3,6-3,9     c0,3,0,3,6,12l0,0l128.6,224.3L457.5,358.9L457.5,358.9z M499.4,358.9v251.2L631,385.8c0-3,3-6,3-12c0-3,0-6-3-9c-3-3-3-3-3-3     s0,0-3,0c-3,0-6-3-12-3H499.4L499.4,358.9z"></path>
		</g>
	</g>
</g>
</svg>
